SplineFontDB: 3.0
FontName: SAU-VaigaiBold
FullName: SAU Vaigai Bold
FamilyName: SAU Vaigai
Weight: Bold
Copyright: Copyright (c) 2009-2015, NLCI (http://www.nlci.in/fonts/)
Version: 1.0 Sat Jul 20 09:50:26 1996
ItalicAngle: 0
UnderlinePosition: -240
UnderlineWidth: 20
Ascent: 800
Descent: 200
InvalidEm: 0
LayerCount: 2
Layer: 0 0 "Back" 1
Layer: 1 0 "Fore" 0
XUID: [1021 733 767880906 155357]
FSType: 0
OS2Version: 1
OS2_WeightWidthSlopeOnly: 0
OS2_UseTypoMetrics: 1
CreationTime: 1257735723
ModificationTime: 1518182843
PfmFamily: 81
TTFWeight: 700
TTFWidth: 5
LineGap: 0
VLineGap: 0
Panose: 5 0 0 0 0 0 0 0 0 0
OS2TypoAscent: 252
OS2TypoAOffset: 1
OS2TypoDescent: -167
OS2TypoDOffset: 1
OS2TypoLinegap: 0
OS2WinAscent: -4
OS2WinAOffset: 1
OS2WinDescent: 23
OS2WinDOffset: 1
HheadAscent: -4
HheadAOffset: 1
HheadDescent: -23
HheadDOffset: 1
OS2SubXSize: 700
OS2SubYSize: 650
OS2SubXOff: 0
OS2SubYOff: 143
OS2SupXSize: 700
OS2SupYSize: 650
OS2SupXOff: 0
OS2SupYOff: 453
OS2StrikeYSize: 50
OS2StrikeYPos: 259
OS2Vendor: 'Alts'
OS2CodePages: 00000000.00000000
OS2UnicodeRanges: 00100001.00000000.00000000.00000000
Lookup: 4 0 0 "akhnAkhandinTamillookup9" { "akhnAkhandinTamillookup9 subtable"  } ['akhn' ('taml' <'TAM ' 'TAO ' 'dflt' > ) ]
Lookup: 4 0 0 "akhnligs" { "akhnligs subtable"  } ['akhn' ('taml' <'TAM ' 'TAO ' 'dflt' > ) ]
Lookup: 4 0 0 "sub_ligature_pststaml_0" { "sub_ligature_pststaml_0 subtable"  } ['psts' ('taml' <'TAM ' 'TAO ' 'dflt' > ) ]
Lookup: 4 0 0 "sub_ligature_pststaml_2" { "sub_ligature_pststaml_2 subtable"  } ['psts' ('taml' <'TAM ' 'TAO ' 'dflt' > ) ]
Lookup: 4 0 0 "sub_ligature_pststaml_4" { "sub_ligature_pststaml_4 subtable"  } ['psts' ('taml' <'TAM ' 'TAO ' 'dflt' > ) ]
Lookup: 4 0 0 "sub_ligature_pststaml_6" { "sub_ligature_pststaml_6 subtable"  } ['psts' ('taml' <'TAM ' 'TAO ' 'dflt' > ) ]
Lookup: 4 0 0 "sub_ligature_pststaml_8" { "sub_ligature_pststaml_8 subtable"  } ['psts' ('taml' <'TAM ' 'TAO ' 'dflt' > ) ]

StartChar: .notdef
Encoding: 96 -1 0
Width: 1024
GlyphClass: 2
Flags: W
HStem: 0 64<128 896> 1472 64<128 896>
VStem: 64 64<64 1472> 896 64<64 1472>
LayerCount: 2
Fore
SplineSet
64 0 m 1
 64 1536 l 1
 960 1536 l 1
 960 0 l 1
 64 0 l 1
896 64 m 1
 896 1472 l 1
 128 1472 l 1
 128 64 l 1
 896 64 l 1
EndSplineSet
Validated: 1
Ligature2: "sub_ligature_pststaml_8 subtable" u0B95 u0BC2
LCarets2: 1 0
EndChar

StartChar: exclam
Encoding: 1 33 4
Width: 339
GlyphClass: 1
Flags: W
LayerCount: 2
Fore
SplineSet
250 69 m 1
 250 52 250 52 243.5 37 c 128
 237 22 237 22 226.5 11.5 c 128
 216 1 216 1 202 -5 c 128
 188 -11 188 -11 172 -11 c 0
 160 -11 160 -11 146 -6.5 c 128
 132 -2 132 -2 120 7.5 c 128
 108 17 108 17 100 32.5 c 128
 92 48 92 48 92 69 c 0
 92 88 92 88 99 102.5 c 128
 106 117 106 117 117.5 126.5 c 128
 129 136 129 136 143 141 c 128
 157 146 157 146 171 146 c 0
 184 146 184 146 198 141 c 128
 212 136 212 136 223 126 c 128
 234 116 234 116 241 101.5 c 128
 248 87 248 87 250 69 c 1
196 206 m 1
 142 206 l 1
 87 603 l 1
 87 623 87 623 93.5 638 c 128
 100 653 100 653 110.5 662.5 c 128
 121 672 121 672 135.5 676.5 c 128
 150 681 150 681 167 681 c 0
 183 681 183 681 197.5 676.5 c 128
 212 672 212 672 222.5 662.5 c 128
 233 653 233 653 239 638 c 128
 245 623 245 623 245 602 c 1
 196 206 l 1
EndSplineSet
EndChar

StartChar: quotedbl
Encoding: 2 34 5
Width: 392
GlyphClass: 1
Flags: W
LayerCount: 2
Fore
SplineSet
79 416 m 1
 40 649 l 1
 40 676 40 676 53 693.5 c 128
 66 711 66 711 96 711 c 256
 126 711 126 711 139.5 693.5 c 128
 153 676 153 676 153 649 c 1
 115 416 l 1
 79 416 l 1
273 416 m 1
 234 649 l 1
 234 676 234 676 247 693.5 c 128
 260 711 260 711 290 711 c 256
 320 711 320 711 334 693.5 c 128
 348 676 348 676 348 649 c 1
 308 416 l 1
 273 416 l 1
EndSplineSet
EndChar

StartChar: numbersign
Encoding: 3 35 6
Width: 741
GlyphClass: 1
Flags: W
LayerCount: 2
Fore
SplineSet
331 414 m 1
 288 283 l 1
 412 283 l 1
 457 414 l 1
 331 414 l 1
526 414 m 1
 484 283 l 1
 639 283 l 1
 639 221 l 1
 462 221 l 1
 387 -22 l 1
 318 -5 l 1
 392 221 l 1
 267 221 l 1
 189 -22 l 1
 123 -4 l 1
 197 221 l 1
 64 221 l 1
 64 283 l 1
 217 283 l 1
 259 414 l 1
 112 414 l 1
 112 479 l 1
 280 479 l 1
 357 708 l 1
 423 690 l 1
 350 479 l 1
 479 479 l 1
 553 708 l 1
 621 689 l 1
 546 479 l 1
 677 479 l 1
 677 414 l 1
 526 414 l 1
EndSplineSet
EndChar

StartChar: dollar
Encoding: 4 36 7
Width: 586
GlyphClass: 1
Flags: W
LayerCount: 2
Fore
SplineSet
407 168 m 0
 407 192 407 192 398 209 c 128
 389 226 389 226 376 237 c 128
 363 248 363 248 347.5 254.5 c 128
 332 261 332 261 320 264 c 1
 320 62 l 1
 344 65 344 65 363 77 c 0
 371 81 371 81 379 88.5 c 128
 387 96 387 96 393 106 c 128
 399 116 399 116 402.5 130 c 128
 406 144 406 144 407 168 c 0
258 597 m 1
 238 595 238 595 222 585 c 0
 209 576 209 576 198.5 558 c 128
 188 540 188 540 188 508 c 0
 188 478 188 478 198.5 459 c 128
 209 440 209 440 222 430 c 0
 238 418 238 418 258 413 c 1
 258 597 l 1
533 204 m 1
 533 162 533 162 517.5 127.5 c 128
 502 93 502 93 473.5 67.5 c 128
 445 42 445 42 405.5 25.5 c 128
 366 9 366 9 319 3 c 1
 319 -100 l 1
 260 -100 l 1
 260 2 l 1
 226 3 226 3 191 7 c 0
 161 10 161 10 125.5 16 c 128
 90 22 90 22 58 32 c 1
 58 204 l 1
 128 204 l 1
 148 87 l 1
 163 78 163 78 182.5 73 c 128
 202 68 202 68 219 66 c 0
 239 64 239 64 259 64 c 1
 259 284 l 1
 241 289 241 289 219.5 296 c 128
 198 303 198 303 176 313 c 128
 154 323 154 323 133.5 337 c 128
 113 351 113 351 97.5 370.5 c 128
 82 390 82 390 72.5 416 c 128
 63 442 63 442 63 475 c 0
 63 509 63 509 71.5 535 c 128
 80 561 80 561 93.5 581 c 128
 107 601 107 601 124.5 614.5 c 128
 142 628 142 628 160 637 c 0
 203 658 203 658 258 662 c 1
 258 736 l 1
 317 736 l 1
 317 662 l 1
 347 662 347 662 378.5 657.5 c 128
 410 653 410 653 436 648 c 0
 466 642 466 642 495 635 c 1
 495 469 l 1
 427 469 l 1
 408 579 l 2
 408 582 408 582 396 586 c 128
 384 590 384 590 368.5 593.5 c 128
 353 597 353 597 338.5 599 c 128
 324 601 324 601 319 601 c 1
 319 395 l 1
 335 391 335 391 357 384.5 c 128
 379 378 379 378 402.5 368 c 128
 426 358 426 358 449 344 c 128
 472 330 472 330 490.5 310 c 128
 509 290 509 290 520 263.5 c 128
 531 237 531 237 533 204 c 1
EndSplineSet
EndChar

StartChar: percent
Encoding: 5 37 8
Width: 894
GlyphClass: 1
Flags: W
LayerCount: 2
Fore
SplineSet
264 478 m 0
 264 523 264 523 259.5 554 c 128
 255 585 255 585 247 603.5 c 128
 239 622 239 622 227.5 630 c 128
 216 638 216 638 203 638 c 0
 189 638 189 638 176.5 630 c 128
 164 622 164 622 154 603.5 c 128
 144 585 144 585 138.5 554 c 128
 133 523 133 523 133 478 c 0
 133 432 133 432 138.5 401 c 128
 144 370 144 370 154 351 c 128
 164 332 164 332 176.5 324 c 128
 189 316 189 316 203 316 c 0
 216 316 216 316 227.5 324 c 128
 239 332 239 332 247 351 c 128
 255 370 255 370 259.5 401 c 128
 264 432 264 432 264 478 c 0
755 194 m 0
 755 239 755 239 750.5 270 c 128
 746 301 746 301 738 319.5 c 128
 730 338 730 338 718.5 346 c 128
 707 354 707 354 694 354 c 256
 681 354 681 354 669 346 c 128
 657 338 657 338 648 319.5 c 128
 639 301 639 301 633.5 270 c 128
 628 239 628 239 628 194 c 0
 628 148 628 148 633.5 117 c 128
 639 86 639 86 648 67.5 c 128
 657 49 657 49 669 41 c 128
 681 33 681 33 694 33 c 256
 707 33 707 33 718.5 41 c 128
 730 49 730 49 738 67.5 c 128
 746 86 746 86 750.5 117 c 128
 755 148 755 148 755 194 c 0
372 479 m 256
 372 431 372 431 361.5 392.5 c 128
 351 354 351 354 330 327 c 128
 309 300 309 300 277 285.5 c 128
 245 271 245 271 203 271 c 256
 161 271 161 271 129 285.5 c 128
 97 300 97 300 75.5 327 c 128
 54 354 54 354 43.5 392.5 c 128
 33 431 33 431 33 479 c 256
 33 527 33 527 43.5 565.5 c 128
 54 604 54 604 75.5 631 c 128
 97 658 97 658 129 672 c 128
 161 686 161 686 203 686 c 256
 245 686 245 686 277 672 c 128
 309 658 309 658 330 631 c 128
 351 604 351 604 361.5 565.5 c 128
 372 527 372 527 372 479 c 256
275 1 m 1
 205 1 l 1
 620 671 l 1
 691 671 l 1
 275 1 l 1
865 193 m 256
 865 145 865 145 854.5 106.5 c 128
 844 68 844 68 823 41 c 128
 802 14 802 14 770 0 c 128
 738 -14 738 -14 696 -14 c 256
 654 -14 654 -14 622.5 0 c 128
 591 14 591 14 570 41 c 128
 549 68 549 68 539 106.5 c 128
 529 145 529 145 529 193 c 256
 529 241 529 241 539 279.5 c 128
 549 318 549 318 570 344.5 c 128
 591 371 591 371 622.5 385 c 128
 654 399 654 399 696 399 c 256
 738 399 738 399 770 385 c 128
 802 371 802 371 823 344.5 c 128
 844 318 844 318 854.5 279.5 c 128
 865 241 865 241 865 193 c 256
EndSplineSet
EndChar

StartChar: ampersand
Encoding: 6 38 9
Width: 734
GlyphClass: 1
Flags: W
LayerCount: 2
Fore
SplineSet
500 0 m 1
 500 23 l 1
 459 69 l 1
 436 46 436 46 406 28 c 0
 393 21 393 21 377 13.5 c 128
 361 6 361 6 342 0.5 c 128
 323 -5 323 -5 301.5 -8 c 128
 280 -11 280 -11 257 -11 c 0
 209 -11 209 -11 169.5 3 c 128
 130 17 130 17 102 42.5 c 128
 74 68 74 68 58.5 104 c 128
 43 140 43 140 43 184 c 0
 43 219 43 219 53 246 c 128
 63 273 63 273 81.5 293.5 c 128
 100 314 100 314 125.5 328.5 c 128
 151 343 151 343 182 353 c 1
 181 353 181 353 175 357 c 0
 168 362 168 362 158 371.5 c 128
 148 381 148 381 136.5 394 c 128
 125 407 125 407 115 424 c 128
 105 441 105 441 98.5 461.5 c 128
 92 482 92 482 92 506 c 0
 92 547 92 547 109 578.5 c 128
 126 610 126 610 155.5 631 c 128
 185 652 185 652 224.5 662.5 c 128
 264 673 264 673 308 673 c 0
 327 673 327 673 349 670.5 c 128
 371 668 371 668 392.5 661 c 128
 414 654 414 654 434 642.5 c 128
 454 631 454 631 469 614 c 128
 484 597 484 597 493 573.5 c 128
 502 550 502 550 502 520 c 0
 502 487 502 487 492 462.5 c 128
 482 438 482 438 466.5 420 c 128
 451 402 451 402 432.5 390.5 c 128
 414 379 414 379 397.5 372 c 128
 381 365 381 365 369 362 c 128
 357 359 357 359 355 359 c 1
 508 200 l 1
 519 215 519 215 529 232 c 0
 537 247 537 247 545.5 267 c 128
 554 287 554 287 558 310 c 0
 558 314 558 314 554.5 319.5 c 128
 551 325 551 325 549 325 c 2
 498 333 l 1
 498 380 l 1
 707 380 l 1
 707 333 l 1
 639 320 l 1
 627 281 627 281 611 250.5 c 128
 595 220 595 220 581 199 c 0
 564 175 564 175 547 157 c 1
 641 56 l 1
 722 48 l 1
 722 -2 l 1
 500 0 l 1
223 318 m 1
 210 309 210 309 200 297 c 0
 192 286 192 286 185 269 c 128
 178 252 178 252 178 229 c 0
 178 187 178 187 190.5 157.5 c 128
 203 128 203 128 223.5 109.5 c 128
 244 91 244 91 270 83 c 128
 296 75 296 75 322 75 c 0
 347 75 347 75 365 81 c 128
 383 87 383 87 395 94 c 0
 409 102 409 102 418 113 c 1
 223 318 l 1
377 524 m 0
 377 544 377 544 372 562 c 128
 367 580 367 580 357 593 c 128
 347 606 347 606 332.5 613.5 c 128
 318 621 318 621 300 621 c 0
 283 621 283 621 268.5 615.5 c 128
 254 610 254 610 243.5 600 c 128
 233 590 233 590 227 576 c 128
 221 562 221 562 221 545 c 0
 221 529 221 529 226 513 c 128
 231 497 231 497 242 479.5 c 128
 253 462 253 462 271 442 c 128
 289 422 289 422 314 399 c 1
 329 412 329 412 340.5 425.5 c 128
 352 439 352 439 360 453.5 c 128
 368 468 368 468 372 485 c 128
 376 502 376 502 377 524 c 0
EndSplineSet
EndChar

StartChar: quotesingle
Encoding: 7 39 10
Width: 175
GlyphClass: 1
Flags: W
LayerCount: 2
Fore
SplineSet
69 416 m 1
 30 649 l 1
 30 676 30 676 43 693.5 c 128
 56 711 56 711 86 711 c 256
 116 711 116 711 129.5 693.5 c 128
 143 676 143 676 143 649 c 1
 103 416 l 1
 69 416 l 1
EndSplineSet
EndChar

StartChar: parenleft
Encoding: 8 40 11
Width: 392
GlyphClass: 1
Flags: W
LayerCount: 2
Fore
SplineSet
357 -142 m 1
 284 -141 284 -141 228.5 -110.5 c 128
 173 -80 173 -80 135.5 -24.5 c 128
 98 31 98 31 79 109.5 c 128
 60 188 60 188 60 286 c 0
 60 383 60 383 79 461 c 128
 98 539 98 539 135.5 594 c 128
 173 649 173 649 228.5 679.5 c 128
 284 710 284 710 357 712 c 1
 357 659 l 1
 305 652 305 652 272 621.5 c 128
 239 591 239 591 220 542 c 128
 201 493 201 493 194 427.5 c 128
 187 362 187 362 187 286 c 0
 187 209 187 209 194 143.5 c 128
 201 78 201 78 220 29 c 128
 239 -20 239 -20 272 -50.5 c 128
 305 -81 305 -81 357 -88 c 1
 357 -142 l 1
EndSplineSet
EndChar

StartChar: parenright
Encoding: 9 41 12
Width: 392
GlyphClass: 1
Flags: W
LayerCount: 2
Fore
SplineSet
333 288 m 0
 333 190 333 190 314 111.5 c 128
 295 33 295 33 257.5 -22.5 c 128
 220 -78 220 -78 164.5 -108.5 c 128
 109 -139 109 -139 36 -140 c 1
 36 -86 l 1
 88 -79 88 -79 121 -48.5 c 128
 154 -18 154 -18 173 31 c 128
 192 80 192 80 199 145.5 c 128
 206 211 206 211 206 288 c 0
 206 364 206 364 199 429.5 c 128
 192 495 192 495 173 544 c 128
 154 593 154 593 121 623.5 c 128
 88 654 88 654 36 661 c 1
 36 714 l 1
 109 712 109 712 164.5 681.5 c 128
 220 651 220 651 257.5 596 c 128
 295 541 295 541 314 463 c 128
 333 385 333 385 333 288 c 0
EndSplineSet
EndChar

StartChar: asterisk
Encoding: 10 42 13
Width: 500
GlyphClass: 1
Flags: W
LayerCount: 2
Fore
SplineSet
204 357 m 1
 128 337 l 1
 126 415 l 1
 232 493 l 1
 244 481 l 1
 204 357 l 1
226 505 m 1
 97 505 l 1
 55 569 l 1
 126 598 l 1
 232 519 l 1
 226 505 l 1
372 336 m 1
 296 356 l 1
 256 480 l 1
 268 492 l 1
 374 414 l 1
 372 336 l 1
257 531 m 1
 241 531 l 1
 200 656 l 1
 249 715 l 1
 298 656 l 1
 257 531 l 1
401 504 m 1
 273 504 l 1
 267 519 l 1
 372 597 l 1
 445 568 l 1
 401 504 l 1
EndSplineSet
EndChar

StartChar: plus
Encoding: 11 43 14
Width: 1000
GlyphClass: 1
Flags: W
LayerCount: 2
Fore
SplineSet
530 269 m 1
 530 0 l 1
 469 0 l 1
 469 269 l 1
 200 269 l 1
 200 331 l 1
 469 331 l 1
 469 600 l 1
 530 600 l 1
 530 331 l 1
 799 331 l 1
 799 269 l 1
 530 269 l 1
EndSplineSet
EndChar

StartChar: comma
Encoding: 12 44 15
Width: 317
GlyphClass: 1
Flags: W
LayerCount: 2
Fore
SplineSet
242 59 m 1
 242 28 242 28 233.5 -0.5 c 128
 225 -29 225 -29 210.5 -54.5 c 128
 196 -80 196 -80 176 -101 c 128
 156 -122 156 -122 133.5 -137.5 c 128
 111 -153 111 -153 86.5 -162.5 c 128
 62 -172 62 -172 39 -173 c 1
 39 -125 l 1
 58 -123 58 -123 79.5 -115 c 128
 101 -107 101 -107 119 -91.5 c 128
 137 -76 137 -76 148 -52 c 128
 159 -28 159 -28 158 7 c 1
 98 7 l 1
 89 14 89 14 83.5 22 c 128
 78 30 78 30 74.5 38 c 128
 71 46 71 46 70 54 c 128
 69 62 69 62 69 69 c 0
 69 88 69 88 76 103 c 128
 83 118 83 118 94.5 128.5 c 128
 106 139 106 139 121 145 c 128
 136 151 136 151 152 151 c 0
 197 151 197 151 221.5 125.5 c 128
 246 100 246 100 242 59 c 1
EndSplineSet
EndChar

StartChar: hyphen
Encoding: 13 45 16
Width: 328
GlyphClass: 1
Flags: W
LayerCount: 2
Fore
SplineSet
33 187 m 1
 33 292 l 1
 294 292 l 1
 294 187 l 1
 33 187 l 1
EndSplineSet
EndChar

StartChar: period
Encoding: 14 46 17
Width: 317
GlyphClass: 1
Flags: W
LayerCount: 2
Fore
SplineSet
229 70 m 256
 229 53 229 53 223 38 c 128
 217 23 217 23 206 12 c 128
 195 1 195 1 180 -5.5 c 128
 165 -12 165 -12 148 -12 c 256
 131 -12 131 -12 116 -5.5 c 128
 101 1 101 1 90 12 c 128
 79 23 79 23 72.5 38 c 128
 66 53 66 53 66 70 c 256
 66 87 66 87 72.5 102 c 128
 79 117 79 117 90 128 c 128
 101 139 101 139 116 145.5 c 128
 131 152 131 152 148 152 c 256
 165 152 165 152 180 145.5 c 128
 195 139 195 139 206 128 c 128
 217 117 217 117 223 102 c 128
 229 87 229 87 229 70 c 256
EndSplineSet
EndChar

StartChar: slash
Encoding: 15 47 18
Width: 500
GlyphClass: 1
Flags: W
LayerCount: 2
Fore
SplineSet
78 -92 m 1
 0 -92 l 1
 421 671 l 1
 500 671 l 1
 78 -92 l 1
EndSplineSet
EndChar

StartChar: zero
Encoding: 16 48 19
Width: 586
GlyphClass: 1
Flags: W
LayerCount: 2
Fore
SplineSet
405 334 m 0
 405 355 405 355 404.5 385 c 128
 404 415 404 415 401 447 c 128
 398 479 398 479 391 510 c 128
 384 541 384 541 371.5 566 c 128
 359 591 359 591 340.5 606 c 128
 322 621 322 621 296 621 c 256
 270 621 270 621 251.5 606 c 128
 233 591 233 591 221 566 c 128
 209 541 209 541 202 510 c 128
 195 479 195 479 192 447 c 128
 189 415 189 415 188.5 385.5 c 128
 188 356 188 356 188 335 c 256
 188 314 188 314 188.5 284.5 c 128
 189 255 189 255 192 223.5 c 128
 195 192 195 192 202 161 c 128
 209 130 209 130 221 105.5 c 128
 233 81 233 81 251.5 66 c 128
 270 51 270 51 296 51 c 256
 322 51 322 51 340.5 66 c 128
 359 81 359 81 371.5 105.5 c 128
 384 130 384 130 391 161 c 128
 398 192 398 192 401 223.5 c 128
 404 255 404 255 404.5 285 c 128
 405 315 405 315 405 334 c 0
550 336 m 256
 550 266 550 266 535.5 203 c 128
 521 140 521 140 490 93 c 128
 459 46 459 46 410.5 18.5 c 128
 362 -9 362 -9 294 -9 c 0
 227 -9 227 -9 178.5 18.5 c 128
 130 46 130 46 99 93 c 128
 68 140 68 140 53.5 203 c 128
 39 266 39 266 39 336 c 256
 39 406 39 406 53.5 468.5 c 128
 68 531 68 531 99 578.5 c 128
 130 626 130 626 178.5 654 c 128
 227 682 227 682 294 682 c 0
 362 682 362 682 410.5 654 c 128
 459 626 459 626 490 578.5 c 128
 521 531 521 531 535.5 468.5 c 128
 550 406 550 406 550 336 c 256
EndSplineSet
EndChar

StartChar: one
Encoding: 17 49 20
Width: 586
GlyphClass: 1
Flags: W
LayerCount: 2
Fore
SplineSet
115 0 m 1
 115 51 l 1
 200 54 l 2
 208 54 208 54 214.5 59.5 c 128
 221 65 221 65 221 74 c 2
 221 574 l 1
 73 554 l 1
 73 606 l 1
 288 684 l 1
 361 684 l 1
 361 75 l 2
 361 66 361 66 367.5 60.5 c 128
 374 55 374 55 383 55 c 2
 461 52 l 1
 461 1 l 1
 115 0 l 1
EndSplineSet
EndChar

StartChar: two
Encoding: 18 50 21
Width: 586
GlyphClass: 1
Flags: W
LayerCount: 2
Fore
SplineSet
42 0 m 1
 42 83 l 1
 62 99 62 99 94 122.5 c 128
 126 146 126 146 162.5 175.5 c 128
 199 205 199 205 236 239.5 c 128
 273 274 273 274 303 312.5 c 128
 333 351 333 351 352 392.5 c 128
 371 434 371 434 371 477 c 0
 371 506 371 506 362.5 531.5 c 128
 354 557 354 557 338 575.5 c 128
 322 594 322 594 299.5 604.5 c 128
 277 615 277 615 249 615 c 0
 239 615 239 615 232 614 c 128
 225 613 225 613 219 611.5 c 128
 213 610 213 610 207 608 c 128
 201 606 201 606 193 604 c 1
 193 470 l 1
 183 465 183 465 172 461 c 0
 163 458 163 458 151.5 455.5 c 128
 140 453 140 453 128 453 c 0
 92 453 92 453 73 473 c 128
 54 493 54 493 54 526 c 0
 54 557 54 557 65.5 581 c 128
 77 605 77 605 97 622.5 c 128
 117 640 117 640 142.5 651.5 c 128
 168 663 168 663 195 670 c 128
 222 677 222 677 248.5 680 c 128
 275 683 275 683 296 683 c 0
 343 683 343 683 384.5 669 c 128
 426 655 426 655 456.5 629.5 c 128
 487 604 487 604 504.5 567.5 c 128
 522 531 522 531 522 487 c 0
 522 434 522 434 496 386.5 c 128
 470 339 470 339 424 293.5 c 128
 378 248 378 248 315 203 c 128
 252 158 252 158 178 110 c 1
 462 110 l 1
 481 197 l 1
 544 197 l 1
 544 2 l 1
 42 0 l 1
EndSplineSet
EndChar

StartChar: three
Encoding: 19 51 22
Width: 586
GlyphClass: 1
Flags: W
LayerCount: 2
Fore
SplineSet
542 191 m 1
 542 159 542 159 531.5 131.5 c 128
 521 104 521 104 501.5 81 c 128
 482 58 482 58 455 40 c 128
 428 22 428 22 396.5 10 c 128
 365 -2 365 -2 329.5 -8 c 128
 294 -14 294 -14 257 -14 c 0
 209 -14 209 -14 170 -3 c 128
 131 8 131 8 103.5 26.5 c 128
 76 45 76 45 61.5 68.5 c 128
 47 92 47 92 47 116 c 0
 47 136 47 136 54 149 c 128
 61 162 61 162 71.5 169.5 c 128
 82 177 82 177 95 179.5 c 128
 108 182 108 182 119 182 c 0
 132 182 132 182 142.5 179.5 c 128
 153 177 153 177 161 174 c 1
 192 62 l 1
 208 58 208 58 226 52 c 128
 244 46 244 46 264 46 c 0
 289 46 289 46 312.5 56.5 c 128
 336 67 336 67 354 85.5 c 128
 372 104 372 104 382.5 129.5 c 128
 393 155 393 155 393 184 c 0
 393 207 393 207 384.5 229 c 128
 376 251 376 251 358.5 267.5 c 128
 341 284 341 284 315 294 c 128
 289 304 289 304 254 304 c 0
 243 304 243 304 231 303.5 c 128
 219 303 219 303 209 303 c 0
 197 302 197 302 186 302 c 1
 186 376 l 1
 194 376 194 376 200 376 c 2
 213 376 l 2
 241 376 241 376 269 381.5 c 128
 297 387 297 387 319.5 401 c 128
 342 415 342 415 356 438.5 c 128
 370 462 370 462 370 498 c 0
 370 521 370 521 360.5 542.5 c 128
 351 564 351 564 334 580.5 c 128
 317 597 317 597 294 606.5 c 128
 271 616 271 616 244 616 c 0
 237 616 237 616 228 614.5 c 128
 219 613 219 613 211 611 c 0
 202 609 202 609 192 606 c 1
 192 483 l 1
 179 475 179 475 165 473 c 128
 151 471 151 471 140 471 c 0
 125 471 125 471 111 475 c 128
 97 479 97 479 86.5 487.5 c 128
 76 496 76 496 70 509 c 128
 64 522 64 522 64 540 c 0
 64 571 64 571 82.5 597 c 128
 101 623 101 623 132.5 642 c 128
 164 661 164 661 205.5 671.5 c 128
 247 682 247 682 294 682 c 0
 335 682 335 682 375.5 671.5 c 128
 416 661 416 661 448 639.5 c 128
 480 618 480 618 500 585.5 c 128
 520 553 520 553 520 509 c 0
 520 478 520 478 509.5 454.5 c 128
 499 431 499 431 482.5 414 c 128
 466 397 466 397 446 386 c 128
 426 375 426 375 407.5 368 c 128
 389 361 389 361 374 358 c 0
 361 356 361 356 355 356 c 1
 361 356 361 356 376 356 c 0
 393 355 393 355 414.5 349.5 c 128
 436 344 436 344 459 333.5 c 128
 482 323 482 323 501.5 305 c 128
 521 287 521 287 533 261 c 128
 545 235 545 235 542 191 c 1
EndSplineSet
EndChar

StartChar: four
Encoding: 20 52 23
Width: 586
GlyphClass: 1
Flags: W
LayerCount: 2
Fore
SplineSet
342 532 m 1
 133 269 l 1
 342 269 l 1
 342 532 l 1
469 188 m 1
 469 -16 l 1
 342 -16 l 1
 342 187 l 1
 36 187 l 1
 36 272 l 1
 361 686 l 1
 469 686 l 1
 469 269 l 1
 550 269 l 1
 550 188 l 1
 469 188 l 1
EndSplineSet
EndChar

StartChar: five
Encoding: 21 53 24
Width: 586
GlyphClass: 1
Flags: W
LayerCount: 2
Fore
SplineSet
546 227 m 1
 546 171 546 171 521 126.5 c 128
 496 82 496 82 454.5 51 c 128
 413 20 413 20 359.5 3.5 c 128
 306 -13 306 -13 249 -13 c 0
 211 -13 211 -13 174 -5 c 128
 137 3 137 3 108 19.5 c 128
 79 36 79 36 61 60.5 c 128
 43 85 43 85 43 117 c 0
 43 128 43 128 47.5 139 c 128
 52 150 52 150 61 159.5 c 128
 70 169 70 169 83.5 174.5 c 128
 97 180 97 180 115 180 c 0
 124 180 124 180 134.5 178 c 128
 145 176 145 176 158 172 c 1
 189 53 l 1
 201 52 201 52 211 51 c 0
 219 50 219 50 227.5 49 c 128
 236 48 236 48 239 48 c 0
 282 48 282 48 312.5 64.5 c 128
 343 81 343 81 362 104.5 c 128
 381 128 381 128 389.5 153 c 128
 398 178 398 178 398 195 c 0
 398 228 398 228 384.5 254.5 c 128
 371 281 371 281 347 299.5 c 128
 323 318 323 318 291 328 c 128
 259 338 259 338 223 338 c 0
 198 338 198 338 172.5 335.5 c 128
 147 333 147 333 126 331 c 0
 102 328 102 328 80 324 c 1
 80 674 l 1
 509 674 l 1
 509 564 l 1
 165 564 l 1
 165 403 l 1
 185 409 185 409 207 414 c 0
 226 418 226 418 250 421.5 c 128
 274 425 274 425 299 425 c 0
 352 425 352 425 396.5 411 c 128
 441 397 441 397 473.5 371.5 c 128
 506 346 506 346 524 310.5 c 128
 542 275 542 275 546 227 c 1
EndSplineSet
EndChar

StartChar: six
Encoding: 22 54 25
Width: 586
GlyphClass: 1
Flags: W
LayerCount: 2
Fore
SplineSet
409 210 m 1
 409 242 409 242 401.5 269 c 128
 394 296 394 296 378 315.5 c 128
 362 335 362 335 337.5 345.5 c 128
 313 356 313 356 280 356 c 0
 259 356 259 356 241.5 353 c 128
 224 350 224 350 212 347 c 0
 197 343 197 343 186 338 c 1
 185 321 185 321 185 306 c 128
 185 291 185 291 185 280 c 0
 185 267 185 267 185 256 c 0
 185 222 185 222 191.5 186 c 128
 198 150 198 150 213 120.5 c 128
 228 91 228 91 251 72 c 128
 274 53 274 53 307 53 c 0
 333 53 333 53 352.5 66 c 128
 372 79 372 79 385 101 c 128
 398 123 398 123 404.5 152 c 128
 411 181 411 181 409 210 c 1
553 243 m 1
 553 185 553 185 533.5 137.5 c 128
 514 90 514 90 480 56.5 c 128
 446 23 446 23 401 5 c 128
 356 -13 356 -13 306 -13 c 0
 244 -13 244 -13 194.5 7 c 128
 145 27 145 27 111 66 c 128
 77 105 77 105 59 162 c 128
 41 219 41 219 41 293 c 0
 41 391 41 391 72 465.5 c 128
 103 540 103 540 159.5 589.5 c 128
 216 639 216 639 295 663.5 c 128
 374 688 374 688 470 688 c 1
 470 610 l 1
 427 614 l 1
 373 611 373 611 332 595 c 128
 291 579 291 579 262.5 551 c 128
 234 523 234 523 216.5 484 c 128
 199 445 199 445 192 397 c 1
 212 410 212 410 236 421 c 0
 256 430 256 430 284 437.5 c 128
 312 445 312 445 344 445 c 0
 396 445 396 445 435 427 c 128
 474 409 474 409 500 380 c 128
 526 351 526 351 539 315 c 128
 552 279 552 279 553 243 c 1
EndSplineSet
EndChar

StartChar: seven
Encoding: 23 55 26
Width: 586
GlyphClass: 1
Flags: W
LayerCount: 2
Fore
SplineSet
212 14 m 1
 212 -16 l 1
 85 -16 l 1
 411 550 l 1
 122 550 l 1
 107 458 l 1
 38 458 l 1
 38 670 l 1
 550 670 l 1
 550 600 l 1
 212 14 l 1
EndSplineSet
EndChar

StartChar: eight
Encoding: 24 56 27
Width: 586
GlyphClass: 1
Flags: W
LayerCount: 2
Fore
SplineSet
415 148 m 256
 415 172 415 172 405 191.5 c 128
 395 211 395 211 379 226 c 128
 363 241 363 241 342.5 253 c 128
 322 265 322 265 301 274.5 c 128
 280 284 280 284 260 292 c 128
 240 300 240 300 225 307 c 1
 221 302 221 302 211.5 292 c 128
 202 282 202 282 192.5 267.5 c 128
 183 253 183 253 176 233.5 c 128
 169 214 169 214 169 190 c 0
 169 161 169 161 179 135 c 128
 189 109 189 109 206.5 90 c 128
 224 71 224 71 247.5 60 c 128
 271 49 271 49 297 49 c 0
 320 49 320 49 341 55.5 c 128
 362 62 362 62 378.5 74.5 c 128
 395 87 395 87 405 105.5 c 128
 415 124 415 124 415 148 c 256
402 502 m 0
 402 525 402 525 394.5 546.5 c 128
 387 568 387 568 373.5 584.5 c 128
 360 601 360 601 340.5 611 c 128
 321 621 321 621 298 621 c 0
 278 621 278 621 261 613.5 c 128
 244 606 244 606 231.5 593.5 c 128
 219 581 219 581 211.5 563.5 c 128
 204 546 204 546 204 526 c 0
 204 497 204 497 217 475.5 c 128
 230 454 230 454 251.5 437 c 128
 273 420 273 420 300 407 c 128
 327 394 327 394 355 382 c 1
 362 389 362 389 370.5 400.5 c 128
 379 412 379 412 386 427 c 128
 393 442 393 442 397.5 461 c 128
 402 480 402 480 402 502 c 0
550 184 m 1
 550 133 550 133 528 95.5 c 128
 506 58 506 58 469.5 33.5 c 128
 433 9 433 9 385.5 -3 c 128
 338 -15 338 -15 288 -15 c 0
 234 -15 234 -15 188 -0.5 c 128
 142 14 142 14 109 40 c 128
 76 66 76 66 57.5 102 c 128
 39 138 39 138 39 180 c 0
 39 220 39 220 53.5 246.5 c 128
 68 273 68 273 89 290 c 128
 110 307 110 307 134 316.5 c 128
 158 326 158 326 176 331 c 1
 161 336 161 336 142 348 c 128
 123 360 123 360 106 378.5 c 128
 89 397 89 397 77.5 422 c 128
 66 447 66 447 66 478 c 0
 66 534 66 534 87.5 572.5 c 128
 109 611 109 611 144 634.5 c 128
 179 658 179 658 222.5 668 c 128
 266 678 266 678 309 678 c 0
 348 678 348 678 386.5 667.5 c 128
 425 657 425 657 455.5 635.5 c 128
 486 614 486 614 505 581.5 c 128
 524 549 524 549 524 505 c 0
 524 470 524 470 512 445 c 128
 500 420 500 420 481.5 402.5 c 128
 463 385 463 385 441.5 373.5 c 128
 420 362 420 362 401 354 c 1
 407 352 407 352 420.5 347.5 c 128
 434 343 434 343 450.5 334.5 c 128
 467 326 467 326 484 313.5 c 128
 501 301 501 301 515 283 c 128
 529 265 529 265 538 240.5 c 128
 547 216 547 216 550 184 c 1
EndSplineSet
EndChar

StartChar: nine
Encoding: 25 57 28
Width: 586
GlyphClass: 1
Flags: W
LayerCount: 2
Fore
SplineSet
408 416 m 1
 408 451 408 451 401 487.5 c 128
 394 524 394 524 379 553.5 c 128
 364 583 364 583 341 601.5 c 128
 318 620 318 620 286 620 c 0
 260 620 260 620 240.5 607 c 128
 221 594 221 594 208.5 571.5 c 128
 196 549 196 549 189.5 519.5 c 128
 183 490 183 490 183 459 c 0
 183 426 183 426 190.5 399 c 128
 198 372 198 372 214 352.5 c 128
 230 333 230 333 254.5 322.5 c 128
 279 312 279 312 312 312 c 0
 332 312 332 312 350 315 c 128
 368 318 368 318 380 321 c 0
 395 325 395 325 407 330 c 1
 407 346 407 346 407 361 c 128
 407 376 407 376 407 387 c 0
 407 400 407 400 408 416 c 1
550 375 m 0
 550 277 550 277 519 203 c 128
 488 129 488 129 431.5 79.5 c 128
 375 30 375 30 296 5.5 c 128
 217 -19 217 -19 121 -19 c 1
 121 59 l 1
 164 55 l 1
 218 58 218 58 258.5 74.5 c 128
 299 91 299 91 327.5 118.5 c 128
 356 146 356 146 373 184.5 c 128
 390 223 390 223 397 271 c 1
 377 257 377 257 353 247 c 0
 333 238 333 238 305.5 230.5 c 128
 278 223 278 223 246 223 c 0
 194 223 194 223 154.5 241 c 128
 115 259 115 259 89 288 c 128
 63 317 63 317 50.5 353 c 128
 38 389 38 389 38 424 c 0
 38 482 38 482 57.5 529.5 c 128
 77 577 77 577 111 610.5 c 128
 145 644 145 644 190 662.5 c 128
 235 681 235 681 285 681 c 0
 347 681 347 681 396.5 661 c 128
 446 641 446 641 480 602 c 128
 514 563 514 563 532 506 c 128
 550 449 550 449 550 375 c 0
EndSplineSet
EndChar

StartChar: colon
Encoding: 26 58 29
Width: 317
GlyphClass: 1
Flags: W
LayerCount: 2
Fore
SplineSet
229 416 m 256
 229 399 229 399 223 384 c 128
 217 369 217 369 206 358 c 128
 195 347 195 347 180 341 c 128
 165 335 165 335 148 335 c 256
 131 335 131 335 116 341 c 128
 101 347 101 347 90 358 c 128
 79 369 79 369 72.5 384 c 128
 66 399 66 399 66 416 c 256
 66 433 66 433 72.5 448 c 128
 79 463 79 463 90 474 c 128
 101 485 101 485 116 491.5 c 128
 131 498 131 498 148 498 c 256
 165 498 165 498 180 491.5 c 128
 195 485 195 485 206 474 c 128
 217 463 217 463 223 448 c 128
 229 433 229 433 229 416 c 256
229 71 m 256
 229 54 229 54 223 39 c 128
 217 24 217 24 206 13 c 128
 195 2 195 2 180 -4.5 c 128
 165 -11 165 -11 148 -11 c 256
 131 -11 131 -11 116 -4.5 c 128
 101 2 101 2 90 13 c 128
 79 24 79 24 72.5 39 c 128
 66 54 66 54 66 71 c 256
 66 88 66 88 72.5 103 c 128
 79 118 79 118 90 129 c 128
 101 140 101 140 116 146.5 c 128
 131 153 131 153 148 153 c 256
 165 153 165 153 180 146.5 c 128
 195 140 195 140 206 129 c 128
 217 118 217 118 223 103 c 128
 229 88 229 88 229 71 c 256
EndSplineSet
EndChar

StartChar: semicolon
Encoding: 27 59 30
Width: 317
GlyphClass: 1
Flags: W
LayerCount: 2
Fore
SplineSet
229 416 m 256
 229 399 229 399 223 384 c 128
 217 369 217 369 206 358 c 128
 195 347 195 347 180 341 c 128
 165 335 165 335 148 335 c 256
 131 335 131 335 116 341 c 128
 101 347 101 347 90 358 c 128
 79 369 79 369 72.5 384 c 128
 66 399 66 399 66 416 c 256
 66 433 66 433 72.5 448 c 128
 79 463 79 463 90 474 c 128
 101 485 101 485 116 491.5 c 128
 131 498 131 498 148 498 c 256
 165 498 165 498 180 491.5 c 128
 195 485 195 485 206 474 c 128
 217 463 217 463 223 448 c 128
 229 433 229 433 229 416 c 256
241 59 m 1
 241 28 241 28 232.5 -0.5 c 128
 224 -29 224 -29 209.5 -54.5 c 128
 195 -80 195 -80 175 -101 c 128
 155 -122 155 -122 132.5 -137.5 c 128
 110 -153 110 -153 85.5 -162.5 c 128
 61 -172 61 -172 38 -173 c 1
 38 -125 l 1
 57 -123 57 -123 78.5 -115 c 128
 100 -107 100 -107 118 -91.5 c 128
 136 -76 136 -76 147 -52 c 128
 158 -28 158 -28 157 7 c 1
 97 7 l 1
 88 14 88 14 82.5 22 c 128
 77 30 77 30 73.5 38 c 128
 70 46 70 46 69 54 c 128
 68 62 68 62 68 69 c 0
 68 88 68 88 75 103 c 128
 82 118 82 118 93.5 128.5 c 128
 105 139 105 139 120 145 c 128
 135 151 135 151 151 151 c 0
 196 151 196 151 220.5 125.5 c 128
 245 100 245 100 241 59 c 1
EndSplineSet
EndChar

StartChar: less
Encoding: 28 60 31
Width: 1000
GlyphClass: 1
Flags: W
LayerCount: 2
Fore
SplineSet
200 269 m 1
 200 331 l 1
 799 560 l 1
 799 498 l 1
 264 299 l 1
 799 101 l 1
 799 39 l 1
 200 269 l 1
EndSplineSet
EndChar

StartChar: equal
Encoding: 29 61 32
Width: 1000
GlyphClass: 1
Flags: W
LayerCount: 2
Fore
SplineSet
200 178 m 1
 200 240 l 1
 799 240 l 1
 799 178 l 1
 200 178 l 1
200 359 m 1
 200 421 l 1
 799 421 l 1
 799 359 l 1
 200 359 l 1
EndSplineSet
EndChar

StartChar: greater
Encoding: 30 62 33
Width: 1000
GlyphClass: 1
Flags: W
LayerCount: 2
Fore
SplineSet
200 39 m 1
 200 101 l 1
 735 299 l 1
 200 498 l 1
 200 560 l 1
 799 331 l 1
 799 269 l 1
 200 39 l 1
EndSplineSet
EndChar

StartChar: question
Encoding: 31 63 34
Width: 521
GlyphClass: 1
Flags: W
LayerCount: 2
Fore
SplineSet
289 64 m 0
 289 48 289 48 282.5 34 c 128
 276 20 276 20 265 10 c 128
 254 0 254 0 239.5 -5.5 c 128
 225 -11 225 -11 209 -11 c 256
 193 -11 193 -11 179.5 -4.5 c 128
 166 2 166 2 156 13 c 128
 146 24 146 24 140.5 38.5 c 128
 135 53 135 53 135 69 c 256
 135 85 135 85 141 99 c 128
 147 113 147 113 157 123.5 c 128
 167 134 167 134 181 140 c 128
 195 146 195 146 211 146 c 0
 229 146 229 146 243.5 139.5 c 128
 258 133 258 133 268.5 122 c 128
 279 111 279 111 284.5 96 c 128
 290 81 290 81 289 64 c 0
458 496 m 1
 458 465 458 465 449 439 c 128
 440 413 440 413 425 392 c 128
 410 371 410 371 391 355 c 128
 372 339 372 339 352 327 c 0
 305 299 305 299 245 285 c 1
 245 201 l 1
 177 201 l 1
 177 333 l 1
 217 343 217 343 248 364 c 0
 261 373 261 373 273.5 385.5 c 128
 286 398 286 398 296 414.5 c 128
 306 431 306 431 312 451.5 c 128
 318 472 318 472 318 497 c 0
 318 525 318 525 310 548 c 128
 302 571 302 571 286 587.5 c 128
 270 604 270 604 245.5 613 c 128
 221 622 221 622 189 622 c 1
 145 502 l 1
 145 502 145 502 144 502 c 256
 143 502 143 502 141 502 c 128
 139 502 139 502 136 502 c 0
 127 502 127 502 112.5 503 c 128
 98 504 98 504 84.5 510 c 128
 71 516 71 516 61.5 528.5 c 128
 52 541 52 541 52 564 c 0
 52 596 52 596 69.5 618.5 c 128
 87 641 87 641 114 655 c 128
 141 669 141 669 174 675 c 128
 207 681 207 681 237 681 c 0
 285 681 285 681 326.5 668 c 128
 368 655 368 655 398.5 630.5 c 128
 429 606 429 606 446 571 c 128
 463 536 463 536 458 496 c 1
EndSplineSet
EndChar

StartChar: at
Encoding: 32 64 35
Width: 936
GlyphClass: 1
Flags: W
LayerCount: 2
Fore
SplineSet
877 368 m 1
 877 319 877 319 866.5 276.5 c 128
 856 234 856 234 837.5 199 c 128
 819 164 819 164 794 136.5 c 128
 769 109 769 109 740.5 90.5 c 128
 712 72 712 72 681.5 62.5 c 128
 651 53 651 53 622 53 c 0
 600 53 600 53 585 58.5 c 128
 570 64 570 64 560 73.5 c 128
 550 83 550 83 545 95.5 c 128
 540 108 540 108 539 122 c 1
 524 109 524 109 508 97 c 128
 492 85 492 85 475 75.5 c 128
 458 66 458 66 440 60.5 c 128
 422 55 422 55 403 55 c 0
 369 55 369 55 343.5 67 c 128
 318 79 318 79 300.5 101 c 128
 283 123 283 123 274 153 c 128
 265 183 265 183 265 219 c 0
 265 275 265 275 285.5 324.5 c 128
 306 374 306 374 341.5 411 c 128
 377 448 377 448 425 469.5 c 128
 473 491 473 491 527 491 c 0
 538 491 538 491 549.5 488.5 c 128
 561 486 561 486 572.5 481.5 c 128
 584 477 584 477 594.5 472 c 128
 605 467 605 467 614 463 c 1
 627 487 l 1
 710 487 l 1
 706 469 l 2
 703 455 703 455 698 434 c 128
 693 413 693 413 687 387 c 128
 681 361 681 361 675 335 c 0
 661 273 661 273 643 195 c 0
 640 179 640 179 638.5 165.5 c 128
 637 152 637 152 638.5 142.5 c 128
 640 133 640 133 646.5 128 c 128
 653 123 653 123 666 123 c 0
 675 123 675 123 689 130.5 c 128
 703 138 703 138 718 152.5 c 128
 733 167 733 167 748 188.5 c 128
 763 210 763 210 774.5 238 c 128
 786 266 786 266 793.5 300 c 128
 801 334 801 334 801 374 c 0
 801 421 801 421 790 459 c 128
 779 497 779 497 760 526.5 c 128
 741 556 741 556 715 577.5 c 128
 689 599 689 599 660 613 c 128
 631 627 631 627 599.5 633.5 c 128
 568 640 568 640 538 640 c 0
 486 640 486 640 438 627.5 c 128
 390 615 390 615 348.5 591.5 c 128
 307 568 307 568 273 534 c 128
 239 500 239 500 215 457.5 c 128
 191 415 191 415 178 365 c 128
 165 315 165 315 165 259 c 0
 165 182 165 182 188.5 117.5 c 128
 212 53 212 53 255.5 6 c 128
 299 -41 299 -41 361 -67 c 128
 423 -93 423 -93 499 -93 c 0
 538 -93 538 -93 573.5 -86.5 c 128
 609 -80 609 -80 642 -69 c 128
 675 -58 675 -58 706.5 -43 c 128
 738 -28 738 -28 769 -11 c 1
 789 -60 l 1
 756 -77 756 -77 720 -93 c 128
 684 -109 684 -109 645 -121 c 128
 606 -133 606 -133 563 -140.5 c 128
 520 -148 520 -148 473 -148 c 0
 415 -148 415 -148 362 -136 c 128
 309 -124 309 -124 263.5 -100.5 c 128
 218 -77 218 -77 181 -43 c 128
 144 -9 144 -9 118 34.5 c 128
 92 78 92 78 78 130 c 128
 64 182 64 182 64 241 c 0
 64 313 64 313 81.5 375 c 128
 99 437 99 437 130 487 c 128
 161 537 161 537 204 575 c 128
 247 613 247 613 298.5 638.5 c 128
 350 664 350 664 407.5 677 c 128
 465 690 465 690 525 690 c 0
 606 690 606 690 671.5 669 c 128
 737 648 737 648 783 607.5 c 128
 829 567 829 567 854 508 c 128
 879 449 879 449 877 368 c 1
571 394 m 2
 572 399 572 399 570 408 c 128
 568 417 568 417 563 425 c 128
 558 433 558 433 549 439 c 128
 540 445 540 445 528 445 c 0
 498 445 498 445 471.5 429 c 128
 445 413 445 413 425 384.5 c 128
 405 356 405 356 393.5 316.5 c 128
 382 277 382 277 382 231 c 0
 382 203 382 203 387.5 183.5 c 128
 393 164 393 164 402 152 c 128
 411 140 411 140 422 134.5 c 128
 433 129 433 129 444 129 c 0
 460 129 460 129 472.5 135 c 128
 485 141 485 141 495 150 c 128
 505 159 505 159 513.5 169.5 c 128
 522 180 522 180 529 188 c 1
 571 394 l 2
EndSplineSet
EndChar

StartChar: A
Encoding: 33 65 36
Width: 686
GlyphClass: 1
Flags: W
LayerCount: 2
Fore
SplineSet
308 533 m 1
 225 293 l 1
 394 293 l 1
 308 533 l 1
404 1 m 1
 404 51 l 1
 463 58 l 2
 467 58 467 58 470 63 c 128
 473 68 473 68 471 73 c 2
 417 231 l 1
 204 231 l 1
 149 77 l 2
 147 70 147 70 152.5 64 c 128
 158 58 158 58 163 58 c 2
 219 51 l 1
 219 1 l 1
 4 1 l 1
 4 51 l 1
 60 59 l 1
 284 686 l 1
 397 686 l 1
 619 77 l 2
 622 68 622 68 625.5 64.5 c 128
 629 61 629 61 639 59 c 2
 677 52 l 1
 677 2 l 1
 404 1 l 1
EndSplineSet
EndChar

StartChar: B
Encoding: 34 66 37
Width: 639
GlyphClass: 1
Flags: W
LayerCount: 2
Fore
SplineSet
602 194 m 0
 602 148 602 148 592 116 c 128
 582 84 582 84 565 62.5 c 128
 548 41 548 41 525 29 c 128
 502 17 502 17 476.5 11 c 128
 451 5 451 5 424.5 4 c 128
 398 3 398 3 374 3 c 2
 31 3 l 1
 31 53 l 1
 85 58 l 2
 94 58 94 58 100 63.5 c 128
 106 69 106 69 106 78 c 2
 106 592 l 2
 106 601 106 601 100 606.5 c 128
 94 612 94 612 85 612 c 2
 31 616 l 1
 31 666 l 1
 353 666 l 2
 371 666 371 666 393.5 664.5 c 128
 416 663 416 663 439.5 657.5 c 128
 463 652 463 652 485 642 c 128
 507 632 507 632 524.5 615 c 128
 542 598 542 598 552.5 573 c 128
 563 548 563 548 563 514 c 0
 563 484 563 484 555 461.5 c 128
 547 439 547 439 534 422 c 128
 521 405 521 405 505 393.5 c 128
 489 382 489 382 473.5 374.5 c 128
 458 367 458 367 444.5 363 c 128
 431 359 431 359 424 358 c 1
 442 358 442 358 462.5 355.5 c 128
 483 353 483 353 503 346 c 128
 523 339 523 339 541 327.5 c 128
 559 316 559 316 572.5 298.5 c 128
 586 281 586 281 594 256.5 c 128
 602 232 602 232 602 194 c 0
453 192 m 1
 453 256 453 256 416 287 c 128
 379 318 379 318 298 318 c 2
 280 318 l 2
 270 318 270 318 250 318 c 1
 250 64 l 1
 261 64 261 64 270 64 c 0
 278 64 278 64 285.5 64 c 128
 293 64 293 64 295 64 c 0
 333 64 333 64 362.5 70.5 c 128
 392 77 392 77 412 92.5 c 128
 432 108 432 108 442 132.5 c 128
 452 157 452 157 453 192 c 1
416 505 m 1
 416 526 416 526 411.5 546.5 c 128
 407 567 407 567 393.5 583 c 128
 380 599 380 599 355 608.5 c 128
 330 618 330 618 290 618 c 2
 286 618 l 2
 285 618 285 618 281.5 618 c 128
 278 618 278 618 271 618 c 128
 264 618 264 618 251 618 c 1
 251 381 l 1
 256 381 256 381 261 381 c 0
 265 381 265 381 268 381 c 2
 273 381 l 2
 315 381 315 381 342.5 390.5 c 128
 370 400 370 400 386 416.5 c 128
 402 433 402 433 408 456 c 128
 414 479 414 479 416 505 c 1
EndSplineSet
EndChar

StartChar: C
Encoding: 35 67 38
Width: 636
GlyphClass: 1
Flags: W
LayerCount: 2
Fore
SplineSet
600 23 m 1
 591 20 591 20 571.5 13.5 c 128
 552 7 552 7 524.5 0.5 c 128
 497 -6 497 -6 463 -10.5 c 128
 429 -15 429 -15 391 -15 c 0
 340 -15 340 -15 294.5 -3.5 c 128
 249 8 249 8 210 29.5 c 128
 171 51 171 51 140 82 c 128
 109 113 109 113 87.5 152 c 128
 66 191 66 191 54.5 237 c 128
 43 283 43 283 43 334 c 0
 43 412 43 412 70 476 c 128
 97 540 97 540 144 586 c 128
 191 632 191 632 255 657.5 c 128
 319 683 319 683 393 683 c 0
 421 683 421 683 444 681 c 128
 467 679 467 679 490.5 674 c 128
 514 669 514 669 540.5 661.5 c 128
 567 654 567 654 602 643 c 1
 602 474 l 1
 524 474 l 1
 503 585 l 2
 503 587 503 587 499.5 592.5 c 128
 496 598 496 598 491 600 c 0
 488 601 488 601 480 603.5 c 128
 472 606 472 606 462 608 c 128
 452 610 452 610 441.5 611.5 c 128
 431 613 431 613 422 613 c 0
 371 613 371 613 330 593 c 128
 289 573 289 573 260.5 536 c 128
 232 499 232 499 217 447 c 128
 202 395 202 395 202 331 c 0
 202 296 202 296 207 261.5 c 128
 212 227 212 227 223 195.5 c 128
 234 164 234 164 252 137 c 128
 270 110 270 110 295 90 c 128
 320 70 320 70 353 59 c 128
 386 48 386 48 427 48 c 0
 445 48 445 48 460.5 52.5 c 128
 476 57 476 57 484 60 c 0
 487 61 487 61 492.5 67.5 c 128
 498 74 498 74 499 78 c 2
 520 196 l 1
 599 196 l 1
 600 23 l 1
EndSplineSet
EndChar

StartChar: D
Encoding: 36 68 39
Width: 724
GlyphClass: 1
Flags: W
LayerCount: 2
Fore
SplineSet
525 332 m 1
 525 389 525 389 516.5 432 c 128
 508 475 508 475 493 506 c 128
 478 537 478 537 457.5 557.5 c 128
 437 578 437 578 413.5 589.5 c 128
 390 601 390 601 364.5 605.5 c 128
 339 610 339 610 314 610 c 2
 252 610 l 1
 252 57 l 1
 335 58 l 2
 356 58 356 58 378.5 63 c 128
 401 68 401 68 422.5 80 c 128
 444 92 444 92 463 112 c 128
 482 132 482 132 496.5 162 c 128
 511 192 511 192 519.5 232.5 c 128
 528 273 528 273 525 332 c 1
689 336 m 0
 689 251 689 251 664.5 187 c 128
 640 123 640 123 594.5 80.5 c 128
 549 38 549 38 485 17 c 128
 421 -4 421 -4 342 -4 c 2
 30 -4 l 1
 30 46 l 1
 85 51 l 2
 93 51 93 51 100 56.5 c 128
 107 62 107 62 107 71 c 2
 107 585 l 2
 107 594 107 594 100 599.5 c 128
 93 605 93 605 85 605 c 2
 30 609 l 1
 30 659 l 1
 336 659 l 2
 421 659 421 659 487 635.5 c 128
 553 612 553 612 598 569 c 128
 643 526 643 526 666 466 c 128
 689 406 689 406 689 336 c 0
EndSplineSet
EndChar

StartChar: E
Encoding: 37 69 40
Width: 598
GlyphClass: 1
Flags: W
LayerCount: 2
Fore
SplineSet
25 0 m 1
 25 50 l 1
 80 55 l 2
 88 55 88 55 95 60.5 c 128
 102 66 102 66 102 75 c 2
 102 589 l 2
 102 598 102 598 95 603.5 c 128
 88 609 88 609 80 609 c 2
 25 613 l 1
 25 663 l 1
 535 663 l 1
 535 504 l 1
 463 504 l 1
 448 587 l 2
 447 594 447 594 442.5 599.5 c 128
 438 605 438 605 432 605 c 2
 246 605 l 1
 246 371 l 1
 364 371 l 2
 370 371 370 371 374.5 377 c 128
 379 383 379 383 379 388 c 2
 388 455 l 1
 450 455 l 1
 450 221 l 1
 388 221 l 1
 379 288 l 2
 379 293 379 293 374.5 299 c 128
 370 305 370 305 364 305 c 2
 246 305 l 1
 246 51 l 1
 463 51 l 2
 469 51 469 51 474 57.5 c 128
 479 64 479 64 479 69 c 2
 494 173 l 1
 566 173 l 1
 566 -10 l 1
 25 0 l 1
EndSplineSet
EndChar

StartChar: F
Encoding: 38 70 41
Width: 559
GlyphClass: 1
Flags: W
LayerCount: 2
Fore
SplineSet
459 500 m 1
 445 590 l 2
 444 597 444 597 439.5 602.5 c 128
 435 608 435 608 429 608 c 2
 248 608 l 1
 248 362 l 1
 372 362 l 2
 378 362 378 362 382.5 368 c 128
 387 374 387 374 387 379 c 2
 396 447 l 1
 458 447 l 1
 458 211 l 1
 396 211 l 1
 387 279 l 2
 387 284 387 284 382 290 c 128
 377 296 377 296 372 296 c 2
 248 296 l 1
 248 75 l 2
 248 66 248 66 254 60.5 c 128
 260 55 260 55 269 55 c 2
 333 50 l 1
 333 0 l 1
 26 0 l 1
 26 50 l 1
 80 55 l 2
 88 55 88 55 95 60.5 c 128
 102 66 102 66 102 75 c 2
 102 589 l 2
 102 598 102 598 95 603.5 c 128
 88 609 88 609 80 609 c 2
 23 613 l 1
 23 663 l 1
 531 663 l 1
 531 493 l 1
 459 500 l 1
EndSplineSet
EndChar

StartChar: G
Encoding: 39 71 42
Width: 715
GlyphClass: 1
Flags: W
LayerCount: 2
Fore
SplineSet
642 275 m 1
 633 275 633 275 626.5 269.5 c 128
 620 264 620 264 620 255 c 2
 620 32 l 1
 591 19 591 19 555 9 c 0
 524 1 524 1 482 -6 c 128
 440 -13 440 -13 390 -13 c 0
 315 -13 315 -13 251.5 12 c 128
 188 37 188 37 141.5 83 c 128
 95 129 95 129 68.5 193.5 c 128
 42 258 42 258 42 338 c 0
 42 419 42 419 68.5 483.5 c 128
 95 548 95 548 142.5 593 c 128
 190 638 190 638 255.5 662 c 128
 321 686 321 686 398 686 c 0
 447 686 447 686 488 680 c 128
 529 674 529 674 559 667 c 0
 594 659 594 659 622 649 c 1
 622 477 l 1
 544 477 l 1
 524 584 l 2
 524 589 524 589 519 595.5 c 128
 514 602 514 602 508 604 c 0
 485 612 485 612 465 616 c 128
 445 620 445 620 437 620 c 0
 394 620 394 620 359.5 609.5 c 128
 325 599 325 599 298.5 580 c 128
 272 561 272 561 253 535 c 128
 234 509 234 509 222 478 c 128
 210 447 210 447 204.5 413 c 128
 199 379 199 379 199 344 c 0
 199 280 199 280 215 228 c 128
 231 176 231 176 262 139.5 c 128
 293 103 293 103 338 83.5 c 128
 383 64 383 64 442 64 c 0
 448 64 448 64 458 63.5 c 128
 468 63 468 63 486 64 c 1
 486 258 l 2
 486 267 486 267 479.5 273 c 128
 473 279 473 279 464 279 c 2
 398 283 l 1
 398 334 l 1
 699 334 l 1
 699 283 l 1
 642 275 l 1
EndSplineSet
EndChar

StartChar: H
Encoding: 40 72 43
Width: 769
GlyphClass: 1
Flags: W
LayerCount: 2
Fore
SplineSet
448 0 m 1
 448 50 l 1
 499 55 l 2
 508 55 508 55 514 60.5 c 128
 520 66 520 66 520 75 c 2
 520 316 l 1
 246 316 l 1
 246 75 l 2
 246 66 246 66 252 60.5 c 128
 258 55 258 55 267 55 c 2
 319 50 l 1
 319 0 l 1
 28 0 l 1
 28 50 l 1
 80 55 l 2
 89 55 89 55 95 60.5 c 128
 101 66 101 66 101 75 c 2
 101 589 l 2
 101 598 101 598 95 603.5 c 128
 89 609 89 609 80 609 c 2
 28 613 l 1
 28 663 l 1
 319 663 l 1
 319 613 l 1
 267 609 l 2
 258 609 258 609 252 603.5 c 128
 246 598 246 598 246 589 c 2
 246 381 l 1
 520 381 l 1
 520 589 l 2
 520 598 520 598 514 603.5 c 128
 508 609 508 609 499 609 c 2
 448 613 l 1
 448 663 l 1
 738 663 l 1
 738 613 l 1
 687 609 l 2
 679 609 679 609 672.5 603.5 c 128
 666 598 666 598 666 589 c 2
 666 75 l 2
 666 66 666 66 672 60.5 c 128
 678 55 678 55 687 55 c 2
 738 50 l 1
 738 0 l 1
 448 0 l 1
EndSplineSet
EndChar

StartChar: I
Encoding: 41 73 44
Width: 358
GlyphClass: 1
Flags: W
LayerCount: 2
Fore
SplineSet
22 0 m 1
 22 50 l 1
 84 55 l 2
 93 55 93 55 99 60.5 c 128
 105 66 105 66 105 75 c 2
 105 589 l 2
 105 598 105 598 99 603.5 c 128
 93 609 93 609 84 609 c 2
 22 613 l 1
 22 663 l 1
 334 663 l 1
 334 613 l 1
 272 609 l 2
 264 609 264 609 257 603.5 c 128
 250 598 250 598 250 589 c 2
 250 75 l 2
 250 66 250 66 257 60.5 c 128
 264 55 264 55 272 55 c 2
 334 50 l 1
 334 0 l 1
 22 0 l 1
EndSplineSet
EndChar

StartChar: J
Encoding: 42 74 45
Width: 512
GlyphClass: 1
Flags: W
LayerCount: 2
Fore
SplineSet
429 615 m 2
 420 615 420 615 414 609.5 c 128
 408 604 408 604 408 595 c 2
 408 245 l 2
 408 187 408 187 394.5 140 c 128
 381 93 381 93 352.5 59 c 128
 324 25 324 25 280 6.5 c 128
 236 -12 236 -12 175 -12 c 0
 155 -12 155 -12 134 -9.5 c 128
 113 -7 113 -7 93.5 -3 c 128
 74 1 74 1 57 5.5 c 128
 40 10 40 10 29 14 c 1
 29 196 l 1
 107 196 l 1
 129 63 l 2
 130 59 130 59 133 56 c 0
 135 53 135 53 139.5 51 c 128
 144 49 144 49 152 49 c 0
 179 49 179 49 200 59 c 128
 221 69 221 69 235.5 92 c 128
 250 115 250 115 257 153.5 c 128
 264 192 264 192 264 248 c 2
 264 595 l 2
 264 604 264 604 257.5 609.5 c 128
 251 615 251 615 243 615 c 2
 181 619 l 1
 181 669 l 1
 490 669 l 1
 490 619 l 1
 429 615 l 2
EndSplineSet
EndChar

StartChar: K
Encoding: 43 75 46
Width: 682
GlyphClass: 1
Flags: W
LayerCount: 2
Fore
SplineSet
464 0 m 1
 464 37 l 1
 301 292 l 1
 247 292 l 1
 247 78 l 2
 247 69 247 69 253 63.5 c 128
 259 58 259 58 268 58 c 2
 320 53 l 1
 320 3 l 1
 28 3 l 1
 28 53 l 1
 81 58 l 2
 90 58 90 58 96 63.5 c 128
 102 69 102 69 102 78 c 2
 102 592 l 2
 102 601 102 601 96 606.5 c 128
 90 612 90 612 81 612 c 2
 28 616 l 1
 28 666 l 1
 320 666 l 1
 320 616 l 1
 268 612 l 2
 259 612 259 612 253 606.5 c 128
 247 601 247 601 247 592 c 2
 247 341 l 1
 274 341 l 1
 489 603 l 2
 491 605 491 605 490 609.5 c 128
 489 614 489 614 484 614 c 2
 428 618 l 1
 428 668 l 1
 657 668 l 1
 657 618 l 1
 647 618 647 618 635 618 c 0
 625 618 625 618 613 617 c 128
 601 616 601 616 589 616 c 1
 403 395 l 1
 612 61 l 1
 683 55 l 1
 683 5 l 1
 464 0 l 1
EndSplineSet
EndChar

StartChar: L
Encoding: 44 76 47
Width: 554
GlyphClass: 1
Flags: W
LayerCount: 2
Fore
SplineSet
26 0 m 1
 26 50 l 1
 81 55 l 2
 90 55 90 55 96 60.5 c 128
 102 66 102 66 102 75 c 2
 102 589 l 2
 102 598 102 598 96 603.5 c 128
 90 609 90 609 81 609 c 2
 26 613 l 1
 26 663 l 1
 324 663 l 1
 324 613 l 1
 268 609 l 2
 259 609 259 609 253 603.5 c 128
 247 598 247 598 247 589 c 2
 247 58 l 1
 420 58 l 2
 425 58 425 58 429 60 c 128
 433 62 433 62 436 65.5 c 128
 439 69 439 69 440.5 72.5 c 128
 442 76 442 76 442 78 c 2
 455 193 l 1
 535 193 l 1
 535 -6 l 1
 26 0 l 1
EndSplineSet
EndChar

StartChar: M
Encoding: 45 77 48
Width: 902
GlyphClass: 1
Flags: W
LayerCount: 2
Fore
SplineSet
583 0 m 1
 583 50 l 1
 631 55 l 2
 639 55 639 55 645.5 60.5 c 128
 652 66 652 66 652 75 c 2
 652 599 l 1
 452 -4 l 1
 375 -4 l 1
 179 595 l 1
 179 75 l 2
 179 66 179 66 185.5 60.5 c 128
 192 55 192 55 200 55 c 2
 253 50 l 1
 253 0 l 1
 23 0 l 1
 23 50 l 1
 79 55 l 2
 87 55 87 55 94 60.5 c 128
 101 66 101 66 101 75 c 2
 101 589 l 2
 101 598 101 598 94 603.5 c 128
 87 609 87 609 79 609 c 2
 23 613 l 1
 23 663 l 1
 310 663 l 1
 310 636 l 1
 451 208 l 1
 590 636 l 1
 590 663 l 1
 874 663 l 1
 874 613 l 1
 817 609 l 2
 809 609 809 609 802.5 603.5 c 128
 796 598 796 598 796 589 c 2
 796 75 l 2
 796 66 796 66 802.5 60.5 c 128
 809 55 809 55 817 55 c 2
 874 50 l 1
 874 0 l 1
 583 0 l 1
EndSplineSet
EndChar

StartChar: N
Encoding: 46 78 49
Width: 744
GlyphClass: 1
Flags: W
LayerCount: 2
Fore
SplineSet
661 615 m 2
 653 615 653 615 646.5 609.5 c 128
 640 604 640 604 640 595 c 2
 640 3 l 1
 518 3 l 1
 182 531 l 1
 182 81 l 2
 182 72 182 72 188.5 66.5 c 128
 195 61 195 61 203 61 c 2
 258 56 l 1
 258 6 l 1
 28 6 l 1
 28 56 l 1
 83 61 l 2
 92 61 92 61 98 66.5 c 128
 104 72 104 72 104 81 c 2
 104 595 l 2
 104 604 104 604 98 609.5 c 128
 92 615 92 615 83 615 c 2
 29 619 l 1
 29 669 l 1
 276 669 l 1
 276 643 l 1
 564 192 l 1
 564 591 l 2
 564 600 564 600 557 605.5 c 128
 550 611 550 611 542 611 c 2
 485 615 l 1
 485 665 l 1
 716 665 l 1
 716 615 l 1
 661 615 l 2
EndSplineSet
EndChar

StartChar: O
Encoding: 47 79 50
Width: 755
GlyphClass: 1
Flags: W
LayerCount: 2
Fore
SplineSet
559 328 m 1
 559 386 559 386 548.5 438.5 c 128
 538 491 538 491 516.5 531 c 128
 495 571 495 571 462.5 594.5 c 128
 430 618 430 618 387 618 c 0
 353 618 353 618 326 606.5 c 128
 299 595 299 595 278.5 575 c 128
 258 555 258 555 243.5 528 c 128
 229 501 229 501 220 470 c 128
 211 439 211 439 207 405.5 c 128
 203 372 203 372 203 339 c 0
 203 304 203 304 207.5 269 c 128
 212 234 212 234 221 202 c 128
 230 170 230 170 244.5 142.5 c 128
 259 115 259 115 278.5 95 c 128
 298 75 298 75 323 63.5 c 128
 348 52 348 52 378 52 c 0
 411 52 411 52 437.5 63.5 c 128
 464 75 464 75 484.5 95.5 c 128
 505 116 505 116 519.5 143 c 128
 534 170 534 170 543.5 201 c 128
 553 232 553 232 557 265 c 128
 561 298 561 298 559 328 c 1
722 334 m 1
 722 263 722 263 698 200 c 128
 674 137 674 137 630 90 c 128
 586 43 586 43 524 15.5 c 128
 462 -12 462 -12 387 -12 c 0
 313 -12 313 -12 249.5 11.5 c 128
 186 35 186 35 140 80 c 128
 94 125 94 125 68 191 c 128
 42 257 42 257 42 341 c 0
 42 414 42 414 64.5 477.5 c 128
 87 541 87 541 130 587 c 128
 173 633 173 633 235.5 659.5 c 128
 298 686 298 686 378 686 c 0
 429 686 429 686 474.5 673.5 c 128
 520 661 520 661 558 638 c 128
 596 615 596 615 626 583 c 128
 656 551 656 551 676.5 511.5 c 128
 697 472 697 472 708 427 c 128
 719 382 719 382 722 334 c 1
EndSplineSet
EndChar

StartChar: P
Encoding: 48 80 51
Width: 611
GlyphClass: 1
Flags: W
LayerCount: 2
Fore
SplineSet
575 467 m 0
 575 425 575 425 565 392.5 c 128
 555 360 555 360 536.5 335.5 c 128
 518 311 518 311 493 294.5 c 128
 468 278 468 278 439 268 c 128
 410 258 410 258 378.5 253.5 c 128
 347 249 347 249 316 249 c 0
 302 249 302 249 286.5 249 c 128
 271 249 271 249 251 251 c 1
 251 82 l 2
 251 73 251 73 257 67.5 c 128
 263 62 263 62 272 62 c 2
 334 57 l 1
 334 7 l 1
 28 7 l 1
 28 57 l 1
 83 62 l 2
 91 62 91 62 98 67.5 c 128
 105 73 105 73 105 82 c 2
 105 596 l 2
 105 605 105 605 98 610.5 c 128
 91 616 91 616 83 616 c 2
 25 620 l 1
 25 670 l 1
 305 670 l 2
 338 670 338 670 371 667.5 c 128
 404 665 404 665 434 657 c 128
 464 649 464 649 489.5 635.5 c 128
 515 622 515 622 534 599.5 c 128
 553 577 553 577 563.5 545 c 128
 574 513 574 513 575 467 c 0
425 465 m 0
 425 500 425 500 416.5 527 c 128
 408 554 408 554 392 572.5 c 128
 376 591 376 591 354 600.5 c 128
 332 610 332 610 305 610 c 2
 249 610 l 1
 249 309 l 1
 254 309 254 309 257.5 309 c 128
 261 309 261 309 263 309 c 2
 274 309 l 2
 308 309 308 309 336 317 c 128
 364 325 364 325 383.5 343.5 c 128
 403 362 403 362 413.5 391.5 c 128
 424 421 424 421 425 465 c 0
EndSplineSet
EndChar

StartChar: Q
Encoding: 49 81 52
Width: 755
GlyphClass: 1
Flags: W
LayerCount: 2
Fore
SplineSet
559 328 m 1
 559 386 559 386 548.5 438.5 c 128
 538 491 538 491 516.5 531 c 128
 495 571 495 571 462.5 594.5 c 128
 430 618 430 618 387 618 c 0
 353 618 353 618 326 606.5 c 128
 299 595 299 595 278.5 575 c 128
 258 555 258 555 243.5 528 c 128
 229 501 229 501 220 470 c 128
 211 439 211 439 207 405.5 c 128
 203 372 203 372 203 339 c 0
 203 304 203 304 207.5 269 c 128
 212 234 212 234 221 202 c 128
 230 170 230 170 244.5 142.5 c 128
 259 115 259 115 278.5 95 c 128
 298 75 298 75 323 63.5 c 128
 348 52 348 52 378 52 c 0
 411 52 411 52 437.5 63.5 c 128
 464 75 464 75 484.5 95.5 c 128
 505 116 505 116 519.5 143 c 128
 534 170 534 170 543.5 201 c 128
 553 232 553 232 557 265 c 128
 561 298 561 298 559 328 c 1
688 -159 m 1
 637 -170 637 -170 595 -175.5 c 128
 553 -181 553 -181 513 -181 c 0
 460 -181 460 -181 422 -169 c 128
 384 -157 384 -157 360.5 -134.5 c 128
 337 -112 337 -112 326 -80 c 128
 315 -48 315 -48 315 -9 c 1
 255 1 255 1 205 29 c 128
 155 57 155 57 119.5 101 c 128
 84 145 84 145 64.5 204.5 c 128
 45 264 45 264 45 338 c 0
 45 411 45 411 67.5 474.5 c 128
 90 538 90 538 133 584 c 128
 176 630 176 630 238.5 656.5 c 128
 301 683 301 683 381 683 c 0
 432 683 432 683 477.5 670.5 c 128
 523 658 523 658 561 635 c 128
 599 612 599 612 629 580 c 128
 659 548 659 548 679.5 508.5 c 128
 700 469 700 469 711 424 c 128
 722 379 722 379 722 331 c 0
 722 269 722 269 703.5 213 c 128
 685 157 685 157 651 112 c 128
 617 67 617 67 568.5 36 c 128
 520 5 520 5 461 -7 c 1
 461 -34 461 -34 471.5 -54.5 c 128
 482 -75 482 -75 500.5 -89 c 128
 519 -103 519 -103 544 -110 c 128
 569 -117 569 -117 596 -117 c 0
 610 -117 610 -117 632 -115 c 128
 654 -113 654 -113 687 -106 c 1
 688 -159 l 1
EndSplineSet
EndChar

StartChar: R
Encoding: 50 82 53
Width: 704
GlyphClass: 1
Flags: W
LayerCount: 2
Fore
SplineSet
704 0 m 1
 671 -3 671 -3 647.5 -9 c 128
 624 -15 624 -15 606 -15 c 0
 558 -15 558 -15 526 -2 c 128
 494 11 494 11 473 32.5 c 128
 452 54 452 54 439 81.5 c 128
 426 109 426 109 416 138 c 128
 406 167 406 167 396 194.5 c 128
 386 222 386 222 370.5 243.5 c 128
 355 265 355 265 332 278 c 128
 309 291 309 291 273 291 c 2
 253 291 l 1
 253 76 l 2
 253 67 253 67 259 61.5 c 128
 265 56 265 56 274 56 c 2
 329 51 l 1
 329 1 l 1
 33 1 l 1
 33 51 l 1
 86 56 l 2
 94 56 94 56 101 61.5 c 128
 108 67 108 67 108 76 c 2
 108 590 l 2
 108 599 108 599 101 604.5 c 128
 94 610 94 610 86 610 c 2
 33 614 l 1
 33 664 l 1
 365 664 l 2
 383 664 383 664 406 662 c 128
 429 660 429 660 453 653.5 c 128
 477 647 477 647 500 635.5 c 128
 523 624 523 624 541 606 c 128
 559 588 559 588 569.5 562 c 128
 580 536 580 536 580 501 c 0
 580 468 580 468 571 443 c 128
 562 418 562 418 547.5 399.5 c 128
 533 381 533 381 514.5 368.5 c 128
 496 356 496 356 476.5 348 c 128
 457 340 457 340 439 336 c 128
 421 332 421 332 408 331 c 1
 440 325 440 325 462.5 313 c 128
 485 301 485 301 500.5 284.5 c 128
 516 268 516 268 526 248.5 c 128
 536 229 536 229 543 208.5 c 128
 550 188 550 188 555.5 167.5 c 128
 561 147 561 147 568 128.5 c 128
 575 110 575 110 585 95 c 128
 595 80 595 80 610.5 70 c 128
 626 60 626 60 648.5 56 c 128
 671 52 671 52 704 55 c 1
 704 0 l 1
429 490 m 1
 429 553 429 553 391 583.5 c 128
 353 614 353 614 280 614 c 0
 277 614 277 614 272 614 c 2
 262 614 l 2
 257 614 257 614 251 614 c 1
 251 359 l 1
 263 359 263 359 271 359 c 128
 279 359 279 359 282 359 c 0
 305 359 305 359 331 363.5 c 128
 357 368 357 368 378.5 382 c 128
 400 396 400 396 414 422 c 128
 428 448 428 448 429 490 c 1
EndSplineSet
EndChar

StartChar: S
Encoding: 51 83 54
Width: 536
GlyphClass: 1
Flags: W
LayerCount: 2
Fore
SplineSet
499 195 m 1
 499 143 499 143 477.5 103.5 c 128
 456 64 456 64 419.5 38 c 128
 383 12 383 12 335 -1 c 128
 287 -14 287 -14 235 -14 c 0
 196 -14 196 -14 161.5 -8.5 c 128
 127 -3 127 -3 101 4 c 0
 70 12 70 12 43 22 c 1
 43 205 l 1
 122 205 l 1
 138 84 l 2
 138 79 138 79 142.5 74.5 c 128
 147 70 147 70 149 70 c 0
 160 66 160 66 172 63 c 0
 183 60 183 60 196.5 58 c 128
 210 56 210 56 224 56 c 0
 245 56 245 56 267.5 61 c 128
 290 66 290 66 308.5 77 c 128
 327 88 327 88 338.5 106 c 128
 350 124 350 124 350 148 c 0
 350 179 350 179 335.5 201.5 c 128
 321 224 321 224 298 242 c 128
 275 260 275 260 245.5 275 c 128
 216 290 216 290 187 306 c 0
 161 320 161 320 136.5 336 c 128
 112 352 112 352 93 372.5 c 128
 74 393 74 393 63 419.5 c 128
 52 446 52 446 52 481 c 0
 52 529 52 529 71.5 566.5 c 128
 91 604 91 604 124 629.5 c 128
 157 655 157 655 200.5 668 c 128
 244 681 244 681 292 681 c 0
 330 681 330 681 364 675 c 128
 398 669 398 669 424 662 c 0
 454 654 454 654 479 643 c 1
 479 479 l 1
 402 479 l 1
 386 585 l 2
 386 586 386 586 384 588 c 128
 382 590 382 590 380 592 c 256
 378 594 378 594 375 596 c 0
 370 600 370 600 362 603 c 0
 355 605 355 605 344 607.5 c 128
 333 610 333 610 317 610 c 0
 293 610 293 610 271 604.5 c 128
 249 599 249 599 232.5 588 c 128
 216 577 216 577 206 560 c 128
 196 543 196 543 196 522 c 0
 196 496 196 496 207 476 c 128
 218 456 218 456 236.5 440 c 128
 255 424 255 424 279 411 c 128
 303 398 303 398 329 385 c 0
 360 370 360 370 391 353 c 128
 422 336 422 336 446.5 314 c 128
 471 292 471 292 486 262.5 c 128
 501 233 501 233 499 195 c 1
EndSplineSet
EndChar

StartChar: T
Encoding: 52 84 55
Width: 608
GlyphClass: 1
Flags: W
LayerCount: 2
Fore
SplineSet
520 487 m 1
 502 598 l 2
 501 609 501 609 489 609 c 2
 378 609 l 1
 378 77 l 2
 378 68 378 68 384.5 62.5 c 128
 391 57 391 57 399 57 c 2
 458 52 l 1
 458 2 l 1
 153 2 l 1
 153 52 l 1
 211 57 l 2
 220 57 220 57 226.5 62.5 c 128
 233 68 233 68 233 77 c 2
 233 609 l 1
 122 609 l 2
 109 609 109 609 108 598 c 2
 90 487 l 1
 19 487 l 1
 19 670 l 1
 595 670 l 1
 595 487 l 1
 520 487 l 1
EndSplineSet
EndChar

StartChar: U
Encoding: 53 85 56
Width: 729
GlyphClass: 1
Flags: W
LayerCount: 2
Fore
SplineSet
649 615 m 2
 641 615 641 615 634.5 609.5 c 128
 628 604 628 604 628 595 c 2
 628 257 l 2
 628 184 628 184 611.5 132.5 c 128
 595 81 595 81 561.5 49 c 128
 528 17 528 17 476.5 3 c 128
 425 -11 425 -11 355 -11 c 0
 227 -11 227 -11 164.5 58 c 128
 102 127 102 127 102 258 c 2
 102 596 l 2
 102 605 102 605 95 610.5 c 128
 88 616 88 616 80 616 c 2
 26 620 l 1
 26 670 l 1
 321 670 l 1
 321 620 l 1
 268 616 l 2
 260 616 260 616 253.5 610.5 c 128
 247 605 247 605 247 596 c 2
 247 250 l 2
 247 157 247 157 286.5 114.5 c 128
 326 72 326 72 408 72 c 0
 447 72 447 72 474.5 84.5 c 128
 502 97 502 97 520 120 c 128
 538 143 538 143 546 175.5 c 128
 554 208 554 208 554 248 c 2
 554 594 l 2
 554 603 554 603 548 608.5 c 128
 542 614 542 614 533 614 c 2
 477 618 l 1
 477 668 l 1
 706 668 l 1
 706 618 l 1
 649 615 l 2
EndSplineSet
EndChar

StartChar: V
Encoding: 54 86 57
Width: 706
GlyphClass: 1
Flags: W
LayerCount: 2
Fore
SplineSet
632 611 m 1
 403 -16 l 1
 309 -16 l 1
 76 610 l 1
 12 619 l 1
 12 669 l 1
 297 669 l 1
 297 619 l 1
 241 612 l 2
 233 611 233 611 231.5 604 c 128
 230 597 230 597 232 591 c 2
 390 156 l 1
 542 592 l 1
 543 598 543 598 541 604.5 c 128
 539 611 539 611 528 612 c 2
 475 619 l 1
 475 669 l 1
 698 669 l 1
 698 619 l 1
 632 611 l 1
EndSplineSet
EndChar

StartChar: W
Encoding: 55 87 58
Width: 965
GlyphClass: 1
Flags: W
LayerCount: 2
Fore
SplineSet
895 611 m 1
 738 -16 l 1
 644 -16 l 1
 488 504 l 1
 336 -16 l 1
 240 -16 l 1
 74 611 l 1
 13 619 l 1
 13 669 l 1
 285 669 l 1
 285 619 l 1
 226 613 l 2
 217 613 217 613 216.5 606.5 c 128
 216 600 216 600 217 594 c 2
 322 199 l 1
 462 673 l 1
 569 673 l 1
 714 189 l 1
 814 595 l 2
 815 601 815 601 813 607.5 c 128
 811 614 811 614 801 615 c 2
 738 621 l 1
 738 671 l 1
 959 671 l 1
 959 621 l 1
 895 611 l 1
EndSplineSet
EndChar

StartChar: X
Encoding: 56 88 59
Width: 670
GlyphClass: 1
Flags: W
LayerCount: 2
Fore
SplineSet
360 0 m 1
 360 50 l 1
 421 54 l 2
 427 54 427 54 429 60.5 c 128
 431 67 431 67 425 76 c 2
 314 251 l 1
 180 77 l 2
 177 73 177 73 177 69 c 128
 177 65 177 65 178 62 c 128
 179 59 179 59 181.5 57.5 c 128
 184 56 184 56 186 56 c 2
 246 51 l 1
 246 1 l 1
 10 1 l 1
 10 51 l 1
 74 59 l 1
 272 319 l 1
 85 610 l 1
 23 619 l 1
 23 669 l 1
 315 669 l 1
 315 619 l 1
 263 615 l 2
 258 615 258 615 255.5 608 c 128
 253 601 253 601 258 592 c 2
 358 435 l 1
 481 593 l 2
 487 601 487 601 484.5 609 c 128
 482 617 482 617 476 617 c 2
 423 620 l 1
 423 670 l 1
 651 670 l 1
 651 620 l 1
 589 611 l 1
 402 369 l 1
 600 60 l 1
 662 52 l 1
 662 2 l 1
 360 0 l 1
EndSplineSet
EndChar

StartChar: Y
Encoding: 57 89 60
Width: 663
GlyphClass: 1
Flags: W
LayerCount: 2
Fore
SplineSet
595 610 m 1
 410 290 l 1
 410 79 l 2
 410 70 410 70 416 64.5 c 128
 422 59 422 59 431 59 c 2
 492 54 l 1
 492 4 l 1
 182 4 l 1
 182 54 l 1
 243 59 l 2
 251 59 251 59 258 64.5 c 128
 265 70 265 70 265 79 c 2
 265 263 l 1
 73 611 l 1
 9 620 l 1
 9 670 l 1
 293 670 l 1
 293 620 l 1
 241 616 l 2
 236 616 236 616 233.5 609 c 128
 231 602 231 602 236 593 c 2
 361 357 l 1
 497 594 l 2
 502 603 502 603 500.5 610.5 c 128
 499 618 499 618 493 618 c 2
 432 621 l 1
 432 671 l 1
 652 671 l 1
 652 621 l 1
 595 610 l 1
EndSplineSet
EndChar

StartChar: Z
Encoding: 58 90 61
Width: 581
GlyphClass: 1
Flags: W
LayerCount: 2
Fore
SplineSet
37 0 m 1
 37 59 l 1
 379 609 l 1
 159 609 l 2
 147 609 147 609 146 598 c 2
 128 489 l 1
 56 489 l 1
 56 671 l 1
 540 671 l 1
 540 612 l 1
 198 63 l 1
 437 63 l 2
 449 63 449 63 451 74 c 2
 471 197 l 1
 543 197 l 1
 543 1 l 1
 37 0 l 1
EndSplineSet
EndChar

StartChar: bracketleft
Encoding: 59 91 62
Width: 547
GlyphClass: 1
Flags: W
LayerCount: 2
Fore
SplineSet
234 -131 m 1
 234 708 l 1
 511 708 l 1
 511 648 l 1
 358 648 l 1
 358 -74 l 1
 511 -74 l 1
 511 -131 l 1
 234 -131 l 1
EndSplineSet
EndChar

StartChar: backslash
Encoding: 60 92 63
Width: 494
GlyphClass: 1
Flags: W
LayerCount: 2
Fore
SplineSet
416 -92 m 1
 0 671 l 1
 78 671 l 1
 494 -92 l 1
 416 -92 l 1
EndSplineSet
EndChar

StartChar: bracketright
Encoding: 61 93 64
Width: 588
GlyphClass: 1
Flags: W
LayerCount: 2
Fore
SplineSet
36 -131 m 1
 36 -74 l 1
 188 -74 l 1
 188 648 l 1
 36 648 l 1
 36 708 l 1
 312 708 l 1
 312 -131 l 1
 36 -131 l 1
EndSplineSet
EndChar

StartChar: asciicircum
Encoding: 62 94 65
Width: 339
GlyphClass: 1
Flags: W
LayerCount: 2
Fore
SplineSet
256 550 m 1
 170 645 l 1
 84 550 l 1
 1 550 l 1
 111 721 l 1
 229 721 l 1
 339 550 l 1
 256 550 l 1
EndSplineSet
EndChar

StartChar: underscore
Encoding: 63 95 66
Width: 339
GlyphClass: 1
Flags: W
LayerCount: 2
Fore
SplineSet
0 -166 m 1
 0 -86 l 1
 339 -86 l 1
 339 -166 l 1
 0 -166 l 1
EndSplineSet
EndChar

StartChar: grave
Encoding: 64 96 67
Width: 374
GlyphClass: 1
Flags: W
LayerCount: 2
Fore
SplineSet
187 550 m 1
 25 638 l 2
 20 640 20 640 16 645 c 128
 12 650 12 650 9 655.5 c 128
 6 661 6 661 4.5 667 c 128
 3 673 3 673 3 677 c 0
 3 685 3 685 5.5 694.5 c 128
 8 704 8 704 14.5 711.5 c 128
 21 719 21 719 31.5 723.5 c 128
 42 728 42 728 58 728 c 0
 68 728 68 728 75.5 727 c 128
 83 726 83 726 90 722.5 c 128
 97 719 97 719 104 713 c 128
 111 707 111 707 119 698 c 2
 255 547 l 1
 187 550 l 1
EndSplineSet
EndChar

StartChar: a
Encoding: 65 97 68
Width: 553
GlyphClass: 1
Flags: W
LayerCount: 2
Fore
SplineSet
350 0 m 1
 337 49 l 1
 312 32 312 32 284 19 c 0
 260 8 260 8 229.5 -1.5 c 128
 199 -11 199 -11 166 -11 c 0
 139 -11 139 -11 115.5 -2 c 128
 92 7 92 7 74.5 23.5 c 128
 57 40 57 40 47 63.5 c 128
 37 87 37 87 37 116 c 0
 37 138 37 138 40.5 157 c 128
 44 176 44 176 54.5 192 c 128
 65 208 65 208 85.5 222.5 c 128
 106 237 106 237 139.5 251 c 128
 173 265 173 265 222 279 c 128
 271 293 271 293 339 308 c 1
 339 320 l 2
 339 327 339 327 339 332 c 0
 339 338 339 338 339 344 c 0
 339 358 339 358 336 374 c 128
 333 390 333 390 323 403.5 c 128
 313 417 313 417 294.5 426 c 128
 276 435 276 435 247 435 c 0
 237 435 237 435 229 435 c 128
 221 435 221 435 216 435 c 0
 210 435 210 435 206 435 c 1
 206 341 l 1
 103 341 l 2
 91 341 91 341 82 344 c 0
 74 346 74 346 67 353 c 128
 60 360 60 360 60 375 c 0
 60 402 60 402 79.5 423.5 c 128
 99 445 99 445 130.5 460 c 128
 162 475 162 475 201.5 483 c 128
 241 491 241 491 280 491 c 0
 322 491 322 491 357.5 485 c 128
 393 479 393 479 418.5 461 c 128
 444 443 444 443 457.5 410 c 128
 471 377 471 377 471 323 c 2
 471 67 l 2
 471 58 471 58 477 51.5 c 128
 483 45 483 45 492 45 c 2
 535 43 l 1
 535 -3 l 1
 350 0 l 1
336 254 m 1
 288 245 288 245 257 235 c 128
 226 225 226 225 207.5 212 c 128
 189 199 189 199 182 182.5 c 128
 175 166 175 166 175 144 c 0
 175 129 175 129 180 116 c 128
 185 103 185 103 194.5 93 c 128
 204 83 204 83 217 77.5 c 128
 230 72 230 72 245 72 c 0
 261 72 261 72 277 75 c 128
 293 78 293 78 306 81 c 0
 321 85 321 85 335 91 c 1
 336 254 l 1
EndSplineSet
EndChar

StartChar: b
Encoding: 66 98 69
Width: 598
GlyphClass: 1
Flags: W
LayerCount: 2
Fore
SplineSet
565 273 m 1
 565 216 565 216 545.5 166 c 128
 526 116 526 116 489 79.5 c 128
 452 43 452 43 398 22 c 128
 344 1 344 1 274 1 c 2
 91 1 l 1
 91 649 l 1
 22 649 l 1
 22 690 l 1
 174 740 l 1
 225 740 l 1
 225 454 l 1
 245 466 245 466 268 476 c 0
 288 484 288 484 313.5 491 c 128
 339 498 339 498 367 498 c 0
 407 498 407 498 442.5 483 c 128
 478 468 478 468 504.5 439 c 128
 531 410 531 410 546.5 368.5 c 128
 562 327 562 327 565 273 c 1
417 244 m 1
 417 284 417 284 408 315.5 c 128
 399 347 399 347 381 369 c 128
 363 391 363 391 336 402.5 c 128
 309 414 309 414 274 414 c 0
 265 414 265 414 256 413.5 c 128
 247 413 247 413 240 413 c 2
 223 411 l 1
 223 57 l 1
 231 57 231 57 234.5 57 c 128
 238 57 238 57 242 57 c 0
 283 57 283 57 315.5 66.5 c 128
 348 76 348 76 370 98 c 128
 392 120 392 120 403.5 156 c 128
 415 192 415 192 417 244 c 1
EndSplineSet
EndChar

StartChar: c
Encoding: 67 99 70
Width: 501
GlyphClass: 1
Flags: W
LayerCount: 2
Fore
SplineSet
471 43 m 1
 459 38 459 38 441 29 c 128
 423 20 423 20 399 11 c 128
 375 2 375 2 344.5 -4.5 c 128
 314 -11 314 -11 276 -11 c 0
 218 -11 218 -11 173.5 9 c 128
 129 29 129 29 98.5 62.5 c 128
 68 96 68 96 52.5 140 c 128
 37 184 37 184 37 233 c 0
 37 292 37 292 57 341 c 128
 77 390 77 390 111.5 425 c 128
 146 460 146 460 192.5 479 c 128
 239 498 239 498 292 498 c 0
 331 498 331 498 362.5 490 c 128
 394 482 394 482 416.5 467.5 c 128
 439 453 439 453 451 433 c 128
 463 413 463 413 463 390 c 0
 463 373 463 373 457 359.5 c 128
 451 346 451 346 441.5 336 c 128
 432 326 432 326 419.5 321 c 128
 407 316 407 316 394 316 c 0
 379 316 379 316 369 317.5 c 128
 359 319 359 319 352 322 c 128
 345 325 345 325 340 328.5 c 128
 335 332 335 332 331 335 c 1
 331 447 l 1
 325 447 325 447 321.5 447 c 128
 318 447 318 447 313 447 c 0
 291 447 291 447 268.5 435.5 c 128
 246 424 246 424 228 401 c 128
 210 378 210 378 199 343.5 c 128
 188 309 188 309 188 263 c 0
 188 220 188 220 198 185 c 128
 208 150 208 150 227.5 125.5 c 128
 247 101 247 101 275 88 c 128
 303 75 303 75 338 75 c 0
 360 75 360 75 382.5 81 c 128
 405 87 405 87 424 95 c 128
 443 103 443 103 456.5 111 c 128
 470 119 470 119 474 122 c 1
 471 43 l 1
EndSplineSet
EndChar

StartChar: d
Encoding: 68 100 71
Width: 608
GlyphClass: 1
Flags: W
LayerCount: 2
Fore
SplineSet
386 421 m 1
 375 425 375 425 363 428 c 0
 353 431 353 431 341 433.5 c 128
 329 436 329 436 318 436 c 0
 284 436 284 436 258.5 422 c 128
 233 408 233 408 216.5 383.5 c 128
 200 359 200 359 192 325.5 c 128
 184 292 184 292 184 254 c 0
 184 215 184 215 192 183 c 128
 200 151 200 151 216 128 c 128
 232 105 232 105 256 92.5 c 128
 280 80 280 80 312 80 c 0
 325 80 325 80 338.5 82.5 c 128
 352 85 352 85 363 88 c 0
 376 92 376 92 388 97 c 1
 386 421 l 1
388 -2 m 1
 388 56 l 1
 383 54 383 54 368 43 c 128
 353 32 353 32 332 20 c 128
 311 8 311 8 285.5 -1.5 c 128
 260 -11 260 -11 233 -11 c 0
 188 -11 188 -11 152 7.5 c 128
 116 26 116 26 91 58.5 c 128
 66 91 66 91 53 135.5 c 128
 40 180 40 180 40 232 c 0
 40 296 40 296 59.5 345.5 c 128
 79 395 79 395 113.5 428.5 c 128
 148 462 148 462 195.5 479.5 c 128
 243 497 243 497 299 497 c 0
 313 497 313 497 329 495.5 c 128
 345 494 345 494 359 492 c 0
 375 490 375 490 391 487 c 1
 391 648 l 1
 317 648 l 1
 317 689 l 1
 472 739 l 1
 523 739 l 1
 523 73 l 2
 523 64 523 64 529 57.5 c 128
 535 51 535 51 544 51 c 2
 585 49 l 1
 585 3 l 1
 388 -2 l 1
EndSplineSet
EndChar

StartChar: e
Encoding: 69 101 72
Width: 528
GlyphClass: 1
Flags: W
LayerCount: 2
Fore
SplineSet
354 326 m 1
 354 349 354 349 350 369.5 c 128
 346 390 346 390 336 405 c 128
 326 420 326 420 310.5 429 c 128
 295 438 295 438 274 438 c 0
 247 438 247 438 228.5 426 c 128
 210 414 210 414 199 394.5 c 128
 188 375 188 375 183.5 351 c 128
 179 327 179 327 179 304 c 1
 359 304 l 1
 354 326 l 1
502 47 m 1
 477 30 477 30 445 18 c 0
 418 7 418 7 379.5 -2 c 128
 341 -11 341 -11 294 -11 c 0
 231 -11 231 -11 183.5 8.5 c 128
 136 28 136 28 104.5 61.5 c 128
 73 95 73 95 57.5 140 c 128
 42 185 42 185 42 237 c 0
 42 293 42 293 59.5 341 c 128
 77 389 77 389 109.5 423.5 c 128
 142 458 142 458 188.5 477.5 c 128
 235 497 235 497 292 497 c 0
 350 497 350 497 390.5 478 c 128
 431 459 431 459 456 427.5 c 128
 481 396 481 396 492 355 c 128
 503 314 503 314 503 271 c 2
 503 248 l 1
 175 248 l 1
 175 207 175 207 185 174.5 c 128
 195 142 195 142 214.5 119.5 c 128
 234 97 234 97 262.5 85 c 128
 291 73 291 73 327 73 c 0
 365 73 365 73 396 81.5 c 128
 427 90 427 90 450 100 c 0
 476 112 476 112 498 127 c 1
 502 47 l 1
EndSplineSet
EndChar

StartChar: f
Encoding: 70 102 73
Width: 347
GlyphClass: 1
Flags: W
LayerCount: 2
Fore
SplineSet
419 660 m 1
 419 649 419 649 414 639 c 128
 409 629 409 629 400.5 620.5 c 128
 392 612 392 612 381 606 c 128
 370 600 370 600 358 597 c 1
 259 689 l 1
 252 678 252 678 246 666 c 128
 240 654 240 654 236.5 637 c 128
 233 620 233 620 231 596.5 c 128
 229 573 229 573 229 539 c 2
 229 481 l 1
 337 481 l 1
 337 418 l 1
 230 418 l 1
 230 80 l 2
 230 71 230 71 236 64 c 128
 242 57 242 57 251 57 c 2
 312 55 l 1
 312 9 l 1
 22 9 l 1
 22 55 l 1
 72 57 l 2
 81 57 81 57 87.5 63.5 c 128
 94 70 94 70 94 79 c 2
 94 417 l 1
 29 417 l 1
 29 457 l 1
 92 489 l 1
 92 528 92 528 102.5 563 c 128
 113 598 113 598 134 631 c 1
 148 655 148 655 167.5 675.5 c 128
 187 696 187 696 210.5 711 c 128
 234 726 234 726 261.5 734 c 128
 289 742 289 742 319 742 c 0
 333 742 333 742 349.5 737.5 c 128
 366 733 366 733 380 723.5 c 128
 394 714 394 714 403 699 c 128
 412 684 412 684 419 660 c 1
EndSplineSet
EndChar

StartChar: g
Encoding: 71 103 74
Width: 555
GlyphClass: 1
Flags: W
LayerCount: 2
Fore
SplineSet
387 -68 m 1
 387 -51 387 -51 376.5 -38.5 c 128
 366 -26 366 -26 349 -17 c 128
 332 -8 332 -8 311 -2.5 c 128
 290 3 290 3 269 6.5 c 128
 248 10 248 10 229 11.5 c 128
 210 13 210 13 198 14 c 1
 194 7 194 7 189 -0.5 c 128
 184 -8 184 -8 179.5 -17 c 128
 175 -26 175 -26 172.5 -37 c 128
 170 -48 170 -48 170 -61 c 0
 170 -84 170 -84 179.5 -104.5 c 128
 189 -125 189 -125 204.5 -140 c 128
 220 -155 220 -155 239.5 -163.5 c 128
 259 -172 259 -172 279 -172 c 256
 299 -172 299 -172 319 -164.5 c 128
 339 -157 339 -157 355 -143.5 c 128
 371 -130 371 -130 381 -110.5 c 128
 391 -91 391 -91 387 -68 c 1
350 338 m 0
 350 358 350 358 345.5 378.5 c 128
 341 399 341 399 331.5 415 c 128
 322 431 322 431 308 441 c 128
 294 451 294 451 276 451 c 0
 254 451 254 451 238.5 441 c 128
 223 431 223 431 213.5 414.5 c 128
 204 398 204 398 200 377.5 c 128
 196 357 196 357 196 336 c 256
 196 315 196 315 200.5 293.5 c 128
 205 272 205 272 214.5 255.5 c 128
 224 239 224 239 239 229 c 128
 254 219 254 219 274 219 c 256
 294 219 294 219 308 229 c 128
 322 239 322 239 331.5 256 c 128
 341 273 341 273 345 294.5 c 128
 349 316 349 316 350 338 c 0
460 412 m 1
 465 402 465 402 469 390 c 0
 472 380 472 380 475 367 c 128
 478 354 478 354 478 339 c 0
 478 306 478 306 467 280.5 c 128
 456 255 456 255 437.5 236.5 c 128
 419 218 419 218 395 205.5 c 128
 371 193 371 193 344.5 186 c 128
 318 179 318 179 291.5 177 c 128
 265 175 265 175 242 176 c 1
 234 171 234 171 227 165 c 128
 220 159 220 159 216.5 152 c 128
 213 145 213 145 213 137 c 128
 213 129 213 129 217 119 c 1
 299 113 299 113 356.5 101 c 128
 414 89 414 89 450.5 71 c 128
 487 53 487 53 503.5 28.5 c 128
 520 4 520 4 520 -27 c 0
 520 -55 520 -55 509.5 -80 c 128
 499 -105 499 -105 480 -126 c 128
 461 -147 461 -147 435.5 -163.5 c 128
 410 -180 410 -180 380 -191 c 128
 350 -202 350 -202 317.5 -208 c 128
 285 -214 285 -214 253 -214 c 0
 214 -214 214 -214 176 -205 c 128
 138 -196 138 -196 108 -177 c 128
 78 -158 78 -158 59.5 -129 c 128
 41 -100 41 -100 41 -60 c 0
 41 -29 41 -29 52.5 -8.5 c 128
 64 12 64 12 80 24 c 128
 96 36 96 36 112.5 40 c 128
 129 44 129 44 139 43 c 1
 133 56 133 56 130.5 70.5 c 128
 128 85 128 85 128 94 c 0
 128 106 128 106 131 117 c 128
 134 128 134 128 140.5 138.5 c 128
 147 149 147 149 157 160 c 128
 167 171 167 171 181 183 c 1
 168 185 168 185 147.5 194 c 128
 127 203 127 203 107.5 220.5 c 128
 88 238 88 238 74 265 c 128
 60 292 60 292 60 331 c 0
 60 375 60 375 77 407.5 c 128
 94 440 94 440 124 461 c 128
 154 482 154 482 194 492 c 128
 234 502 234 502 279 502 c 0
 302 502 302 502 322.5 499 c 128
 343 496 343 496 360.5 491.5 c 128
 378 487 378 487 392.5 482 c 128
 407 477 407 477 419 474 c 1
 548 474 l 1
 548 415 l 1
 460 412 l 1
EndSplineSet
EndChar

StartChar: h
Encoding: 72 104 75
Width: 625
GlyphClass: 1
Flags: W
LayerCount: 2
Fore
SplineSet
348 0 m 1
 348 46 l 1
 379 48 l 2
 388 48 388 48 394 54.5 c 128
 400 61 400 61 400 70 c 2
 400 305 l 2
 400 317 400 317 397.5 334 c 128
 395 351 395 351 386.5 366 c 128
 378 381 378 381 361.5 391.5 c 128
 345 402 345 402 318 402 c 0
 303 402 303 402 287 400 c 128
 271 398 271 398 257 396 c 0
 241 394 241 394 226 391 c 1
 226 70 l 2
 226 61 226 61 232 54.5 c 128
 238 48 238 48 247 48 c 2
 281 46 l 1
 281 0 l 1
 28 0 l 1
 28 46 l 1
 69 48 l 2
 78 48 78 48 84 54.5 c 128
 90 61 90 61 90 70 c 2
 90 645 l 1
 20 645 l 1
 20 686 l 1
 172 736 l 1
 224 736 l 1
 224 434 l 1
 251 451 251 451 281 464 c 0
 293 469 293 469 307 474.5 c 128
 321 480 321 480 335.5 484 c 128
 350 488 350 488 365 490.5 c 128
 380 493 380 493 394 493 c 0
 423 493 423 493 444.5 485.5 c 128
 466 478 466 478 481 466 c 128
 496 454 496 454 505.5 438 c 128
 515 422 515 422 520 404.5 c 128
 525 387 525 387 526.5 370 c 128
 528 353 528 353 528 339 c 2
 528 70 l 2
 528 61 528 61 534 54.5 c 128
 540 48 540 48 549 48 c 2
 590 46 l 1
 590 0 l 1
 348 0 l 1
EndSplineSet
EndChar

StartChar: i
Encoding: 73 105 76
Width: 333
GlyphClass: 1
Flags: W
LayerCount: 2
Fore
SplineSet
32 0 m 1
 32 46 l 1
 77 48 l 2
 85 48 85 48 91.5 54.5 c 128
 98 61 98 61 98 70 c 2
 98 405 l 1
 35 405 l 1
 35 446 l 1
 180 495 l 1
 230 495 l 1
 230 69 l 2
 230 60 230 60 237 53.5 c 128
 244 47 244 47 252 47 c 2
 300 45 l 1
 300 -1 l 1
 32 0 l 1
243 662 m 256
 243 646 243 646 237 632 c 128
 231 618 231 618 220.5 607.5 c 128
 210 597 210 597 196 591 c 128
 182 585 182 585 166 585 c 256
 150 585 150 585 136 591 c 128
 122 597 122 597 112 607.5 c 128
 102 618 102 618 96 632 c 128
 90 646 90 646 90 662 c 256
 90 678 90 678 96 692 c 128
 102 706 102 706 112 716 c 128
 122 726 122 726 136 732 c 128
 150 738 150 738 166 738 c 256
 182 738 182 738 196 732 c 128
 210 726 210 726 220.5 716 c 128
 231 706 231 706 237 692 c 128
 243 678 243 678 243 662 c 256
EndSplineSet
EndChar

StartChar: j
Encoding: 74 106 77
Width: 324
GlyphClass: 1
Flags: W
LayerCount: 2
Fore
SplineSet
232 46 m 2
 232 -8 232 -8 219 -59 c 128
 206 -110 206 -110 178 -149 c 0
 151 -186 151 -186 109.5 -207.5 c 128
 68 -229 68 -229 10 -229 c 0
 -10 -229 -10 -229 -28 -224.5 c 128
 -46 -220 -46 -220 -59.5 -210.5 c 128
 -73 -201 -73 -201 -81 -187 c 128
 -89 -173 -89 -173 -89 -155 c 0
 -89 -142 -89 -142 -84 -130.5 c 128
 -79 -119 -79 -119 -70.5 -110 c 128
 -62 -101 -62 -101 -50.5 -95.5 c 128
 -39 -90 -39 -90 -27 -90 c 1
 70 -189 l 1
 75 -180 75 -180 79 -167.5 c 128
 83 -155 83 -155 85.5 -140.5 c 128
 88 -126 88 -126 89.5 -111 c 128
 91 -96 91 -96 92 -82 c 0
 94 -48 94 -48 94 -10 c 2
 94 404 l 1
 23 404 l 1
 23 445 l 1
 176 494 l 1
 226 494 l 1
 232 46 l 2
236 657 m 256
 236 641 236 641 230 627 c 128
 224 613 224 613 214 602.5 c 128
 204 592 204 592 190 586 c 128
 176 580 176 580 160 580 c 256
 144 580 144 580 130 586 c 128
 116 592 116 592 105.5 602.5 c 128
 95 613 95 613 89 627 c 128
 83 641 83 641 83 657 c 256
 83 673 83 673 89 687 c 128
 95 701 95 701 105.5 711 c 128
 116 721 116 721 130 727 c 128
 144 733 144 733 160 733 c 256
 176 733 176 733 190 727 c 128
 204 721 204 721 214 711 c 128
 224 701 224 701 230 687 c 128
 236 673 236 673 236 657 c 256
EndSplineSet
EndChar

StartChar: k
Encoding: 75 107 78
Width: 591
GlyphClass: 1
Flags: W
LayerCount: 2
Fore
SplineSet
380 0 m 1
 380 41 l 1
 271 226 l 1
 225 226 l 1
 225 74 l 2
 225 65 225 65 231 58.5 c 128
 237 52 237 52 246 52 c 2
 286 50 l 1
 286 4 l 1
 26 4 l 1
 26 50 l 1
 67 52 l 2
 76 52 76 52 82 58.5 c 128
 88 65 88 65 88 74 c 2
 88 649 l 1
 19 649 l 1
 19 690 l 1
 171 740 l 1
 222 740 l 1
 222 260 l 1
 243 260 l 1
 376 420 l 2
 380 425 380 425 378 430 c 128
 376 435 376 435 369 435 c 2
 331 438 l 1
 331 484 l 1
 539 484 l 1
 539 438 l 1
 474 431 l 1
 368 309 l 1
 521 50 l 1
 580 46 l 1
 580 0 l 1
 380 0 l 1
EndSplineSet
EndChar

StartChar: l
Encoding: 76 108 79
Width: 333
GlyphClass: 1
Flags: W
LayerCount: 2
Fore
SplineSet
28 0 m 1
 28 46 l 1
 77 48 l 2
 86 48 86 48 92 54 c 128
 98 60 98 60 98 69 c 2
 98 644 l 1
 27 644 l 1
 27 685 l 1
 180 735 l 1
 230 735 l 1
 230 69 l 2
 230 60 230 60 236 54 c 128
 242 48 242 48 251 48 c 2
 301 46 l 1
 301 0 l 1
 28 0 l 1
EndSplineSet
EndChar

StartChar: m
Encoding: 77 109 80
Width: 905
GlyphClass: 1
Flags: W
LayerCount: 2
Fore
SplineSet
632 0 m 1
 632 46 l 1
 663 48 l 2
 671 48 671 48 678 54.5 c 128
 685 61 685 61 685 70 c 2
 685 310 l 2
 685 328 685 328 681 345 c 128
 677 362 677 362 667 375 c 128
 657 388 657 388 640.5 395.5 c 128
 624 403 624 403 600 403 c 0
 584 403 584 403 570 400.5 c 128
 556 398 556 398 545 396 c 0
 533 393 533 393 522 389 c 1
 522 71 l 2
 522 62 522 62 528 55.5 c 128
 534 49 534 49 543 49 c 2
 574 47 l 1
 574 1 l 1
 334 1 l 1
 334 47 l 1
 364 49 l 2
 373 49 373 49 379.5 55.5 c 128
 386 62 386 62 386 71 c 2
 386 311 l 2
 386 329 386 329 381.5 346 c 128
 377 363 377 363 367 376 c 128
 357 389 357 389 341 396.5 c 128
 325 404 325 404 302 404 c 0
 282 404 282 404 267 401.5 c 128
 252 399 252 399 243 397 c 0
 232 394 232 394 225 390 c 1
 225 72 l 2
 225 63 225 63 231.5 56.5 c 128
 238 50 238 50 247 50 c 2
 277 48 l 1
 277 2 l 1
 31 2 l 1
 31 48 l 1
 68 50 l 2
 77 50 77 50 83 56.5 c 128
 89 63 89 63 89 72 c 2
 89 406 l 1
 26 406 l 1
 26 447 l 1
 172 497 l 1
 222 497 l 1
 222 436 l 1
 247 453 247 453 274 466 c 0
 297 477 297 477 326 486.5 c 128
 355 496 355 496 384 496 c 0
 412 496 412 496 432 488.5 c 128
 452 481 452 481 465.5 471 c 128
 479 461 479 461 488 449.5 c 128
 497 438 497 438 503 430 c 1
 532 448 532 448 562 463 c 0
 575 469 575 469 589.5 475 c 128
 604 481 604 481 619 485.5 c 128
 634 490 634 490 649 492.5 c 128
 664 495 664 495 678 495 c 0
 708 495 708 495 729.5 487 c 128
 751 479 751 479 766 466 c 128
 781 453 781 453 790 437 c 128
 799 421 799 421 804 404 c 128
 809 387 809 387 810.5 371.5 c 128
 812 356 812 356 812 345 c 2
 812 72 l 2
 812 63 812 63 818.5 56.5 c 128
 825 50 825 50 833 50 c 2
 869 48 l 1
 869 2 l 1
 632 0 l 1
EndSplineSet
EndChar

StartChar: n
Encoding: 78 110 81
Width: 625
GlyphClass: 1
Flags: W
LayerCount: 2
Fore
SplineSet
342 0 m 1
 342 46 l 1
 379 48 l 2
 388 48 388 48 394 54.5 c 128
 400 61 400 61 400 70 c 2
 400 304 l 2
 400 323 400 323 396 341 c 128
 392 359 392 359 382.5 372.5 c 128
 373 386 373 386 357.5 394.5 c 128
 342 403 342 403 320 403 c 0
 300 403 300 403 282.5 401 c 128
 265 399 265 399 253 397 c 0
 238 395 238 395 226 392 c 1
 226 71 l 2
 226 62 226 62 232.5 55.5 c 128
 239 49 239 49 248 49 c 2
 277 47 l 1
 277 1 l 1
 33 1 l 1
 33 47 l 1
 68 49 l 2
 77 49 77 49 83 55.5 c 128
 89 62 89 62 89 71 c 2
 89 405 l 1
 21 405 l 1
 21 446 l 1
 171 496 l 1
 223 496 l 1
 223 435 l 1
 248 452 248 452 277 465 c 0
 301 476 301 476 332 485.5 c 128
 363 495 363 495 395 495 c 0
 437 495 437 495 463.5 480.5 c 128
 490 466 490 466 504.5 442 c 128
 519 418 519 418 524 387 c 128
 529 356 529 356 529 324 c 2
 529 72 l 2
 529 63 529 63 535.5 56.5 c 128
 542 50 542 50 551 50 c 2
 581 48 l 1
 581 2 l 1
 342 0 l 1
EndSplineSet
EndChar

StartChar: o
Encoding: 79 111 82
Width: 583
GlyphClass: 1
Flags: W
LayerCount: 2
Fore
SplineSet
403 242 m 1
 403 262 403 262 401.5 285 c 128
 400 308 400 308 395.5 330 c 128
 391 352 391 352 383 372 c 128
 375 392 375 392 363 407 c 128
 351 422 351 422 334 431 c 128
 317 440 317 440 295 440 c 0
 262 440 262 440 241 421.5 c 128
 220 403 220 403 208.5 374 c 128
 197 345 197 345 192.5 310.5 c 128
 188 276 188 276 188 244 c 0
 188 223 188 223 189.5 200 c 128
 191 177 191 177 195.5 155 c 128
 200 133 200 133 207.5 113 c 128
 215 93 215 93 227 78 c 128
 239 63 239 63 256 54 c 128
 273 45 273 45 296 45 c 0
 330 45 330 45 351 63 c 128
 372 81 372 81 384 109.5 c 128
 396 138 396 138 400.5 173 c 128
 405 208 405 208 403 242 c 1
554 240 m 256
 554 184 554 184 536.5 137.5 c 128
 519 91 519 91 485 58 c 128
 451 25 451 25 402 6.5 c 128
 353 -12 353 -12 291 -12 c 0
 234 -12 234 -12 187 5.5 c 128
 140 23 140 23 106.5 55.5 c 128
 73 88 73 88 54.5 135 c 128
 36 182 36 182 36 241 c 0
 36 302 36 302 55.5 349.5 c 128
 75 397 75 397 109.5 429.5 c 128
 144 462 144 462 192 479 c 128
 240 496 240 496 298 496 c 0
 360 496 360 496 407.5 477 c 128
 455 458 455 458 487.5 424 c 128
 520 390 520 390 537 343 c 128
 554 296 554 296 554 240 c 256
EndSplineSet
EndChar

StartChar: p
Encoding: 80 112 83
Width: 604
GlyphClass: 1
Flags: W
LayerCount: 2
Fore
SplineSet
423 243 m 0
 423 275 423 275 415.5 305 c 128
 408 335 408 335 393 357.5 c 128
 378 380 378 380 354.5 393.5 c 128
 331 407 331 407 299 407 c 0
 286 407 286 407 273.5 405 c 128
 261 403 261 403 251 401 c 0
 239 398 239 398 228 395 c 1
 228 56 l 1
 237 53 237 53 246 51 c 0
 254 49 254 49 263 47.5 c 128
 272 46 272 46 280 46 c 0
 316 46 316 46 343 61.5 c 128
 370 77 370 77 388 104 c 128
 406 131 406 131 415 167.5 c 128
 424 204 424 204 423 243 c 0
571 260 m 1
 571 200 571 200 552 150.5 c 128
 533 101 533 101 498 66 c 128
 463 31 463 31 413.5 11.5 c 128
 364 -8 364 -8 302 -8 c 0
 287 -8 287 -8 273.5 -7 c 128
 260 -6 260 -6 249 -5 c 0
 237 -4 237 -4 226 -1 c 1
 226 -145 l 2
 226 -154 226 -154 232 -160.5 c 128
 238 -167 238 -167 247 -167 c 2
 299 -169 l 1
 299 -216 l 1
 25 -216 l 1
 25 -169 l 1
 68 -167 l 2
 77 -167 77 -167 83 -160.5 c 128
 89 -154 89 -154 89 -145 c 2
 89 409 l 1
 24 409 l 1
 24 450 l 1
 171 500 l 1
 223 500 l 1
 223 438 l 1
 246 455 246 455 272 468 c 0
 294 479 294 479 322 489 c 128
 350 499 350 499 380 499 c 256
 410 499 410 499 435.5 489.5 c 128
 461 480 461 480 481.5 463.5 c 128
 502 447 502 447 517.5 424 c 128
 533 401 533 401 543 374.5 c 128
 553 348 553 348 558 318.5 c 128
 563 289 563 289 571 260 c 1
EndSplineSet
EndChar

StartChar: q
Encoding: 81 113 84
Width: 603
GlyphClass: 1
Flags: W
LayerCount: 2
Fore
SplineSet
378 437 m 1
 374 437 374 437 368 437 c 0
 363 437 363 437 355.5 437 c 128
 348 437 348 437 340 437 c 0
 296 437 296 437 265.5 423 c 128
 235 409 235 409 216 384 c 128
 197 359 197 359 189 324.5 c 128
 181 290 181 290 181 250 c 0
 181 209 181 209 190 176.5 c 128
 199 144 199 144 216.5 121.5 c 128
 234 99 234 99 259 87 c 128
 284 75 284 75 316 75 c 0
 327 75 327 75 338 75 c 128
 349 75 349 75 358 75 c 0
 368 75 368 75 378 75 c 1
 378 437 l 1
301 -223 m 1
 301 -176 l 1
 356 -174 l 2
 365 -174 365 -174 371 -167.5 c 128
 377 -161 377 -161 377 -152 c 2
 377 33 l 1
 357 19 357 19 334 8 c 0
 314 -1 314 -1 287 -8.5 c 128
 260 -16 260 -16 230 -16 c 0
 186 -16 186 -16 150 3.5 c 128
 114 23 114 23 89 56 c 128
 64 89 64 89 50.5 132.5 c 128
 37 176 37 176 37 224 c 0
 37 294 37 294 60.5 345 c 128
 84 396 84 396 126.5 428.5 c 128
 169 461 169 461 228 476.5 c 128
 287 492 287 492 357 492 c 0
 382 492 382 492 409.5 490.5 c 128
 437 489 437 489 460 487 c 0
 487 485 487 485 513 482 c 1
 513 -151 l 2
 513 -160 513 -160 519 -166.5 c 128
 525 -173 525 -173 534 -173 c 2
 575 -175 l 1
 575 -222 l 1
 301 -223 l 1
EndSplineSet
EndChar

StartChar: r
Encoding: 82 114 85
Width: 432
GlyphClass: 1
Flags: W
LayerCount: 2
Fore
SplineSet
354 330 m 1
 351 334 351 334 346 340.5 c 128
 341 347 341 347 333.5 353 c 128
 326 359 326 359 315.5 363 c 128
 305 367 305 367 291 367 c 256
 277 367 277 367 265 364.5 c 128
 253 362 253 362 245 359 c 0
 235 356 235 356 228 352 c 1
 228 72 l 2
 228 64 228 64 234 57 c 128
 240 50 240 50 249 50 c 2
 312 48 l 1
 312 2 l 1
 26 2 l 1
 26 48 l 1
 69 50 l 2
 78 50 78 50 84 56.5 c 128
 90 63 90 63 90 71 c 2
 90 407 l 1
 18 407 l 1
 18 448 l 1
 172 498 l 1
 224 498 l 1
 224 393 l 1
 233 404 233 404 248.5 422 c 128
 264 440 264 440 282.5 456.5 c 128
 301 473 301 473 320.5 485 c 128
 340 497 340 497 357 497 c 0
 365 497 365 497 374 496 c 128
 383 495 383 495 391.5 492.5 c 128
 400 490 400 490 407 487 c 128
 414 484 414 484 418 481 c 1
 418 330 l 1
 354 330 l 1
EndSplineSet
EndChar

StartChar: s
Encoding: 83 115 86
Width: 444
GlyphClass: 1
Flags: W
LayerCount: 2
Fore
SplineSet
397 334 m 1
 335 334 l 1
 325 414 l 1
 316 425 316 425 295.5 431.5 c 128
 275 438 275 438 248 438 c 0
 213 438 213 438 193 424 c 128
 173 410 173 410 173 384 c 0
 173 370 173 370 181 357.5 c 128
 189 345 189 345 203 334 c 128
 217 323 217 323 235 313 c 128
 253 303 253 303 273 293 c 0
 297 281 297 281 322 268 c 128
 347 255 347 255 367 239 c 128
 387 223 387 223 399.5 203.5 c 128
 412 184 412 184 412 159 c 0
 412 112 412 112 394 80.5 c 128
 376 49 376 49 347.5 29.5 c 128
 319 10 319 10 282.5 1.5 c 128
 246 -7 246 -7 209 -7 c 256
 172 -7 172 -7 140.5 -3 c 128
 109 1 109 1 85 6 c 0
 57 11 57 11 34 18 c 1
 34 169 l 1
 96 169 l 1
 96 159 96 159 97.5 143.5 c 128
 99 128 99 128 100 114 c 0
 101 97 101 97 103 79 c 0
 103 77 103 77 113 72.5 c 128
 123 68 123 68 137 63.5 c 128
 151 59 151 59 166.5 56 c 128
 182 53 182 53 194 53 c 0
 219 53 219 53 235.5 59.5 c 128
 252 66 252 66 261.5 75.5 c 128
 271 85 271 85 274.5 95.5 c 128
 278 106 278 106 278 114 c 0
 278 134 278 134 265.5 148.5 c 128
 253 163 253 163 232.5 175 c 128
 212 187 212 187 186.5 197.5 c 128
 161 208 161 208 137 220 c 0
 117 230 117 230 98 242 c 128
 79 254 79 254 65 269 c 128
 51 284 51 284 42.5 303 c 128
 34 322 34 322 34 346 c 0
 34 380 34 380 48.5 408 c 128
 63 436 63 436 89.5 455.5 c 128
 116 475 116 475 152.5 485.5 c 128
 189 496 189 496 232 496 c 0
 269 496 269 496 298.5 492 c 128
 328 488 328 488 348 483 c 0
 371 478 371 478 389 471 c 1
 397 334 l 1
EndSplineSet
EndChar

StartChar: t
Encoding: 84 116 87
Width: 375
GlyphClass: 1
Flags: W
LayerCount: 2
Fore
SplineSet
371 21 m 1
 348 12 348 12 322 5 c 0
 300 -1 300 -1 271.5 -6 c 128
 243 -11 243 -11 213 -11 c 0
 180 -11 180 -11 157 -4 c 128
 134 3 134 3 120 18 c 128
 106 33 106 33 100 55.5 c 128
 94 78 94 78 94 109 c 2
 94 421 l 1
 29 421 l 1
 29 461 l 1
 106 506 l 1
 159 612 l 1
 228 612 l 1
 228 484 l 1
 366 484 l 1
 366 421 l 1
 228 421 l 1
 228 150 l 2
 228 103 228 103 248.5 83.5 c 128
 269 64 269 64 309 64 c 0
 320 64 320 64 331.5 64.5 c 128
 343 65 343 65 352 66 c 0
 362 67 362 67 371 68 c 1
 371 21 l 1
EndSplineSet
EndChar

StartChar: u
Encoding: 85 117 88
Width: 620
GlyphClass: 1
Flags: W
LayerCount: 2
Fore
SplineSet
395 0 m 1
 395 55 l 1
 371 36 371 36 345 22 c 0
 323 10 323 10 295.5 0 c 128
 268 -10 268 -10 241 -10 c 0
 199 -10 199 -10 170.5 1 c 128
 142 12 142 12 125 32.5 c 128
 108 53 108 53 101 83 c 128
 94 113 94 113 94 151 c 2
 94 409 l 1
 30 409 l 1
 30 450 l 1
 176 499 l 1
 228 499 l 1
 228 189 l 2
 228 171 228 171 230 151.5 c 128
 232 132 232 132 241 116 c 128
 250 100 250 100 268 90 c 128
 286 80 286 80 317 80 c 0
 332 80 332 80 346 82 c 128
 360 84 360 84 371 87 c 0
 383 90 383 90 394 94 c 1
 394 406 l 1
 332 406 l 1
 332 447 l 1
 477 496 l 1
 527 496 l 1
 527 70 l 2
 527 61 527 61 534 54.5 c 128
 541 48 541 48 550 48 c 2
 593 46 l 1
 593 0 l 1
 395 0 l 1
EndSplineSet
EndChar

StartChar: v
Encoding: 86 118 89
Width: 565
GlyphClass: 1
Flags: W
LayerCount: 2
Fore
SplineSet
500 434 m 1
 329 0 l 1
 230 0 l 1
 70 435 l 1
 11 440 l 1
 11 486 l 1
 274 486 l 1
 274 440 l 1
 229 438 l 2
 220 438 220 438 216.5 432 c 128
 213 426 213 426 215 418 c 2
 313 142 l 1
 421 418 l 2
 423 425 423 425 418.5 431.5 c 128
 414 438 414 438 406 438 c 2
 365 440 l 1
 365 486 l 1
 559 486 l 1
 559 440 l 1
 500 434 l 1
EndSplineSet
EndChar

StartChar: w
Encoding: 87 119 90
Width: 840
GlyphClass: 1
Flags: W
LayerCount: 2
Fore
SplineSet
775 434 m 1
 642 0 l 1
 531 0 l 1
 423 354 l 1
 309 0 l 1
 201 0 l 1
 72 435 l 1
 13 440 l 1
 13 486 l 1
 269 486 l 1
 269 440 l 1
 227 438 l 2
 219 438 219 438 214.5 432 c 128
 210 426 210 426 212 418 c 2
 290 144 l 1
 401 490 l 1
 510 490 l 1
 617 142 l 1
 700 418 l 2
 702 425 702 425 698 431.5 c 128
 694 438 694 438 686 438 c 2
 643 440 l 1
 643 486 l 1
 834 486 l 1
 834 440 l 1
 775 434 l 1
EndSplineSet
EndChar

StartChar: x
Encoding: 88 120 91
Width: 545
GlyphClass: 1
Flags: W
LayerCount: 2
Fore
SplineSet
283 0 m 1
 283 46 l 1
 321 49 l 2
 328 49 328 49 330 54 c 128
 332 59 332 59 329 64 c 2
 250 171 l 1
 163 64 l 2
 159 59 159 59 160.5 54 c 128
 162 49 162 49 169 49 c 2
 204 46 l 1
 204 0 l 1
 9 0 l 1
 9 46 l 1
 69 54 l 1
 212 226 l 1
 65 432 l 1
 13 438 l 1
 13 484 l 1
 258 484 l 1
 258 438 l 1
 230 436 l 2
 222 436 222 436 220.5 430.5 c 128
 219 425 219 425 223 420 c 2
 292 324 l 1
 372 420 l 2
 375 425 375 425 373.5 430.5 c 128
 372 436 372 436 365 436 c 2
 333 438 l 1
 333 484 l 1
 519 484 l 1
 519 438 l 1
 463 432 l 1
 331 268 l 1
 484 54 l 1
 537 46 l 1
 537 0 l 1
 283 0 l 1
EndSplineSet
EndChar

StartChar: y
Encoding: 89 121 92
Width: 565
GlyphClass: 1
Flags: W
LayerCount: 2
Fore
SplineSet
503 434 m 1
 331 10 l 2
 322 -12 322 -12 311 -38 c 128
 300 -64 300 -64 286.5 -90.5 c 128
 273 -117 273 -117 256.5 -141.5 c 128
 240 -166 240 -166 220 -185 c 0
 200 -205 200 -205 175.5 -216.5 c 128
 151 -228 151 -228 122 -228 c 0
 108 -228 108 -228 92.5 -222.5 c 128
 77 -217 77 -217 64.5 -207 c 128
 52 -197 52 -197 44 -182.5 c 128
 36 -168 36 -168 36 -150 c 0
 36 -137 36 -137 41 -126 c 128
 46 -115 46 -115 54 -106 c 128
 62 -97 62 -97 72 -90.5 c 128
 82 -84 82 -84 92 -80 c 1
 176 -144 l 1
 189 -132 189 -132 200.5 -114.5 c 128
 212 -97 212 -97 221.5 -78.5 c 128
 231 -60 231 -60 238 -42.5 c 128
 245 -25 245 -25 248 -13 c 1
 70 430 l 1
 11 435 l 1
 11 481 l 1
 274 481 l 1
 274 435 l 1
 229 433 l 2
 220 433 220 433 216 427 c 128
 212 421 212 421 214 413 c 1
 317 157 l 1
 422 413 l 2
 424 420 424 420 419.5 426.5 c 128
 415 433 415 433 407 433 c 2
 364 435 l 1
 364 481 l 1
 559 481 l 1
 559 435 l 1
 503 434 l 1
EndSplineSet
EndChar

StartChar: z
Encoding: 90 122 93
Width: 491
GlyphClass: 1
Flags: W
LayerCount: 2
Fore
SplineSet
32 0 m 1
 32 64 l 1
 287 430 l 1
 137 430 l 2
 130 430 130 430 124.5 423 c 128
 119 416 119 416 119 410 c 2
 112 333 l 1
 42 333 l 1
 42 487 l 1
 446 487 l 1
 446 432 l 1
 185 59 l 1
 356 59 l 2
 359 59 359 59 362 61 c 128
 365 63 365 63 368 66 c 128
 371 69 371 69 373 73 c 128
 375 77 375 77 375 80 c 2
 388 164 l 1
 456 164 l 1
 456 -3 l 1
 32 0 l 1
EndSplineSet
EndChar

StartChar: braceleft
Encoding: 91 123 94
Width: 495
GlyphClass: 1
Flags: W
LayerCount: 2
Fore
SplineSet
421 -122 m 1
 402 -122 l 2
 389 -122 389 -122 371.5 -121.5 c 128
 354 -121 354 -121 333.5 -119 c 128
 313 -117 313 -117 293 -112.5 c 128
 273 -108 273 -108 255 -101 c 128
 237 -94 237 -94 225 -83 c 0
 203 -63 203 -63 193 -36 c 128
 183 -9 183 -9 180 21 c 128
 177 51 177 51 177.5 82 c 128
 178 113 178 113 178 141 c 128
 178 169 178 169 173.5 192 c 128
 169 215 169 215 155 229 c 256
 141 243 141 243 122 249 c 128
 103 255 103 255 86 256 c 0
 67 257 67 257 47 255 c 1
 47 314 l 1
 67 312 67 312 86 313 c 0
 103 314 103 314 122 320 c 128
 141 326 141 326 155 340 c 256
 169 354 169 354 173.5 377.5 c 128
 178 401 178 401 178 429 c 128
 178 457 178 457 177.5 488 c 128
 177 519 177 519 180 549 c 128
 183 579 183 579 193 606 c 128
 203 633 203 633 225 653 c 0
 237 664 237 664 255 671 c 128
 273 678 273 678 293 682.5 c 128
 313 687 313 687 333.5 689 c 128
 354 691 354 691 371.5 691.5 c 128
 389 692 389 692 402 692 c 2
 421 692 l 1
 421 637 l 1
 403 637 403 637 386 635 c 0
 371 633 371 633 355 628 c 128
 339 623 339 623 328 612 c 0
 313 598 313 598 308 576.5 c 128
 303 555 303 555 302.5 529.5 c 128
 302 504 302 504 302 476.5 c 128
 302 449 302 449 299.5 422 c 128
 297 395 297 395 288 370.5 c 128
 279 346 279 346 259 327 c 0
 244 312 244 312 227 303.5 c 128
 210 295 210 295 195.5 291 c 128
 181 287 181 287 170 286 c 0
 162 286 162 286 158 286 c 1
 162 286 162 286 170 286 c 0
 181 285 181 285 195.5 280.5 c 128
 210 276 210 276 227 267.5 c 128
 244 259 244 259 259 244 c 0
 279 225 279 225 288 200.5 c 128
 297 176 297 176 299.5 149 c 128
 302 122 302 122 302 94.5 c 128
 302 67 302 67 302.5 42 c 128
 303 17 303 17 308 -4.5 c 128
 313 -26 313 -26 328 -40 c 0
 339 -51 339 -51 355 -56 c 128
 371 -61 371 -61 386 -63 c 0
 403 -65 403 -65 421 -65 c 1
 421 -122 l 1
EndSplineSet
EndChar

StartChar: bar
Encoding: 92 124 95
Width: 397
GlyphClass: 1
Flags: W
LayerCount: 2
Fore
SplineSet
156 -257 m 1
 156 796 l 1
 241 796 l 1
 241 -257 l 1
 156 -257 l 1
EndSplineSet
EndChar

StartChar: braceright
Encoding: 93 125 96
Width: 495
GlyphClass: 1
Flags: W
LayerCount: 2
Fore
SplineSet
454 262 m 1
 434 264 434 264 415 263 c 0
 398 262 398 262 379 256 c 128
 360 250 360 250 346 236 c 0
 332 221 332 221 327.5 198 c 128
 323 175 323 175 322.5 147 c 128
 322 119 322 119 322.5 88 c 128
 323 57 323 57 320 27 c 128
 317 -3 317 -3 307 -30 c 128
 297 -57 297 -57 275 -77 c 0
 263 -88 263 -88 245.5 -95 c 128
 228 -102 228 -102 208 -106.5 c 128
 188 -111 188 -111 167.5 -113 c 128
 147 -115 147 -115 129.5 -115.5 c 128
 112 -116 112 -116 99 -116 c 2
 80 -116 l 1
 80 -61 l 1
 98 -61 98 -61 115 -59 c 0
 130 -57 130 -57 146 -52 c 128
 162 -47 162 -47 173 -36 c 0
 188 -22 188 -22 193 -1 c 128
 198 20 198 20 198.5 45 c 128
 199 70 199 70 199 97.5 c 128
 199 125 199 125 201.5 152 c 128
 204 179 204 179 213 203.5 c 128
 222 228 222 228 242 247 c 0
 257 261 257 261 273.5 269.5 c 128
 290 278 290 278 304.5 282.5 c 128
 319 287 319 287 330 288 c 128
 341 289 341 289 345 289 c 1
 342 289 342 289 331.5 289.5 c 128
 321 290 321 290 306.5 294 c 128
 292 298 292 298 275 306.5 c 128
 258 315 258 315 242 330 c 0
 222 349 222 349 213 373.5 c 128
 204 398 204 398 201.5 425 c 128
 199 452 199 452 199 479.5 c 128
 199 507 199 507 198.5 532.5 c 128
 198 558 198 558 193 579 c 128
 188 600 188 600 173 614 c 0
 162 625 162 625 146 630 c 128
 130 635 130 635 115 637 c 0
 98 639 98 639 80 639 c 1
 80 694 l 1
 99 694 l 2
 112 694 112 694 129.5 693.5 c 128
 147 693 147 693 167.5 691 c 128
 188 689 188 689 208 684.5 c 128
 228 680 228 680 246 673 c 128
 264 666 264 666 276 655 c 0
 298 635 298 635 308 608 c 128
 318 581 318 581 321 551 c 128
 324 521 324 521 323.5 490 c 128
 323 459 323 459 323.5 431 c 128
 324 403 324 403 328.5 379.5 c 128
 333 356 333 356 347 342 c 256
 361 328 361 328 380 322 c 128
 399 316 399 316 416 315 c 0
 435 314 435 314 455 316 c 1
 454 262 l 1
EndSplineSet
EndChar

StartChar: asciitilde
Encoding: 94 126 97
Width: 833
GlyphClass: 1
Flags: W
LayerCount: 2
Fore
SplineSet
747 299 m 1
 717 278 717 278 691 263.5 c 128
 665 249 665 249 642 240.5 c 128
 619 232 619 232 598 228.5 c 128
 577 225 577 225 557 225 c 0
 521 225 521 225 487 235 c 128
 453 245 453 245 419.5 257 c 128
 386 269 386 269 351.5 279 c 128
 317 289 317 289 281 289 c 0
 247 289 247 289 201.5 268 c 128
 156 247 156 247 94 200 c 1
 94 294 l 1
 150 336 150 336 198.5 353 c 128
 247 370 247 370 287 370 c 0
 315 370 315 370 341.5 364 c 128
 368 358 368 358 394 349.5 c 128
 420 341 420 341 445.5 331 c 128
 471 321 471 321 497 314 c 0
 512 310 512 310 527.5 307.5 c 128
 543 305 543 305 558 305 c 0
 574 305 574 305 592.5 308.5 c 128
 611 312 611 312 634 322 c 128
 657 332 657 332 685 349 c 128
 713 366 713 366 748 392 c 1
 747 299 l 1
EndSplineSet
EndChar

StartChar: quoteleft
Encoding: 167 8216 98
Width: 274
GlyphClass: 1
Flags: W
LayerCount: 2
Fore
SplineSet
215 657 m 1
 210 656 210 656 195 647.5 c 128
 180 639 180 639 163.5 623 c 128
 147 607 147 607 134.5 582 c 128
 122 557 122 557 122 523 c 2
 122 520 l 2
 122 519 122 519 122 518 c 256
 122 517 122 517 122 516 c 1
 181 516 l 1
 186 509 186 509 190 501 c 0
 193 494 193 494 196 484 c 128
 199 474 199 474 199 463 c 0
 199 446 199 446 193.5 433 c 128
 188 420 188 420 178 411 c 128
 168 402 168 402 155 397.5 c 128
 142 393 142 393 127 393 c 0
 107 393 107 393 90.5 401 c 128
 74 409 74 409 62.5 423 c 128
 51 437 51 437 45 456 c 128
 39 475 39 475 39 496 c 0
 39 526 39 526 46 551 c 128
 53 576 53 576 64 596 c 128
 75 616 75 616 89.5 631.5 c 128
 104 647 104 647 119 658 c 0
 155 685 155 685 200 700 c 1
 215 657 l 1
EndSplineSet
EndChar

StartChar: quoteright
Encoding: 168 8217 99
Width: 274
GlyphClass: 1
Flags: W
LayerCount: 2
Fore
SplineSet
237 590 m 1
 237 560 237 560 230 535 c 128
 223 510 223 510 212 490 c 128
 201 470 201 470 186.5 454.5 c 128
 172 439 172 439 157 428 c 0
 121 401 121 401 76 387 c 1
 61 425 l 1
 90 441 90 441 109.5 457 c 128
 129 473 129 473 140 489.5 c 128
 151 506 151 506 154.5 523.5 c 128
 158 541 158 541 156 559 c 1
 156 559 156 559 156 560 c 128
 156 561 156 561 156 562 c 256
 156 563 156 563 156 565 c 1
 98 565 l 1
 93 571 93 571 89 579 c 0
 86 586 86 586 83.5 596 c 128
 81 606 81 606 81 617 c 0
 81 632 81 632 85 645 c 128
 89 658 89 658 98 667.5 c 128
 107 677 107 677 120.5 682 c 128
 134 687 134 687 152 687 c 0
 172 687 172 687 188.5 679 c 128
 205 671 205 671 216.5 657.5 c 128
 228 644 228 644 234.5 625 c 128
 241 606 241 606 237 590 c 1
EndSplineSet
EndChar

StartChar: quotedblleft
Encoding: 169 8220 100
Width: 502
GlyphClass: 1
Flags: W
LayerCount: 2
Fore
SplineSet
443 657 m 1
 416 646 416 646 395 628 c 0
 386 621 386 621 377.5 611 c 128
 369 601 369 601 362.5 588.5 c 128
 356 576 356 576 352 561 c 128
 348 546 348 546 348 529 c 2
 348 512 l 1
 407 512 l 1
 412 505 412 505 416 497 c 0
 419 490 419 490 422 481 c 128
 425 472 425 472 425 463 c 0
 425 446 425 446 419.5 432.5 c 128
 414 419 414 419 404.5 409.5 c 128
 395 400 395 400 382 395 c 128
 369 390 369 390 354 390 c 0
 332 390 332 390 315.5 399 c 128
 299 408 299 408 288 423 c 128
 277 438 277 438 272 457.5 c 128
 267 477 267 477 267 497 c 0
 267 525 267 525 274 549 c 128
 281 573 281 573 292 592.5 c 128
 303 612 303 612 317.5 627 c 128
 332 642 332 642 347 653 c 0
 382 680 382 680 427 696 c 1
 443 657 l 1
219 659 m 1
 201 649 201 649 183.5 637 c 128
 166 625 166 625 153 609.5 c 128
 140 594 140 594 132 573.5 c 128
 124 553 124 553 124 526 c 0
 124 520 124 520 124 519 c 256
 124 518 124 518 124 518 c 1
 183 518 l 1
 188 513 188 513 192 506 c 0
 195 500 195 500 198 490 c 128
 201 480 201 480 201 466 c 0
 201 433 201 433 181 414 c 128
 161 395 161 395 130 395 c 0
 109 395 109 395 92.5 403.5 c 128
 76 412 76 412 65 426 c 128
 54 440 54 440 48 458.5 c 128
 42 477 42 477 42 497 c 0
 42 527 42 527 49 552 c 128
 56 577 56 577 67 597 c 128
 78 617 78 617 92.5 632.5 c 128
 107 648 107 648 122 659 c 0
 157 686 157 686 202 701 c 1
 219 659 l 1
EndSplineSet
EndChar

StartChar: quotedblright
Encoding: 170 8221 101
Width: 501
GlyphClass: 1
Flags: W
LayerCount: 2
Fore
SplineSet
238 584 m 1
 238 555 238 555 231 531.5 c 128
 224 508 224 508 213 488.5 c 128
 202 469 202 469 187.5 454 c 128
 173 439 173 439 158 428 c 0
 122 401 122 401 77 386 c 1
 61 424 l 1
 87 435 87 435 107 453 c 0
 115 460 115 460 123.5 470 c 128
 132 480 132 480 138.5 492 c 128
 145 504 145 504 149 519 c 128
 153 534 153 534 153 551 c 2
 153 568 l 1
 94 568 l 1
 89 574 89 574 85 582 c 0
 82 588 82 588 79.5 597.5 c 128
 77 607 77 607 77 616 c 0
 77 633 77 633 82.5 646.5 c 128
 88 660 88 660 97.5 670 c 128
 107 680 107 680 120 685 c 128
 133 690 133 690 148 690 c 0
 170 690 170 690 186.5 681 c 128
 203 672 203 672 214 657 c 128
 225 642 225 642 230 622.5 c 128
 235 603 235 603 238 584 c 1
461 589 m 1
 461 559 461 559 454 534 c 128
 447 509 447 509 436 488.5 c 128
 425 468 425 468 410.5 452.5 c 128
 396 437 396 437 381 426 c 0
 345 399 345 399 300 385 c 1
 284 422 l 1
 303 432 303 432 320.5 444 c 128
 338 456 338 456 351.5 472 c 128
 365 488 365 488 373 508.5 c 128
 381 529 381 529 381 556 c 0
 381 558 381 558 381 559.5 c 128
 381 561 381 561 381 562 c 256
 381 563 381 563 381 563 c 1
 321 563 l 1
 316 567 316 567 312 575 c 0
 309 581 309 581 306.5 591.5 c 128
 304 602 304 602 304 616 c 0
 304 632 304 632 309.5 644.5 c 128
 315 657 315 657 324.5 666 c 128
 334 675 334 675 347 679.5 c 128
 360 684 360 684 375 684 c 0
 396 684 396 684 412.5 675.5 c 128
 429 667 429 667 440 653 c 128
 451 639 451 639 457 620.5 c 128
 463 602 463 602 461 589 c 1
EndSplineSet
EndChar

StartChar: u0B83
Encoding: 99 2947 102
Width: 712
GlyphClass: 1
Flags: W
LayerCount: 2
Fore
SplineSet
376 534 m 0
 376 498 376 498 350.5 471 c 128
 325 444 325 444 288 444 c 256
 251 444 251 444 224.5 470.5 c 128
 198 497 198 497 198 534 c 0
 198 570 198 570 224.5 596.5 c 128
 251 623 251 623 288 623 c 0
 324 623 324 623 350.5 596.5 c 128
 377 570 377 570 376 534 c 0
578 92 m 0
 578 56 578 56 551.5 29.5 c 128
 525 3 525 3 489 3 c 256
 453 3 453 3 426 28.5 c 128
 399 54 399 54 399 91 c 0
 399 127 399 127 425.5 155 c 128
 452 183 452 183 489 183 c 0
 525 183 525 183 551.5 155 c 128
 578 127 578 127 578 92 c 0
177 91 m 256
 177 55 177 55 150.5 28.5 c 128
 124 2 124 2 87 2 c 0
 51 2 51 2 24.5 28.5 c 128
 -2 55 -2 55 -2 91 c 256
 -2 127 -2 127 24.5 155 c 128
 51 183 51 183 87 183 c 0
 122 183 122 183 149.5 155 c 128
 177 127 177 127 177 91 c 256
EndSplineSet
EndChar

StartChar: u0B85
Encoding: 100 2949 103
Width: 1141
GlyphClass: 1
Flags: W
LayerCount: 2
Fore
SplineSet
1006 -106 m 1
 878 -106 l 1
 878 179 l 1
 768 179 l 1
 712 93 712 93 608 45 c 128
 504 -3 504 -3 374 -3 c 0
 215 -3 215 -3 118 58 c 0
 50 101 50 101 7 177 c 0
 1 188 1 188 1 203 c 0
 1 221 1 221 14.5 235 c 128
 28 249 28 249 57 249 c 2
 677 249 l 1
 710 313 710 313 710 380 c 0
 710 437 710 437 687 472.5 c 128
 664 508 664 508 620 529 c 1
 643 493 643 493 643 430 c 0
 643 362 643 362 611 323 c 0
 574 277 574 277 493 277 c 0
 423 277 423 277 384.5 327 c 128
 346 377 346 377 346 452 c 256
 346 527 346 527 397 578 c 128
 448 629 448 629 539 629 c 0
 670 629 670 629 746 557 c 128
 822 485 822 485 822 352 c 0
 822 301 822 301 807 248 c 1
 881 248 l 1
 881 630 l 1
 1009 630 l 1
 1006 -106 l 1
539 441 m 0
 539 477 539 477 526 502.5 c 128
 513 528 513 528 495 537 c 1
 463 542 463 542 441 514 c 128
 419 486 419 486 419 449 c 256
 419 412 419 412 437.5 392 c 128
 456 372 456 372 479 372 c 0
 507 372 507 372 523 393.5 c 128
 539 415 539 415 539 441 c 0
624 176 m 1
 98 176 l 2
 90 176 90 176 86 173.5 c 128
 82 171 82 171 84 167 c 0
 116 123 116 123 174 98 c 0
 245 68 245 68 348 68 c 0
 520 68 520 68 624 176 c 1
EndSplineSet
EndChar

StartChar: u0B86
Encoding: 101 2950 104
Width: 1391
GlyphClass: 1
Flags: W
LayerCount: 2
Fore
SplineSet
1257 71 m 1
 1257 -129 1257 -129 1129 -239 c 0
 1008 -344 1008 -344 805 -344 c 0
 623 -344 623 -344 523 -294 c 128
 423 -244 423 -244 423 -156 c 0
 423 -94 423 -94 476.5 -60.5 c 128
 530 -27 530 -27 608 -27 c 0
 664 -27 664 -27 716.5 -47 c 128
 769 -67 769 -67 809 -102 c 1
 783 -148 l 1
 744 -118 744 -118 696.5 -103.5 c 128
 649 -89 649 -89 602 -89 c 0
 552 -89 552 -89 523.5 -106.5 c 128
 495 -124 495 -124 495 -156 c 0
 495 -219 495 -219 581 -249 c 0
 649 -272 649 -272 762 -272 c 0
 924 -272 924 -272 1026.5 -175 c 128
 1129 -78 1129 -78 1129 63 c 0
 1129 139 1129 139 1100.5 178 c 128
 1072 217 1072 217 1035 217 c 0
 1020 217 1020 217 1008 209 c 1
 1008 -108 l 1
 880 -108 l 1
 880 177 l 1
 770 177 l 1
 714 91 714 91 610 43 c 128
 506 -5 506 -5 376 -5 c 0
 217 -5 217 -5 120 56 c 0
 52 99 52 99 9 175 c 0
 3 186 3 186 3 201 c 0
 3 219 3 219 16.5 233 c 128
 30 247 30 247 59 247 c 2
 679 247 l 1
 712 311 712 311 712 378 c 0
 712 435 712 435 689 470.5 c 128
 666 506 666 506 622 527 c 1
 645 491 645 491 645 428 c 0
 645 360 645 360 613 321 c 0
 576 275 576 275 495 275 c 0
 425 275 425 275 386.5 325 c 128
 348 375 348 375 348 450 c 256
 348 525 348 525 399 576 c 128
 450 627 450 627 541 627 c 0
 672 627 672 627 748 555 c 128
 824 483 824 483 824 350 c 0
 824 299 824 299 809 246 c 1
 883 246 l 1
 883 628 l 1
 1011 628 l 1
 1011 285 l 1
 1039 301 1039 301 1076 301 c 0
 1151 301 1151 301 1202 243 c 0
 1259 178 1259 178 1257 71 c 1
539 439 m 0
 539 475 539 475 526 500.5 c 128
 513 526 513 526 495 535 c 1
 463 540 463 540 441 512 c 128
 419 484 419 484 419 447 c 256
 419 410 419 410 437.5 390 c 128
 456 370 456 370 479 370 c 0
 507 370 507 370 523 391.5 c 128
 539 413 539 413 539 439 c 0
624 174 m 1
 98 174 l 2
 90 174 90 174 86 171.5 c 128
 82 169 82 169 84 165 c 0
 116 121 116 121 174 96 c 0
 245 66 245 66 348 66 c 0
 520 66 520 66 624 174 c 1
EndSplineSet
EndChar

StartChar: u0B87
Encoding: 102 2951 105
Width: 1079
GlyphClass: 1
Flags: W
LayerCount: 2
Fore
SplineSet
944 344 m 1
 944 196 944 196 902 47 c 0
 875 -51 875 -51 836 -130 c 1
 776 -105 l 1
 812 -37 812 -37 837 56 c 0
 872 183 872 183 872 313 c 0
 872 523 872 523 756.5 648 c 128
 641 773 641 773 460 773 c 0
 294 773 294 773 182.5 679.5 c 128
 71 586 71 586 71 448 c 0
 71 391 71 391 88.5 329 c 128
 106 267 106 267 141 203 c 1
 205 235 205 235 275.5 251.5 c 128
 346 268 346 268 417 268 c 0
 436 268 436 268 466.5 265.5 c 128
 497 263 497 263 518 261 c 1
 530 310 530 310 530 356 c 0
 530 430 530 430 508 472 c 128
 486 514 486 514 440 535 c 1
 463 496 463 496 463 435 c 0
 463 368 463 368 430 328 c 0
 391 282 391 282 313 282 c 0
 245 282 245 282 206 333 c 128
 167 384 167 384 167 458 c 0
 167 535 167 535 216.5 585 c 128
 266 635 266 635 358 635 c 0
 492 635 492 635 568 563 c 128
 644 491 644 491 644 358 c 0
 644 294 644 294 628 233 c 1
 700 205 700 205 739 164 c 128
 778 123 778 123 778 65 c 0
 778 -27 778 -27 709 -74.5 c 128
 640 -122 640 -122 524 -122 c 0
 478 -122 478 -122 438.5 -114.5 c 128
 399 -107 399 -107 356 -91 c 1
 274 -123 274 -123 191 -123 c 0
 103 -123 103 -123 55 -88 c 0
 1 -49 1 -49 1 28 c 0
 1 68 1 68 21 101.5 c 128
 41 135 41 135 80 165 c 1
 40 237 40 237 20.5 311.5 c 128
 1 386 1 386 1 455 c 0
 1 665 1 665 139 785 c 0
 267 897 267 897 463 897 c 0
 684 897 684 897 816 750 c 128
 948 603 948 603 944 344 c 1
362 444 m 1
 362 480 362 480 349 506.5 c 128
 336 533 336 533 318 541 c 1
 286 546 286 546 265 519 c 128
 244 492 244 492 244 453 c 0
 244 417 244 417 262 396 c 128
 280 375 280 375 303 375 c 0
 329 375 329 375 345 396.5 c 128
 361 418 361 418 362 444 c 1
660 63 m 0
 660 85 660 85 645 107 c 128
 630 129 630 129 604 145 c 1
 575 85 575 85 536 37.5 c 128
 497 -10 497 -10 447 -46 c 1
 466 -51 466 -51 484.5 -52 c 128
 503 -53 503 -53 526 -53 c 0
 590 -53 590 -53 625 -19.5 c 128
 660 14 660 14 660 63 c 0
495 189 m 1
 458 197 458 197 417 197 c 0
 298 197 298 197 185 137 c 1
 199 119 199 119 208 108 c 128
 217 97 217 97 229 86 c 1
 282 31 282 31 339 -1 c 1
 388 31 388 31 429 80.5 c 128
 470 130 470 130 495 189 c 1
259 -40 m 1
 230 -18 230 -18 209 -2 c 0
 183 19 183 19 164 41 c 1
 122 98 l 1
 73 58 73 58 73 19 c 0
 73 -13 73 -13 105 -32.5 c 128
 137 -52 137 -52 186 -52 c 0
 225 -52 225 -52 259 -40 c 1
EndSplineSet
EndChar

StartChar: u0B88
Encoding: 103 2952 106
Width: 721
GlyphClass: 1
Flags: W
LayerCount: 2
Fore
SplineSet
585 313 m 256
 585 285 585 285 564 263 c 128
 543 241 543 241 514 241 c 0
 484 241 484 241 463.5 261.5 c 128
 443 282 443 282 443 312 c 0
 443 341 443 341 463.5 363 c 128
 484 385 484 385 514 385 c 0
 543 385 543 385 564 363 c 128
 585 341 585 341 585 313 c 256
543 556 m 1
 408 556 l 1
 408 -6 l 1
 282 -6 l 1
 282 556 l 1
 70 556 l 1
 70 -6 l 1
 -2 -6 l 1
 -2 631 l 1
 545 631 l 1
 543 556 l 1
249 312 m 256
 249 284 249 284 228 262 c 128
 207 240 207 240 178 240 c 0
 146 240 146 240 125.5 260.5 c 128
 105 281 105 281 105 311 c 0
 105 340 105 340 125.5 362 c 128
 146 384 146 384 178 384 c 0
 207 384 207 384 228 362 c 128
 249 340 249 340 249 312 c 256
EndSplineSet
EndChar

StartChar: u0B89
Encoding: 104 2953 107
Width: 1115
GlyphClass: 1
Flags: W
LayerCount: 2
Fore
SplineSet
1006 -4 m 1
 116 -4 l 2
 59 -4 59 -4 26.5 25 c 128
 -6 54 -6 54 -6 94 c 256
 -6 134 -6 134 25.5 163 c 128
 57 192 57 192 117 192 c 2
 287 192 l 2
 344 192 344 192 380 246 c 0
 412 293 412 293 412 354 c 0
 412 452 412 452 373 499 c 0
 329 553 329 553 230 553 c 0
 187 553 187 553 149.5 536.5 c 128
 112 520 112 520 90 492 c 1
 122 511 122 511 161 511 c 0
 222 511 222 511 261 465 c 128
 300 419 300 419 300 355 c 0
 300 284 300 284 258.5 243.5 c 128
 217 203 217 203 149 203 c 0
 70 203 70 203 31 268 c 0
 -1 322 -1 322 -1 414 c 0
 -1 497 -1 497 64 558 c 0
 135 625 135 625 251 625 c 0
 389 625 389 625 464 550 c 0
 535 479 535 479 535 358 c 0
 535 109 535 109 289 109 c 2
 155 109 l 2
 136 109 136 109 126 101.5 c 128
 116 94 116 94 116 83 c 0
 116 57 116 57 155 57 c 2
 1008 57 l 2
 1061 57 1061 57 1061 24 c 0
 1061 12 1061 12 1048 2.5 c 128
 1035 -7 1035 -7 1006 -4 c 1
188 379 m 1
 184 398 184 398 168 410.5 c 128
 152 423 152 423 133 423 c 0
 117 423 117 423 101 414 c 128
 85 405 85 405 73 387 c 1
 73 344 73 344 90.5 317 c 128
 108 290 108 290 138 290 c 0
 163 290 163 290 177.5 311.5 c 128
 192 333 192 333 192 358 c 0
 192 365 192 365 188 379 c 1
EndSplineSet
EndChar

StartChar: u0B8A
Encoding: 105 2954 108
Width: 1798
GlyphClass: 1
Flags: W
LayerCount: 2
Fore
SplineSet
1664 558 m 1
 1529 558 l 1
 1529 78 l 1
 1402 78 l 1
 1402 558 l 1
 1272 558 l 1
 1272 78 l 1
 1145 78 l 1
 1145 433 l 2
 1145 488 1145 488 1097 522 c 128
 1049 556 1049 556 965 556 c 0
 888 556 888 556 823 524 c 0
 766 496 766 496 741 456 c 1
 784 479 784 479 845 479 c 0
 923 479 923 479 974.5 424.5 c 128
 1026 370 1026 370 1026 284 c 0
 1026 188 1026 188 985.5 133 c 128
 945 78 945 78 867 78 c 0
 769 78 769 78 709.5 152 c 128
 650 226 650 226 650 354 c 256
 650 482 650 482 734 556 c 128
 818 630 818 630 952 630 c 0
 1051 630 1051 630 1111.5 610.5 c 128
 1172 591 1172 591 1204 561 c 1
 1204 631 l 1
 1664 631 l 1
 1664 558 l 1
1603 -6 m 1
 117 -6 l 2
 60 -6 60 -6 27.5 23 c 128
 -5 52 -5 52 -5 92 c 256
 -5 132 -5 132 26.5 161 c 128
 58 190 58 190 118 190 c 2
 288 190 l 2
 345 190 345 190 381 244 c 0
 413 291 413 291 413 352 c 0
 413 450 413 450 374 497 c 0
 330 551 330 551 231 551 c 0
 188 551 188 551 150.5 534.5 c 128
 113 518 113 518 91 490 c 1
 123 509 123 509 162 509 c 0
 223 509 223 509 262 463 c 128
 301 417 301 417 301 353 c 0
 301 282 301 282 259.5 241.5 c 128
 218 201 218 201 150 201 c 0
 71 201 71 201 32 266 c 0
 0 320 0 320 0 412 c 0
 0 495 0 495 65 556 c 0
 136 623 136 623 252 623 c 0
 390 623 390 623 465 548 c 0
 536 477 536 477 536 356 c 0
 536 107 536 107 290 107 c 2
 156 107 l 2
 137 107 137 107 127 99.5 c 128
 117 92 117 92 117 81 c 0
 117 55 117 55 156 55 c 2
 1606 55 l 2
 1660 55 1660 55 1660 22 c 0
 1660 -10 1660 -10 1603 -6 c 1
896 281 m 0
 896 320 896 320 871 352 c 128
 846 384 846 384 810 384 c 0
 778 384 778 384 754.5 366.5 c 128
 731 349 731 349 726 326 c 1
 726 276 726 276 751.5 229.5 c 128
 777 183 777 183 820 183 c 0
 857 183 857 183 876.5 211.5 c 128
 896 240 896 240 896 281 c 0
189 377 m 1
 185 396 185 396 169 408.5 c 128
 153 421 153 421 134 421 c 0
 118 421 118 421 102 412 c 128
 86 403 86 403 74 385 c 1
 74 342 74 342 91.5 315 c 128
 109 288 109 288 139 288 c 0
 164 288 164 288 178.5 309.5 c 128
 193 331 193 331 193 356 c 0
 193 363 193 363 189 377 c 1
EndSplineSet
EndChar

StartChar: u0B8E
Encoding: 106 2958 109
Width: 890
GlyphClass: 1
Flags: W
LayerCount: 2
Fore
SplineSet
756 558 m 1
 619 558 l 1
 619 -4 l 1
 492 -4 l 1
 492 558 l 1
 312 558 l 2
 212 558 212 558 148 504 c 0
 94 458 94 458 79 391 c 1
 128 423 128 423 191 423 c 0
 276 423 276 423 329 366 c 128
 382 309 382 309 382 218 c 0
 382 116 382 116 341.5 56.5 c 128
 301 -3 301 -3 217 -3 c 0
 114 -3 114 -3 57 73.5 c 128
 0 150 0 150 0 291 c 0
 0 449 0 449 81.5 540.5 c 128
 163 632 163 632 301 632 c 2
 758 632 l 1
 756 558 l 1
254 215 m 0
 254 256 254 256 225.5 293 c 128
 197 330 197 330 162 330 c 256
 127 330 127 330 103.5 310.5 c 128
 80 291 80 291 72 262 c 1
 72 191 72 191 97 146.5 c 128
 122 102 122 102 175 102 c 0
 214 102 214 102 236 138 c 0
 254 168 254 168 254 215 c 0
EndSplineSet
EndChar

StartChar: u0B8F
Encoding: 107 2959 110
Width: 890
GlyphClass: 1
Flags: W
LayerCount: 2
Fore
SplineSet
756 558 m 1
 619 558 l 1
 618 3 l 1
 387 -191 l 1
 270 -193 l 1
 492 15 l 1
 492 559 l 1
 312 559 l 2
 212 559 212 559 148 505 c 0
 94 459 94 459 79 392 c 1
 128 424 128 424 191 424 c 0
 276 424 276 424 329 367 c 128
 382 310 382 310 382 219 c 0
 382 117 382 117 341.5 57.5 c 128
 301 -2 301 -2 217 -2 c 0
 114 -2 114 -2 57 74.5 c 128
 0 151 0 151 0 292 c 0
 0 450 0 450 81.5 541.5 c 128
 163 633 163 633 301 633 c 2
 758 633 l 1
 756 558 l 1
254 216 m 0
 254 257 254 257 225.5 294 c 128
 197 331 197 331 162 331 c 256
 127 331 127 331 103.5 311.5 c 128
 80 292 80 292 72 263 c 1
 72 192 72 192 97 147.5 c 128
 122 103 122 103 175 103 c 0
 214 103 214 103 236 139 c 0
 254 169 254 169 254 216 c 0
EndSplineSet
EndChar

StartChar: u0B90
Encoding: 108 2960 111
Width: 901
GlyphClass: 1
Flags: W
LayerCount: 2
Fore
SplineSet
767 404 m 1
 767 334 767 334 744 277 c 0
 715 206 715 206 658 176 c 0
 587 140 587 140 431 132 c 128
 275 124 275 124 222 103 c 1
 196 95 196 95 174 66 c 0
 146 29 146 29 146 -24 c 0
 146 -85 146 -85 170.5 -124.5 c 128
 195 -164 195 -164 245 -164 c 0
 285 -164 285 -164 317.5 -130 c 128
 350 -96 350 -96 350 -63 c 2
 350 36 l 1
 470 36 l 1
 470 -60 l 2
 470 -99 470 -99 496 -129 c 0
 528 -166 528 -166 578 -166 c 0
 621 -166 621 -166 642 -137.5 c 128
 663 -109 663 -109 663 -65 c 0
 663 12 663 12 620 65 c 1
 705 104 l 1
 751 37 751 37 751 -49 c 0
 751 -130 751 -130 709 -180 c 0
 662 -237 662 -237 570 -237 c 0
 517 -237 517 -237 479.5 -219.5 c 128
 442 -202 442 -202 421 -174 c 1
 398 -202 398 -202 355.5 -219.5 c 128
 313 -237 313 -237 260 -237 c 0
 144 -237 144 -237 85 -179 c 128
 26 -121 26 -121 26 -22 c 0
 26 53 26 53 62 102 c 0
 92 144 92 144 145 163 c 1
 220 192 220 192 439 208 c 0
 531 215 531 215 578 238 c 0
 617 256 617 256 635 324 c 0
 647 370 647 370 647 417 c 0
 647 480 647 480 620.5 519.5 c 128
 594 559 594 559 537 559 c 0
 503 559 503 559 484 525 c 0
 470 500 470 500 470 471 c 2
 470 290 l 1
 350 290 l 1
 350 464 l 2
 350 497 350 497 327 523 c 0
 294 559 294 559 233 559 c 0
 190 559 190 559 152.5 542.5 c 128
 115 526 115 526 93 498 c 1
 125 517 125 517 164 517 c 0
 225 517 225 517 264 471 c 128
 303 425 303 425 303 361 c 0
 303 290 303 290 261.5 249.5 c 128
 220 209 220 209 152 209 c 0
 73 209 73 209 34 274 c 0
 2 328 2 328 2 420 c 0
 2 506 2 506 66 566 c 0
 136 631 136 631 255 631 c 0
 326 631 326 631 366.5 614.5 c 128
 407 598 407 598 426 569 c 1
 444 597 444 597 469 612 c 0
 502 631 502 631 553 631 c 0
 659 631 659 631 714 571.5 c 128
 769 512 769 512 767 404 c 1
188 381 m 1
 184 400 184 400 168 412.5 c 128
 152 425 152 425 133 425 c 0
 117 425 117 425 101 416 c 128
 85 407 85 407 73 389 c 1
 73 346 73 346 90.5 319 c 128
 108 292 108 292 138 292 c 0
 163 292 163 292 177.5 313.5 c 128
 192 335 192 335 192 360 c 0
 192 367 192 367 188 381 c 1
EndSplineSet
EndChar

StartChar: u0B92
Encoding: 109 2962 112
Width: 929
GlyphClass: 1
Flags: W
LayerCount: 2
Fore
SplineSet
795 296 m 0
 795 190 795 190 748.5 131 c 128
 702 72 702 72 623 72 c 0
 576 72 576 72 549 89.5 c 128
 522 107 522 107 508 141 c 1
 508 90 508 90 550 69 c 0
 583 53 583 53 648 53 c 2
 764 53 l 1
 764 -24 l 1
 675 -24 l 2
 629 -24 629 -24 608 -82 c 1
 590 -142 590 -142 574 -203 c 1
 551 -270 551 -270 499.5 -305.5 c 128
 448 -341 448 -341 350 -341 c 0
 237 -341 237 -341 172 -287.5 c 128
 107 -234 107 -234 107 -153 c 0
 107 -81 107 -81 144.5 -35 c 128
 182 11 182 11 250 11 c 1
 273 -70 l 1
 180 -70 180 -70 180 -153 c 0
 180 -202 180 -202 227.5 -235.5 c 128
 275 -269 275 -269 360 -269 c 0
 431 -269 431 -269 457 -214 c 0
 465 -196 465 -196 483 -100 c 0
 491 -61 491 -61 501.5 -38 c 128
 512 -15 512 -15 534 1 c 1
 491 20 491 20 470.5 61 c 128
 450 102 450 102 450 153 c 0
 450 223 450 223 482 290 c 128
 514 357 514 357 554 371 c 1
 604 346 l 1
 582 328 582 328 569 296 c 128
 556 264 556 264 556 234 c 0
 556 206 556 206 567 186.5 c 128
 578 167 578 167 599 167 c 0
 638 167 638 167 652.5 198 c 128
 667 229 667 229 667 292 c 0
 667 404 667 404 577 480 c 128
 487 556 487 556 378 556 c 0
 271 556 271 556 195.5 520 c 128
 120 484 120 484 88 407 c 1
 125 428 125 428 174 428 c 0
 252 428 252 428 299.5 380.5 c 128
 347 333 347 333 347 259 c 0
 347 175 347 175 308 126.5 c 128
 269 78 269 78 192 78 c 0
 103 78 103 78 50.5 143.5 c 128
 -2 209 -2 209 -2 301 c 0
 -2 455 -2 455 91 539 c 0
 193 631 193 631 390 631 c 0
 588 631 588 631 697 529 c 0
 795 437 795 437 795 296 c 0
219 257 m 1
 219 293 219 293 199.5 321 c 128
 180 349 180 349 148 349 c 0
 87 349 87 349 71 296 c 1
 71 253 71 253 95.5 214 c 128
 120 175 120 175 163 175 c 0
 191 175 191 175 205.5 199.5 c 128
 220 224 220 224 219 257 c 1
EndSplineSet
EndChar

StartChar: u0B93
Encoding: 110 2963 113
Width: 929
GlyphClass: 1
Flags: W
LayerCount: 2
Fore
SplineSet
795 296 m 1
 795 190 795 190 748.5 131 c 128
 702 72 702 72 623 72 c 0
 576 72 576 72 548 90.5 c 128
 520 109 520 109 508 142 c 1
 508 92 508 92 550 70 c 0
 585 52 585 52 649 52 c 2
 765 52 l 1
 765 -25 l 1
 676 -25 l 2
 630 -25 630 -25 609 -83 c 1
 591 -143 591 -143 575 -204 c 1
 552 -271 552 -271 500.5 -306.5 c 128
 449 -342 449 -342 351 -342 c 0
 240 -342 240 -342 174.5 -288.5 c 128
 109 -235 109 -235 109 -154 c 0
 109 -82 109 -82 146.5 -38 c 128
 184 6 184 6 256 6 c 0
 327 6 327 6 368 -28.5 c 128
 409 -63 409 -63 409 -112 c 0
 409 -142 409 -142 397.5 -170.5 c 128
 386 -199 386 -199 357 -225 c 1
 286 -186 l 1
 304 -165 304 -165 313 -147 c 128
 322 -129 322 -129 322 -117 c 0
 322 -98 322 -98 303.5 -84 c 128
 285 -70 285 -70 259 -70 c 0
 184 -70 184 -70 184 -153 c 0
 184 -202 184 -202 231.5 -235.5 c 128
 279 -269 279 -269 364 -269 c 0
 452 -269 452 -269 475 -174 c 1
 484 -126 484 -126 493 -77 c 0
 498 -50 498 -50 507.5 -31.5 c 128
 517 -13 517 -13 536 1 c 1
 493 20 493 20 472.5 60.5 c 128
 452 101 452 101 452 154 c 0
 452 224 452 224 484 291 c 128
 516 358 516 358 556 372 c 1
 606 347 l 1
 584 329 584 329 571 297 c 128
 558 265 558 265 558 235 c 0
 558 207 558 207 569 187.5 c 128
 580 168 580 168 601 168 c 0
 640 168 640 168 654.5 199 c 128
 669 230 669 230 669 293 c 0
 669 405 669 405 579 481 c 128
 489 557 489 557 380 557 c 0
 273 557 273 557 197.5 521 c 128
 122 485 122 485 90 408 c 1
 127 429 127 429 176 429 c 0
 254 429 254 429 301.5 381.5 c 128
 349 334 349 334 349 260 c 0
 349 176 349 176 310 127.5 c 128
 271 79 271 79 194 79 c 0
 105 79 105 79 52.5 144.5 c 128
 0 210 0 210 0 302 c 0
 0 456 0 456 93 540 c 0
 195 632 195 632 392 632 c 0
 590 632 590 632 699 530 c 0
 797 438 797 438 795 296 c 1
221 258 m 1
 221 294 221 294 201.5 322 c 128
 182 350 182 350 150 350 c 0
 89 350 89 350 73 297 c 1
 73 254 73 254 97.5 215 c 128
 122 176 122 176 165 176 c 0
 193 176 193 176 207.5 200.5 c 128
 222 225 222 225 221 258 c 1
EndSplineSet
EndChar

StartChar: u0B95
Encoding: 112 2965 115
Width: 862
GlyphClass: 1
Flags: W
LayerCount: 2
Fore
SplineSet
728 173 m 1
 728 88 728 88 679 42 c 128
 630 -4 630 -4 549 -4 c 0
 485 -4 485 -4 449.5 12.5 c 128
 414 29 414 29 399 57 c 1
 369 32 369 32 323 14 c 128
 277 -4 277 -4 221 -4 c 0
 121 -4 121 -4 63 45 c 0
 0 98 0 98 0 200 c 0
 0 274 0 274 46 324 c 0
 82 363 82 363 122 370 c 1
 122 631 l 1
 588 631 l 1
 588 557 l 1
 453 557 l 1
 453 373 l 1
 586 373 586 373 646 341 c 0
 731 295 731 295 728 173 c 1
327 373 m 1
 327 557 l 1
 196 557 l 1
 196 373 l 1
 327 373 l 1
610 169 m 1
 610 253 610 253 566 281 c 1
 534 300 534 300 455 300 c 1
 455 152 l 2
 455 68 455 68 529 68 c 0
 562 68 562 68 586.5 93.5 c 128
 611 119 611 119 610 169 c 1
329 145 m 2
 329 299 l 1
 164 299 l 2
 124 299 124 299 99.5 265.5 c 128
 75 232 75 232 75 186 c 0
 75 67 75 67 209 67 c 0
 245 67 245 67 287 91.5 c 128
 329 116 329 116 329 145 c 2
EndSplineSet
EndChar

StartChar: u0B95_u0BBF
Encoding: 175 -1 116
Width: 1010
GlyphClass: 1
Flags: W
LayerCount: 2
Fore
SplineSet
876 -4 m 1
 811 -4 l 1
 811 621 l 2
 811 733 811 733 711 805 c 128
 611 877 611 877 460 877 c 0
 263 877 263 877 164 802 c 0
 71 731 71 731 71 605 c 0
 71 556 71 556 84 505 c 128
 97 454 97 454 120 421 c 1
 120 633 l 1
 586 633 l 1
 586 559 l 1
 451 559 l 1
 451 375 l 1
 584 375 584 375 644 343 c 0
 729 297 729 297 729 176 c 0
 729 91 729 91 680 45 c 128
 631 -1 631 -1 550 -1 c 0
 486 -1 486 -1 450.5 15.5 c 128
 415 32 415 32 400 60 c 1
 370 35 370 35 324 17 c 128
 278 -1 278 -1 222 -1 c 0
 122 -1 122 -1 64 48 c 0
 1 101 1 101 1 203 c 0
 1 261 1 261 27 303 c 0
 48 336 48 336 85 358 c 1
 39 402 39 402 19.5 463.5 c 128
 0 525 0 525 0 597 c 0
 0 773 0 773 103 880 c 0
 223 1004 223 1004 460 1004 c 0
 674 1004 674 1004 776 905.5 c 128
 878 807 878 807 878 610 c 2
 876 -4 l 1
325 372 m 1
 325 556 l 1
 194 556 l 1
 194 372 l 1
 325 372 l 1
608 168 m 1
 608 252 608 252 564 280 c 1
 532 299 532 299 453 299 c 1
 453 151 l 2
 453 67 453 67 527 67 c 0
 560 67 560 67 584.5 92.5 c 128
 609 118 609 118 608 168 c 1
327 144 m 2
 327 298 l 1
 162 298 l 2
 122 298 122 298 97.5 264.5 c 128
 73 231 73 231 73 185 c 0
 73 66 73 66 207 66 c 0
 243 66 243 66 285 90.5 c 128
 327 115 327 115 327 144 c 2
EndSplineSet
Ligature2: "sub_ligature_pststaml_0-0 subtable" u0B95 u0BBF
LCarets2: 1 0
EndChar

StartChar: u0B95_u0BC0
Encoding: 176 -1 117
Width: 862
GlyphClass: 1
Flags: W
LayerCount: 2
Fore
SplineSet
728 173 m 0
 728 88 728 88 679 42 c 128
 630 -4 630 -4 549 -4 c 0
 485 -4 485 -4 449.5 12.5 c 128
 414 29 414 29 399 57 c 1
 369 32 369 32 323 14 c 128
 277 -4 277 -4 221 -4 c 0
 121 -4 121 -4 63 45 c 0
 0 98 0 98 0 200 c 0
 0 258 0 258 26 300 c 0
 47 333 47 333 84 355 c 1
 38 399 38 399 18.5 460.5 c 128
 -1 522 -1 522 -1 594 c 0
 -1 790 -1 790 124 912.5 c 128
 249 1035 249 1035 447 1035 c 0
 551 1035 551 1035 618 998 c 0
 710 947 710 947 710 840 c 0
 710 773 710 773 664.5 726.5 c 128
 619 680 619 680 544 680 c 0
 473 680 473 680 430.5 722.5 c 128
 388 765 388 765 388 823 c 0
 388 853 388 853 398.5 881.5 c 128
 409 910 409 910 428 929 c 1
 409 930 l 1
 262 930 262 930 162 823 c 0
 71 725 71 725 71 602 c 0
 71 553 71 553 84 502 c 128
 97 451 97 451 120 418 c 1
 120 630 l 1
 586 630 l 1
 586 556 l 1
 451 556 l 1
 451 372 l 1
 584 372 584 372 644 340 c 0
 729 294 729 294 728 173 c 0
606 823 m 1
 606 858 606 858 583 882.5 c 128
 560 907 560 907 527 907 c 1
 497 902 497 902 478.5 878.5 c 128
 460 855 460 855 460 823 c 0
 460 794 460 794 481 772 c 128
 502 750 502 750 532 750 c 0
 564 750 564 750 585.5 771.5 c 128
 607 793 607 793 606 823 c 1
326 375 m 1
 326 559 l 1
 195 559 l 1
 195 375 l 1
 326 375 l 1
609 171 m 1
 609 255 609 255 565 283 c 1
 533 302 533 302 454 302 c 1
 454 154 l 2
 454 70 454 70 528 70 c 0
 561 70 561 70 585.5 95.5 c 128
 610 121 610 121 609 171 c 1
328 147 m 2
 328 301 l 1
 163 301 l 2
 123 301 123 301 98.5 267.5 c 128
 74 234 74 234 74 188 c 0
 74 69 74 69 208 69 c 0
 244 69 244 69 286 93.5 c 128
 328 118 328 118 328 147 c 2
EndSplineSet
Ligature2: "sub_ligature_pststaml_0-0 subtable" u0B95 u0BC0
LCarets2: 1 0
EndChar

StartChar: u0B95_u0BC1
Encoding: 177 -1 118
Width: 1086
GlyphClass: 2
Flags: W
LayerCount: 2
Fore
SplineSet
951 148 m 1
 951 -47 951 -47 863 -146 c 0
 749 -276 749 -276 469 -276 c 0
 234 -276 234 -276 111 -141 c 1
 -3 -14 -3 -14 -3 211 c 0
 -3 348 -3 348 36 459 c 128
 75 570 75 570 147 635 c 1
 197 593 l 1
 130 526 130 526 99.5 426 c 128
 69 326 69 326 69 208 c 0
 69 19 69 19 170 -92 c 128
 271 -203 271 -203 458 -203 c 0
 670 -203 670 -203 756 -93 c 0
 820 -11 820 -11 820 145 c 0
 820 219 820 219 787 256 c 0
 750 298 750 298 665 298 c 1
 665 150 l 2
 665 100 665 100 605 52 c 0
 534 -5 534 -5 436 -5 c 0
 334 -5 334 -5 276 44 c 0
 214 97 214 97 214 199 c 0
 214 271 214 271 260 321 c 0
 296 360 296 360 336 368 c 1
 336 629 l 1
 803 629 l 1
 803 555 l 1
 666 555 l 1
 666 371 l 1
 810 371 810 371 875 325 c 0
 950 272 950 272 951 148 c 1
539 371 m 1
 539 555 l 1
 408 555 l 1
 408 371 l 1
 539 371 l 1
539 145 m 2
 539 299 l 1
 374 299 l 2
 334 299 334 299 309.5 265.5 c 128
 285 232 285 232 285 186 c 0
 285 128 285 128 320.5 98 c 128
 356 68 356 68 419 68 c 0
 455 68 455 68 497 92.5 c 128
 539 117 539 117 539 145 c 2
EndSplineSet
Ligature2: "sub_ligature_pststaml_6 subtable" u0B95 u0BC1
LCarets2: 1 0
EndChar

StartChar: u0B95_u0BC2.old
Encoding: 97 -1 119
Width: 2695
Flags: HW
LayerCount: 2
Fore
SplineSet
5 407 m 0
 5 652 201 745 266 745 c 1
 266 1292 l 1
 1197 1292 l 1
 1197 1192 l 1
 910 1192 l 1
 910 749 l 1
 1262 749 l 2
 1287 749 1360 733 1376 659 c 1
 1421 732 1545 768 1749 768 c 0
 1921 768 2162 684 2162 437 c 0
 2162 279 2047 167 1949 102 c 1
 2408 102 l 1
 2408 2 l 1
 1654 2 l 1
 1654 102 l 1
 1829 199 1917 305 1917 422 c 0
 1917 557 1806 647 1675 647 c 0
 1522 647 1427 594 1408 520 c 1
 1408 1 l 1
 1193 1 l 1
 1193 646 l 1
 909 646 l 1
 909 305 l 2
 909 146 676 3 450 3 c 0
 188 3 5 131 5 407 c 0
694 749 m 1
 694 1192 l 1
 364 1192 l 1
 364 749 l 1
 694 749 l 1
319 649 m 2
 250 649 105 590 105 384 c 0
 105 199 209 106 417 106 c 0
 547 106 692 209 694 299 c 1
 694 649 l 1
 319 649 l 2
EndSplineSet
Validated: 1
EndChar

StartChar: u0B95_u0BCD
Encoding: 178 -1 120
Width: 862
GlyphClass: 2
Flags: W
LayerCount: 2
Fore
SplineSet
427 820 m 1
 427 783 427 783 400 756 c 128
 373 729 373 729 336 729 c 256
 299 729 299 729 272 756 c 128
 245 783 245 783 245 820 c 256
 245 857 245 857 272 884 c 128
 299 911 299 911 336 911 c 0
 372 911 372 911 400 883 c 128
 428 855 428 855 427 820 c 1
729 172 m 1
 729 87 729 87 680 41 c 128
 631 -5 631 -5 550 -5 c 0
 486 -5 486 -5 450.5 11.5 c 128
 415 28 415 28 400 56 c 1
 370 31 370 31 324 13 c 128
 278 -5 278 -5 222 -5 c 0
 122 -5 122 -5 64 44 c 0
 1 97 1 97 1 199 c 0
 1 273 1 273 47 323 c 0
 83 362 83 362 123 369 c 1
 123 630 l 1
 589 630 l 1
 589 556 l 1
 454 556 l 1
 454 372 l 1
 587 372 587 372 647 340 c 0
 732 294 732 294 729 172 c 1
328 372 m 1
 328 556 l 1
 197 556 l 1
 197 372 l 1
 328 372 l 1
611 168 m 1
 611 252 611 252 567 280 c 1
 535 299 535 299 456 299 c 1
 456 151 l 2
 456 67 456 67 530 67 c 0
 563 67 563 67 587.5 92.5 c 128
 612 118 612 118 611 168 c 1
330 144 m 2
 330 298 l 1
 165 298 l 2
 125 298 125 298 100.5 264.5 c 128
 76 231 76 231 76 185 c 0
 76 66 76 66 210 66 c 0
 246 66 246 66 288 90.5 c 128
 330 115 330 115 330 144 c 2
EndSplineSet
Ligature2: "pstspostbasesubstitution subtable" u0B95 u0BCD
LCarets2: 1 0
EndChar

StartChar: u0B99
Encoding: 113 2969 121
Width: 970
GlyphClass: 1
Flags: W
LayerCount: 2
Fore
SplineSet
835 -4 m 1
 198 -4 l 1
 198 61 l 1
 364 61 l 1
 413 80 413 80 437.5 127.5 c 128
 462 175 462 175 462 233 c 0
 462 279 462 279 437 307 c 128
 412 335 412 335 380 335 c 0
 337 335 337 335 326 291 c 1
 326 171 l 1
 199 171 l 1
 199 557 l 1
 69 557 l 1
 69 -5 l 1
 -3 -5 l 1
 -3 632 l 1
 463 632 l 1
 463 558 l 1
 328 558 l 1
 328 400 l 1
 363 423 363 423 406 423 c 0
 474 423 474 423 525 374 c 0
 583 318 583 318 583 229 c 0
 583 172 583 172 565.5 129 c 128
 548 86 548 86 518 63 c 1
 714 63 l 1
 714 634 l 1
 835 634 l 1
 835 -4 l 1
EndSplineSet
EndChar

StartChar: u0B99_u0BBF
Encoding: 179 -1 122
Width: 1100
GlyphClass: 2
Flags: W
LayerCount: 2
Fore
SplineSet
965 -4 m 1
 898 -4 l 1
 898 694 l 2
 898 780 898 780 863 822 c 128
 828 864 828 864 746 864 c 0
 688 864 688 864 647 827 c 128
 606 790 606 790 606 726 c 0
 606 612 606 612 695 612 c 1
 695 633 l 1
 815 633 l 1
 815 -4 l 1
 199 -4 l 1
 199 61 l 1
 365 61 l 1
 414 80 414 80 438.5 127.5 c 128
 463 175 463 175 463 233 c 0
 463 279 463 279 438 307 c 128
 413 335 413 335 381 335 c 0
 338 335 338 335 327 291 c 1
 327 171 l 1
 200 171 l 1
 200 557 l 1
 70 557 l 1
 70 -5 l 1
 -2 -5 l 1
 -2 632 l 1
 464 632 l 1
 464 558 l 1
 329 558 l 1
 329 400 l 1
 364 423 364 423 407 423 c 0
 475 423 475 423 526 374 c 0
 584 318 584 318 584 229 c 0
 584 172 584 172 566.5 129 c 128
 549 86 549 86 519 63 c 1
 695 63 l 1
 695 538 l 1
 623 538 623 538 577 588 c 1
 527 644 527 644 527 744 c 0
 527 860 527 860 585 922 c 128
 643 984 643 984 749 984 c 0
 863 984 863 984 914.5 913.5 c 128
 966 843 966 843 966 709 c 2
 965 -4 l 1
EndSplineSet
Ligature2: "sub_ligature_pststaml_2 subtable" u0B99 u0BBF
LCarets2: 1 0
EndChar

StartChar: u0B99_u0BC0
Encoding: 180 -1 123
Width: 1096
GlyphClass: 2
Flags: W
LayerCount: 2
Fore
SplineSet
1114 809 m 1
 1114 741 1114 741 1069 695.5 c 128
 1024 650 1024 650 947 650 c 0
 873 650 873 650 832 691 c 128
 791 732 791 732 791 793 c 256
 791 854 791 854 830 900 c 1
 812 900 l 2
 744 900 744 900 699.5 847 c 128
 655 794 655 794 655 729 c 0
 655 675 655 675 672.5 639 c 128
 690 603 690 603 716 595 c 1
 716 634 l 1
 844 634 l 1
 844 -3 l 1
 200 -3 l 1
 200 62 l 1
 366 62 l 1
 415 81 415 81 439.5 128.5 c 128
 464 176 464 176 464 234 c 0
 464 280 464 280 439 308 c 128
 414 336 414 336 382 336 c 0
 339 336 339 336 328 292 c 1
 328 172 l 1
 201 172 l 1
 201 558 l 1
 71 558 l 1
 71 -4 l 1
 -1 -4 l 1
 -1 633 l 1
 465 633 l 1
 465 559 l 1
 330 559 l 1
 330 401 l 1
 365 424 365 424 408 424 c 0
 476 424 476 424 527 375 c 0
 585 319 585 319 585 230 c 0
 585 173 585 173 567.5 130 c 128
 550 87 550 87 520 64 c 1
 716 64 l 1
 716 535 l 1
 659 543 659 543 622 592 c 1
 576 650 576 650 576 746 c 0
 576 879 576 879 671 950 c 0
 748 1007 748 1007 851 1007 c 0
 957 1007 957 1007 1024 970 c 0
 1116 919 1116 919 1114 809 c 1
1010 795 m 1
 1010 828 1010 828 988 851.5 c 128
 966 875 966 875 931 875 c 1
 902 870 902 870 883.5 847 c 128
 865 824 865 824 865 794 c 0
 865 765 865 765 885 742 c 128
 905 719 905 719 935 719 c 256
 965 719 965 719 987 741 c 128
 1009 763 1009 763 1010 795 c 1
EndSplineSet
Ligature2: "sub_ligature_pststaml_4 subtable" u0B99 u0BC0
LCarets2: 1 0
EndChar

StartChar: u0B99_u0BC1
Encoding: 181 -1 124
Width: 970
GlyphClass: 2
Flags: W
LayerCount: 2
Fore
SplineSet
835 -187 m 1
 714 -187 l 1
 714 -4 l 1
 199 -4 l 1
 199 61 l 1
 365 61 l 1
 414 80 414 80 438.5 127.5 c 128
 463 175 463 175 463 233 c 0
 463 279 463 279 438 307 c 128
 413 335 413 335 381 335 c 0
 338 335 338 335 327 291 c 1
 327 171 l 1
 200 171 l 1
 200 557 l 1
 70 557 l 1
 70 -5 l 1
 -2 -5 l 1
 -2 632 l 1
 464 632 l 1
 464 558 l 1
 329 558 l 1
 329 400 l 1
 364 423 364 423 407 423 c 0
 475 423 475 423 526 374 c 0
 584 318 584 318 584 229 c 0
 584 172 584 172 566.5 129 c 128
 549 86 549 86 519 63 c 1
 715 63 l 1
 715 634 l 1
 836 634 l 1
 835 -187 l 1
EndSplineSet
Ligature2: "sub_ligature_pststaml_6 subtable" u0B99 u0BC1
LCarets2: 1 0
EndChar

StartChar: u0B99_u0BC2
Encoding: 182 -1 125
Width: 1275
GlyphClass: 2
Flags: W
LayerCount: 2
Fore
SplineSet
1141 148 m 1
 1141 -81 1141 -81 997 -207 c 0
 841 -344 841 -344 526 -344 c 0
 393 -344 393 -344 319 -298 c 128
 245 -252 245 -252 245 -169 c 0
 245 -99 245 -99 284.5 -60.5 c 128
 324 -22 324 -22 398 -22 c 256
 472 -22 472 -22 513 -63 c 128
 554 -104 554 -104 554 -168 c 0
 554 -198 554 -198 541.5 -223 c 128
 529 -248 529 -248 504 -269 c 1
 529 -271 l 1
 778 -271 778 -271 906 -137 c 0
 1013 -24 1013 -24 1013 148 c 0
 1013 201 1013 201 992 241 c 0
 963 296 963 296 905 296 c 0
 852 296 852 296 836 264 c 1
 836 -154 l 1
 715 -154 l 1
 715 -5 l 1
 200 -5 l 1
 200 60 l 1
 366 60 l 1
 415 79 415 79 439.5 126.5 c 128
 464 174 464 174 464 232 c 0
 464 278 464 278 439 306 c 128
 414 334 414 334 382 334 c 0
 339 334 339 334 328 290 c 1
 328 170 l 1
 201 170 l 1
 201 556 l 1
 71 556 l 1
 71 -6 l 1
 -1 -6 l 1
 -1 631 l 1
 465 631 l 1
 465 557 l 1
 330 557 l 1
 330 399 l 1
 365 422 365 422 408 422 c 0
 476 422 476 422 527 373 c 0
 585 317 585 317 585 228 c 0
 585 171 585 171 567.5 128 c 128
 550 85 550 85 520 62 c 1
 716 62 l 1
 716 633 l 1
 837 633 l 1
 837 359 l 1
 874 388 874 388 927 388 c 0
 1030 388 1030 388 1088 310 c 0
 1139 242 1139 242 1141 148 c 1
460 -164 m 0
 460 -132 460 -132 440.5 -110 c 128
 421 -88 421 -88 391 -88 c 0
 358 -88 358 -88 336 -110 c 128
 314 -132 314 -132 314 -165 c 0
 314 -200 314 -200 335.5 -223 c 128
 357 -246 357 -246 393 -246 c 1
 423 -241 423 -241 441.5 -218 c 128
 460 -195 460 -195 460 -164 c 0
EndSplineSet
Ligature2: "sub_ligature_pststaml_8 subtable" u0B99 u0BC2
LCarets2: 1 0
EndChar

StartChar: u0B99_u0BCD
Encoding: 183 -1 126
Width: 970
GlyphClass: 2
Flags: W
LayerCount: 2
Fore
SplineSet
518 820 m 256
 518 784 518 784 490 756 c 128
 462 728 462 728 426 728 c 0
 389 728 389 728 361 754.5 c 128
 333 781 333 781 333 820 c 0
 333 856 333 856 361 884 c 128
 389 912 389 912 426 912 c 0
 462 912 462 912 490 884 c 128
 518 856 518 856 518 820 c 256
835 -5 m 1
 198 -5 l 1
 198 60 l 1
 364 60 l 1
 413 79 413 79 437.5 126.5 c 128
 462 174 462 174 462 232 c 0
 462 278 462 278 437 306 c 128
 412 334 412 334 380 334 c 0
 337 334 337 334 326 290 c 1
 326 170 l 1
 199 170 l 1
 199 556 l 1
 69 556 l 1
 69 -6 l 1
 -3 -6 l 1
 -3 631 l 1
 463 631 l 1
 463 557 l 1
 328 557 l 1
 328 399 l 1
 363 422 363 422 406 422 c 0
 474 422 474 422 525 373 c 0
 583 317 583 317 583 228 c 0
 583 171 583 171 565.5 128 c 128
 548 85 548 85 518 62 c 1
 714 62 l 1
 714 633 l 1
 835 633 l 1
 835 -5 l 1
EndSplineSet
Ligature2: "pstspostbasesubstitution subtable" u0B99 u0BCD
LCarets2: 1 0
EndChar

StartChar: u0B9A
Encoding: 114 2970 127
Width: 721
GlyphClass: 1
Flags: W
LayerCount: 2
Fore
SplineSet
585 301 m 1
 450 301 l 1
 450 153 l 2
 450 93 450 93 376.5 45 c 128
 303 -3 303 -3 219 -3 c 0
 119 -3 119 -3 61 46 c 0
 -2 99 -2 99 -2 201 c 0
 -2 275 -2 275 44 325 c 0
 80 364 80 364 120 371 c 1
 120 632 l 1
 586 632 l 1
 586 558 l 1
 451 558 l 1
 451 374 l 1
 586 374 l 1
 585 301 l 1
325 374 m 1
 325 558 l 1
 194 558 l 1
 194 374 l 1
 325 374 l 1
325 148 m 2
 325 302 l 1
 160 302 l 2
 120 302 120 302 95.5 268.5 c 128
 71 235 71 235 71 189 c 0
 71 70 71 70 205 70 c 0
 241 70 241 70 283 94.5 c 128
 325 119 325 119 325 148 c 2
EndSplineSet
EndChar

StartChar: u0B9A_u0BBF
Encoding: 184 -1 128
Width: 876
GlyphClass: 1
Flags: W
LayerCount: 2
Fore
SplineSet
742 -4 m 1
 674 -4 l 1
 674 621 l 2
 674 731 674 731 589 803.5 c 128
 504 876 504 876 380 876 c 0
 222 876 222 876 143 797 c 0
 72 726 72 726 72 605 c 0
 72 556 72 556 85 505 c 128
 98 454 98 454 121 421 c 1
 121 633 l 1
 587 633 l 1
 587 559 l 1
 452 559 l 1
 452 375 l 1
 587 375 l 1
 587 303 l 1
 452 303 l 1
 452 155 l 2
 452 95 452 95 378.5 47 c 128
 305 -1 305 -1 221 -1 c 0
 121 -1 121 -1 63 48 c 0
 0 101 0 101 0 203 c 0
 0 261 0 261 26 303 c 0
 47 336 47 336 84 358 c 1
 38 402 38 402 18.5 463.5 c 128
 -1 525 -1 525 -1 597 c 0
 -1 763 -1 763 83 873 c 0
 183 1004 183 1004 378 1004 c 0
 552 1004 552 1004 647 903.5 c 128
 742 803 742 803 742 610 c 2
 742 -4 l 1
324 372 m 1
 324 556 l 1
 193 556 l 1
 193 372 l 1
 324 372 l 1
324 146 m 2
 324 300 l 1
 159 300 l 2
 119 300 119 300 94.5 266.5 c 128
 70 233 70 233 70 187 c 0
 70 68 70 68 204 68 c 0
 240 68 240 68 282 92.5 c 128
 324 117 324 117 324 146 c 2
EndSplineSet
Ligature2: "sub_ligature_pststaml_0-0 subtable" u0B9A u0BBF
LCarets2: 1 0
EndChar

StartChar: u0B95_u0BB7
Encoding: 185 -1 129
Width: 2049
GlyphClass: 2
Flags: W
AnchorPoint: "R" 3311 1243 exit 0
LayerCount: 2
Fore
SplineSet
1915 148 m 1
 1915 83 1915 83 1882 44 c 0
 1842 -3 1842 -3 1759 -3 c 2
 1688 -3 l 1
 1688 -295 l 1
 1567 -295 l 1
 1567 -3 l 1
 970 -3 l 1
 1041 68 1041 68 1073.5 139 c 128
 1106 210 1106 210 1106 287 c 0
 1106 404 1106 404 1043.5 480.5 c 128
 981 557 981 557 878 557 c 0
 769 557 769 557 702 495 c 0
 648 445 648 445 639 374 c 1
 767 374 l 2
 852 374 852 374 896 342 c 0
 947 305 947 305 947 219 c 0
 947 120 947 120 902.5 59.5 c 128
 858 -1 858 -1 780 -1 c 0
 671 -1 671 -1 617.5 79 c 128
 564 159 564 159 564 303 c 1
 455 303 l 1
 455 155 l 2
 455 95 455 95 381.5 47 c 128
 308 -1 308 -1 224 -1 c 0
 124 -1 124 -1 66 48 c 0
 3 101 3 101 3 203 c 0
 3 277 3 277 49 327 c 0
 85 366 85 366 125 373 c 1
 125 634 l 1
 591 634 l 1
 591 560 l 1
 456 560 l 1
 456 376 l 1
 572 376 l 1
 593 497 593 497 672.5 565.5 c 128
 752 634 752 634 882 634 c 0
 1058 634 1058 634 1149 532 c 0
 1228 443 1228 443 1228 294 c 0
 1228 229 1228 229 1213 179 c 128
 1198 129 1198 129 1158 73 c 1
 1569 73 l 1
 1569 263 l 1
 1463 284 1463 284 1406 323 c 0
 1331 374 1331 374 1331 457 c 0
 1331 541 1331 541 1375.5 587.5 c 128
 1420 634 1420 634 1509 634 c 0
 1595 634 1595 634 1642.5 598 c 128
 1690 562 1690 562 1690 505 c 2
 1690 318 l 1
 1789 300 1789 300 1847 264 c 0
 1918 220 1918 220 1915 148 c 1
1567 338 m 1
 1567 490 l 2
 1567 520 1567 520 1542 538 c 128
 1517 556 1517 556 1477 556 c 0
 1438 556 1438 556 1417 529.5 c 128
 1396 503 1396 503 1396 457 c 0
 1396 410 1396 410 1452 378 c 0
 1494 353 1494 353 1567 338 c 1
1838 157 m 0
 1838 189 1838 189 1798.5 208.5 c 128
 1759 228 1759 228 1691 240 c 1
 1691 71 l 1
 1763 71 l 2
 1805 71 1805 71 1821.5 93 c 128
 1838 115 1838 115 1838 157 c 0
821 217 m 1
 821 302 821 302 723 302 c 2
 637 302 l 1
 637 270 637 270 641 232 c 128
 645 194 645 194 654 169 c 128
 663 144 663 144 686 124.5 c 128
 709 105 709 105 739 105 c 0
 778 105 778 105 799 139 c 128
 820 173 820 173 821 217 c 1
328 375 m 1
 328 559 l 1
 197 559 l 1
 197 375 l 1
 328 375 l 1
328 149 m 2
 328 303 l 1
 163 303 l 2
 123 303 123 303 98.5 269.5 c 128
 74 236 74 236 74 190 c 0
 74 71 74 71 208 71 c 0
 244 71 244 71 286 95.5 c 128
 328 120 328 120 328 149 c 2
EndSplineSet
Ligature2: "akhnAkhandinTamillookup9 subtable" u0B95 u0BCD u0BB7
LCarets2: 2 0 0
EndChar

StartChar: u0B95_u0BB7_u0BBF
Encoding: 186 -1 130
Width: 2200
GlyphClass: 2
Flags: W
LayerCount: 2
Fore
SplineSet
2066 -4 m 1
 1999 -4 l 1
 1999 714 l 2
 1999 792 1999 792 1953 835 c 0
 1897 888 1897 888 1772 888 c 0
 1555 888 1555 888 1555 706 c 0
 1555 678 1555 678 1562.5 658 c 128
 1570 638 1570 638 1582 623 c 1
 1685 594 1685 594 1685 504 c 2
 1685 317 l 1
 1784 299 1784 299 1842 263 c 0
 1913 219 1913 219 1913 152 c 0
 1913 87 1913 87 1880 48 c 0
 1840 1 1840 1 1757 1 c 2
 1686 1 l 1
 1686 -291 l 1
 1565 -291 l 1
 1565 1 l 1
 968 1 l 1
 1039 72 1039 72 1071.5 143 c 128
 1104 214 1104 214 1104 291 c 0
 1104 408 1104 408 1041.5 484.5 c 128
 979 561 979 561 876 561 c 0
 767 561 767 561 700 499 c 0
 646 449 646 449 637 378 c 1
 765 378 l 2
 850 378 850 378 894 346 c 0
 945 309 945 309 945 223 c 0
 945 124 945 124 900.5 63.5 c 128
 856 3 856 3 778 3 c 0
 669 3 669 3 615.5 83 c 128
 562 163 562 163 562 307 c 1
 453 307 l 1
 453 159 l 2
 453 99 453 99 379.5 51 c 128
 306 3 306 3 222 3 c 0
 122 3 122 3 64 52 c 0
 1 105 1 105 1 207 c 0
 1 281 1 281 47 331 c 0
 83 370 83 370 123 377 c 1
 123 638 l 1
 589 638 l 1
 589 564 l 1
 454 564 l 1
 454 380 l 1
 570 380 l 1
 591 501 591 501 670.5 569.5 c 128
 750 638 750 638 880 638 c 0
 1056 638 1056 638 1147 536 c 0
 1226 447 1226 447 1226 298 c 0
 1226 233 1226 233 1211 183 c 128
 1196 133 1196 133 1156 77 c 1
 1567 77 l 1
 1567 267 l 1
 1461 288 1461 288 1404 327 c 0
 1329 378 1329 378 1329 461 c 0
 1329 545 1329 545 1373.5 591.5 c 128
 1418 638 1418 638 1507 638 c 1
 1479 682 1479 682 1479 766 c 0
 1479 886 1479 886 1556 948.5 c 128
 1633 1011 1633 1011 1775 1011 c 0
 1945 1011 1945 1011 2016 915 c 0
 2067 845 2067 845 2067 719 c 2
 2066 -4 l 1
1565 339 m 1
 1565 491 l 2
 1565 521 1565 521 1540 539 c 128
 1515 557 1515 557 1475 557 c 0
 1436 557 1436 557 1415 530.5 c 128
 1394 504 1394 504 1394 458 c 0
 1394 411 1394 411 1450 379 c 0
 1492 354 1492 354 1565 339 c 1
1836 158 m 0
 1836 190 1836 190 1796.5 209.5 c 128
 1757 229 1757 229 1689 241 c 1
 1689 72 l 1
 1761 72 l 2
 1803 72 1803 72 1819.5 94 c 128
 1836 116 1836 116 1836 158 c 0
819 218 m 1
 819 303 819 303 721 303 c 2
 635 303 l 1
 635 271 635 271 639 233 c 128
 643 195 643 195 652 170 c 128
 661 145 661 145 684 125.5 c 128
 707 106 707 106 737 106 c 0
 776 106 776 106 797 140 c 128
 818 174 818 174 819 218 c 1
326 376 m 1
 326 560 l 1
 195 560 l 1
 195 376 l 1
 326 376 l 1
326 150 m 2
 326 304 l 1
 161 304 l 2
 121 304 121 304 96.5 270.5 c 128
 72 237 72 237 72 191 c 0
 72 72 72 72 206 72 c 0
 242 72 242 72 284 96.5 c 128
 326 121 326 121 326 150 c 2
EndSplineSet
Ligature2: "sub_ligature_pststaml_2 subtable" u0B95_u0BB7 u0BBF
Ligature2: "akhnligs subtable" u0B95_u0BB7 u0BBF
LCarets2: 1 0
EndChar

StartChar: u0B95_u0BB7_u0BC0
Encoding: 187 -1 131
Width: 2049
GlyphClass: 2
Flags: W
LayerCount: 2
Fore
SplineSet
1915 148 m 1
 1915 83 1915 83 1882 44 c 0
 1842 -3 1842 -3 1759 -3 c 2
 1688 -3 l 1
 1688 -295 l 1
 1567 -295 l 1
 1567 -3 l 1
 970 -3 l 1
 1041 68 1041 68 1073.5 139 c 128
 1106 210 1106 210 1106 287 c 0
 1106 404 1106 404 1043.5 480.5 c 128
 981 557 981 557 878 557 c 0
 769 557 769 557 702 495 c 0
 648 445 648 445 639 374 c 1
 767 374 l 2
 852 374 852 374 896 342 c 0
 947 305 947 305 947 219 c 0
 947 120 947 120 902.5 59.5 c 128
 858 -1 858 -1 780 -1 c 0
 671 -1 671 -1 617.5 79 c 128
 564 159 564 159 564 303 c 1
 455 303 l 1
 455 155 l 2
 455 95 455 95 381.5 47 c 128
 308 -1 308 -1 224 -1 c 0
 124 -1 124 -1 66 48 c 0
 3 101 3 101 3 203 c 0
 3 277 3 277 49 327 c 0
 85 366 85 366 125 373 c 1
 125 634 l 1
 591 634 l 1
 591 560 l 1
 456 560 l 1
 456 376 l 1
 572 376 l 1
 593 497 593 497 672.5 565.5 c 128
 752 634 752 634 882 634 c 0
 1058 634 1058 634 1149 532 c 0
 1228 443 1228 443 1228 294 c 0
 1228 229 1228 229 1213 179 c 128
 1198 129 1198 129 1158 73 c 1
 1569 73 l 1
 1569 263 l 1
 1463 284 1463 284 1406 323 c 0
 1331 374 1331 374 1331 457 c 0
 1331 604 1331 604 1461 630 c 1
 1431 662 1431 662 1416 694 c 0
 1395 736 1395 736 1395 779 c 0
 1395 914 1395 914 1483 982 c 0
 1554 1038 1554 1038 1654 1038 c 0
 1760 1038 1760 1038 1828 1001 c 0
 1920 950 1920 950 1920 843 c 0
 1920 776 1920 776 1874.5 729.5 c 128
 1829 683 1829 683 1752 683 c 0
 1678 683 1678 683 1637 725 c 128
 1596 767 1596 767 1596 827 c 0
 1596 857 1596 857 1605.5 885.5 c 128
 1615 914 1615 914 1634 933 c 1
 1616 934 l 1
 1549 934 1549 934 1510 881.5 c 128
 1471 829 1471 829 1471 762 c 0
 1471 725 1471 725 1487.5 692.5 c 128
 1504 660 1504 660 1532 635 c 1
 1606 635 1606 635 1648 597.5 c 128
 1690 560 1690 560 1690 506 c 2
 1690 319 l 1
 1789 301 1789 301 1847 265 c 0
 1918 221 1918 221 1915 148 c 1
1812 829 m 0
 1812 864 1812 864 1790.5 888.5 c 128
 1769 913 1769 913 1734 913 c 1
 1704 908 1704 908 1685.5 884.5 c 128
 1667 861 1667 861 1667 829 c 0
 1667 799 1667 799 1687 777.5 c 128
 1707 756 1707 756 1737 756 c 0
 1769 756 1769 756 1790.5 777.5 c 128
 1812 799 1812 799 1812 829 c 0
1567 342 m 1
 1567 494 l 2
 1567 524 1567 524 1542 542 c 128
 1517 560 1517 560 1477 560 c 0
 1438 560 1438 560 1417 533.5 c 128
 1396 507 1396 507 1396 461 c 0
 1396 414 1396 414 1452 382 c 0
 1494 357 1494 357 1567 342 c 1
1838 161 m 0
 1838 193 1838 193 1798.5 212.5 c 128
 1759 232 1759 232 1691 244 c 1
 1691 75 l 1
 1763 75 l 2
 1805 75 1805 75 1821.5 97 c 128
 1838 119 1838 119 1838 161 c 0
821 221 m 1
 821 306 821 306 723 306 c 2
 637 306 l 1
 637 274 637 274 641 236 c 128
 645 198 645 198 654 173 c 128
 663 148 663 148 686 128.5 c 128
 709 109 709 109 739 109 c 0
 778 109 778 109 799 143 c 128
 820 177 820 177 821 221 c 1
328 379 m 1
 328 563 l 1
 197 563 l 1
 197 379 l 1
 328 379 l 1
328 153 m 2
 328 307 l 1
 163 307 l 2
 123 307 123 307 98.5 273.5 c 128
 74 240 74 240 74 194 c 0
 74 75 74 75 208 75 c 0
 244 75 244 75 286 99.5 c 128
 328 124 328 124 328 153 c 2
EndSplineSet
Ligature2: "sub_ligature_pststaml_4 subtable" u0B9A u0BB7 u0BC0
Ligature2: "akhnligs subtable" u0B95_u0BB7 u0BC0
LCarets2: 2 0 0
EndChar

StartChar: u0B95_u0BB7_u0BCD
Encoding: 188 -1 132
Width: 2049
GlyphClass: 2
Flags: W
LayerCount: 2
Fore
SplineSet
1006 820 m 1
 1006 784 1006 784 978 756 c 128
 950 728 950 728 913 728 c 256
 876 728 876 728 849 755 c 128
 822 782 822 782 822 819 c 0
 822 855 822 855 850 883 c 128
 878 911 878 911 914 911 c 0
 951 911 951 911 979 883 c 128
 1007 855 1007 855 1006 820 c 1
1915 147 m 1
 1915 82 1915 82 1882 43 c 0
 1842 -4 1842 -4 1759 -4 c 2
 1688 -4 l 1
 1688 -296 l 1
 1567 -296 l 1
 1567 -4 l 1
 970 -4 l 1
 1041 67 1041 67 1073.5 138 c 128
 1106 209 1106 209 1106 286 c 0
 1106 403 1106 403 1043.5 479.5 c 128
 981 556 981 556 878 556 c 0
 769 556 769 556 702 494 c 0
 648 444 648 444 639 373 c 1
 767 373 l 2
 852 373 852 373 896 341 c 0
 947 304 947 304 947 218 c 0
 947 119 947 119 902.5 58.5 c 128
 858 -2 858 -2 780 -2 c 0
 671 -2 671 -2 617.5 78 c 128
 564 158 564 158 564 302 c 1
 455 302 l 1
 455 154 l 2
 455 94 455 94 381.5 46 c 128
 308 -2 308 -2 224 -2 c 0
 124 -2 124 -2 66 47 c 0
 3 100 3 100 3 202 c 0
 3 276 3 276 49 326 c 0
 85 365 85 365 125 372 c 1
 125 633 l 1
 591 633 l 1
 591 559 l 1
 456 559 l 1
 456 375 l 1
 572 375 l 1
 593 496 593 496 672.5 564.5 c 128
 752 633 752 633 882 633 c 0
 1058 633 1058 633 1149 531 c 0
 1228 442 1228 442 1228 293 c 0
 1228 228 1228 228 1213 178 c 128
 1198 128 1198 128 1158 72 c 1
 1569 72 l 1
 1569 262 l 1
 1463 283 1463 283 1406 322 c 0
 1331 373 1331 373 1331 456 c 0
 1331 540 1331 540 1375.5 586.5 c 128
 1420 633 1420 633 1509 633 c 0
 1595 633 1595 633 1642.5 597 c 128
 1690 561 1690 561 1690 504 c 2
 1690 317 l 1
 1789 299 1789 299 1847 263 c 0
 1918 219 1918 219 1915 147 c 1
1567 337 m 1
 1567 489 l 2
 1567 519 1567 519 1542 537 c 128
 1517 555 1517 555 1477 555 c 0
 1438 555 1438 555 1417 528.5 c 128
 1396 502 1396 502 1396 456 c 0
 1396 409 1396 409 1452 377 c 0
 1494 352 1494 352 1567 337 c 1
1838 156 m 0
 1838 188 1838 188 1798.5 207.5 c 128
 1759 227 1759 227 1691 239 c 1
 1691 70 l 1
 1763 70 l 2
 1805 70 1805 70 1821.5 92 c 128
 1838 114 1838 114 1838 156 c 0
821 216 m 1
 821 301 821 301 723 301 c 2
 637 301 l 1
 637 269 637 269 641 231 c 128
 645 193 645 193 654 168 c 128
 663 143 663 143 686 123.5 c 128
 709 104 709 104 739 104 c 0
 778 104 778 104 799 138 c 128
 820 172 820 172 821 216 c 1
328 374 m 1
 328 558 l 1
 197 558 l 1
 197 374 l 1
 328 374 l 1
328 148 m 2
 328 302 l 1
 163 302 l 2
 123 302 123 302 98.5 268.5 c 128
 74 235 74 235 74 189 c 0
 74 70 74 70 208 70 c 0
 244 70 244 70 286 94.5 c 128
 328 119 328 119 328 148 c 2
EndSplineSet
Ligature2: "pstspostbasesubstitution subtable" u0B9A u0BB7 u0BCD
Ligature2: "pstspostbasesubstitution subtable" u0B95_u0BB7 u0BCD
Ligature2: "akhnligs subtable" u0B95_u0BB7 u0BCD
LCarets2: 2 0 0
EndChar

StartChar: u0B9A_u0BC0
Encoding: 189 -1 133
Width: 719
GlyphClass: 1
Flags: W
LayerCount: 2
Fore
SplineSet
709 841 m 1
 709 774 709 774 663.5 727.5 c 128
 618 681 618 681 543 681 c 0
 472 681 472 681 429.5 723.5 c 128
 387 766 387 766 387 824 c 0
 387 854 387 854 397.5 882.5 c 128
 408 911 408 911 427 930 c 1
 408 931 l 1
 261 931 261 931 161 824 c 0
 70 726 70 726 70 603 c 0
 70 554 70 554 83 503 c 128
 96 452 96 452 119 419 c 1
 119 631 l 1
 583 631 l 1
 583 557 l 1
 449 557 l 1
 449 373 l 1
 583 373 l 1
 583 301 l 1
 449 301 l 1
 449 153 l 2
 449 93 449 93 375.5 45 c 128
 302 -3 302 -3 218 -3 c 0
 118 -3 118 -3 60 46 c 0
 -3 99 -3 99 -3 201 c 0
 -3 259 -3 259 23 301 c 0
 44 334 44 334 81 356 c 1
 35 400 35 400 15.5 461.5 c 128
 -4 523 -4 523 -4 595 c 0
 -4 791 -4 791 121 913.5 c 128
 246 1036 246 1036 444 1036 c 0
 548 1036 548 1036 615 999 c 0
 707 948 707 948 709 841 c 1
602 824 m 1
 602 859 602 859 579 883.5 c 128
 556 908 556 908 523 908 c 1
 493 903 493 903 474.5 879.5 c 128
 456 856 456 856 456 824 c 0
 456 795 456 795 477 773 c 128
 498 751 498 751 528 751 c 0
 560 751 560 751 581.5 772.5 c 128
 603 794 603 794 602 824 c 1
322 376 m 1
 322 560 l 1
 191 560 l 1
 191 376 l 1
 322 376 l 1
322 150 m 2
 322 304 l 1
 157 304 l 2
 117 304 117 304 92.5 270.5 c 128
 68 237 68 237 68 191 c 0
 68 72 68 72 202 72 c 0
 238 72 238 72 280 96.5 c 128
 322 121 322 121 322 150 c 2
EndSplineSet
Ligature2: "sub_ligature_pststaml_0-0 subtable" u0B9A u0BC0
LCarets2: 1 0
EndChar

StartChar: u0B9A_u0BC1
Encoding: 190 -1 134
Width: 943
GlyphClass: 2
Flags: W
LayerCount: 2
Fore
SplineSet
809 301 m 1
 688 301 l 1
 688 -4 l 1
 560 -4 l 1
 560 301 l 1
 451 301 l 1
 451 153 l 2
 451 93 451 93 377.5 45 c 128
 304 -3 304 -3 220 -3 c 0
 120 -3 120 -3 62 46 c 0
 -1 99 -1 99 -1 201 c 0
 -1 275 -1 275 45 325 c 0
 81 364 81 364 121 371 c 1
 121 632 l 1
 587 632 l 1
 587 558 l 1
 452 558 l 1
 452 374 l 1
 811 374 l 1
 809 301 l 1
326 374 m 1
 326 558 l 1
 195 558 l 1
 195 374 l 1
 326 374 l 1
326 148 m 2
 326 302 l 1
 161 302 l 2
 121 302 121 302 96.5 268.5 c 128
 72 235 72 235 72 189 c 0
 72 70 72 70 206 70 c 0
 242 70 242 70 284 94.5 c 128
 326 119 326 119 326 148 c 2
EndSplineSet
Ligature2: "sub_ligature_pststaml_6 subtable" u0B9A u0BC1
LCarets2: 1 0
EndChar

StartChar: u0B9A_u0BC2
Encoding: 191 -1 135
Width: 1072
GlyphClass: 2
Flags: W
LayerCount: 2
Fore
SplineSet
937 30 m 1
 937 -136 937 -136 808 -240 c 128
 679 -344 679 -344 483 -344 c 0
 303 -344 303 -344 203 -294 c 128
 103 -244 103 -244 103 -156 c 0
 103 -94 103 -94 156.5 -60.5 c 128
 210 -27 210 -27 288 -27 c 0
 344 -27 344 -27 397 -47 c 128
 450 -67 450 -67 487 -102 c 1
 461 -148 l 1
 422 -118 422 -118 375.5 -103.5 c 128
 329 -89 329 -89 285 -89 c 0
 232 -89 232 -89 203.5 -106.5 c 128
 175 -124 175 -124 175 -156 c 0
 175 -219 175 -219 261 -249 c 0
 329 -272 329 -272 443 -272 c 0
 602 -272 602 -272 708 -180 c 0
 808 -94 808 -94 808 23 c 0
 808 98 808 98 779.5 137 c 128
 751 176 751 176 714 176 c 0
 698 176 698 176 687 168 c 1
 687 -6 l 1
 559 -6 l 1
 559 299 l 1
 450 299 l 1
 450 151 l 2
 450 91 450 91 376.5 43 c 128
 303 -5 303 -5 219 -5 c 0
 119 -5 119 -5 61 44 c 0
 -2 97 -2 97 -2 199 c 0
 -2 273 -2 273 44 323 c 0
 80 362 80 362 120 369 c 1
 120 630 l 1
 586 630 l 1
 586 556 l 1
 451 556 l 1
 451 372 l 1
 810 372 l 1
 810 300 l 1
 689 300 l 1
 689 249 l 1
 717 267 717 267 756 267 c 0
 831 267 831 267 884.5 205 c 128
 938 143 938 143 937 30 c 1
324 373 m 1
 324 557 l 1
 193 557 l 1
 193 373 l 1
 324 373 l 1
324 147 m 2
 324 301 l 1
 159 301 l 2
 119 301 119 301 94.5 267.5 c 128
 70 234 70 234 70 188 c 0
 70 69 70 69 204 69 c 0
 240 69 240 69 282 93.5 c 128
 324 118 324 118 324 147 c 2
EndSplineSet
Ligature2: "sub_ligature_pststaml_8 subtable" u0B9A u0BC2
LCarets2: 1 0
EndChar

StartChar: u0B9A_u0BCD
Encoding: 192 -1 136
Width: 721
GlyphClass: 2
Flags: W
LayerCount: 2
Fore
SplineSet
427 820 m 1
 427 783 427 783 400 756 c 128
 373 729 373 729 336 729 c 256
 299 729 299 729 272 756 c 128
 245 783 245 783 245 820 c 256
 245 857 245 857 272 884 c 128
 299 911 299 911 336 911 c 0
 372 911 372 911 400 883 c 128
 428 855 428 855 427 820 c 1
586 300 m 1
 451 300 l 1
 451 152 l 2
 451 92 451 92 377.5 44 c 128
 304 -4 304 -4 220 -4 c 0
 120 -4 120 -4 62 45 c 0
 -1 98 -1 98 -1 200 c 0
 -1 274 -1 274 45 324 c 0
 81 363 81 363 121 370 c 1
 121 631 l 1
 587 631 l 1
 587 557 l 1
 452 557 l 1
 452 373 l 1
 587 373 l 1
 586 300 l 1
326 373 m 1
 326 557 l 1
 195 557 l 1
 195 373 l 1
 326 373 l 1
326 147 m 2
 326 301 l 1
 161 301 l 2
 121 301 121 301 96.5 267.5 c 128
 72 234 72 234 72 188 c 0
 72 69 72 69 206 69 c 0
 242 69 242 69 284 93.5 c 128
 326 118 326 118 326 147 c 2
EndSplineSet
Ligature2: "pstspostbasesubstitution subtable" u0B9A u0BCD
LCarets2: 1 0
EndChar

StartChar: u0B9C
Encoding: 115 2972 137
Width: 901
GlyphClass: 1
Flags: W
AnchorPoint: "R" 1265 1245 exit 0
LayerCount: 2
Fore
SplineSet
767 404 m 0
 767 332 767 332 744 271 c 0
 714 193 714 193 658 163 c 1
 587 127 587 127 431 119 c 128
 275 111 275 111 222 90 c 1
 193 82 193 82 174 59 c 0
 146 27 146 27 146 -23 c 0
 146 -84 146 -84 164.5 -116.5 c 128
 183 -149 183 -149 232 -149 c 0
 308 -149 308 -149 359 -88 c 1
 392 -42 392 -42 408 -20 c 1
 475 61 475 61 493 70 c 0
 533 92 533 92 600 92 c 0
 677 92 677 92 720 54.5 c 128
 763 17 763 17 763 -54 c 0
 763 -123 763 -123 723 -166 c 0
 677 -216 677 -216 591 -216 c 0
 562 -216 562 -216 535.5 -210 c 128
 509 -204 509 -204 483 -189 c 1
 502 -131 l 1
 518 -138 518 -138 539.5 -140.5 c 128
 561 -143 561 -143 577 -143 c 0
 610 -143 610 -143 626 -121.5 c 128
 642 -100 642 -100 642 -65 c 0
 642 -21 642 -21 626 -3.5 c 128
 610 14 610 14 567 14 c 0
 546 14 546 14 525 -4 c 0
 523 -6 523 -6 466 -75 c 1
 412 -147 412 -147 379 -175 c 0
 319 -225 319 -225 244 -225 c 0
 127 -225 127 -225 75.5 -173.5 c 128
 24 -122 24 -122 24 -22 c 0
 24 52 24 52 60 95 c 0
 88 128 88 128 143 149 c 0
 218 178 218 178 437 194 c 0
 529 201 529 201 576 224 c 0
 615 242 615 242 633 317 c 0
 645 368 645 368 645 417 c 0
 645 480 645 480 618.5 519.5 c 128
 592 559 592 559 535 559 c 0
 501 559 501 559 482 525 c 0
 468 500 468 500 468 471 c 2
 468 290 l 1
 348 290 l 1
 348 464 l 2
 348 497 348 497 325 523 c 0
 292 559 292 559 231 559 c 0
 188 559 188 559 150.5 542.5 c 128
 113 526 113 526 91 498 c 1
 123 517 123 517 162 517 c 0
 223 517 223 517 262 471 c 128
 301 425 301 425 301 361 c 0
 301 290 301 290 259.5 249.5 c 128
 218 209 218 209 150 209 c 0
 71 209 71 209 32 274 c 0
 0 328 0 328 0 420 c 0
 0 506 0 506 64 566 c 0
 134 631 134 631 253 631 c 0
 324 631 324 631 364.5 614.5 c 128
 405 598 405 598 424 569 c 1
 442 597 442 597 467 612 c 0
 500 631 500 631 551 631 c 0
 657 631 657 631 712 571.5 c 128
 767 512 767 512 767 404 c 0
186 381 m 1
 182 400 182 400 166 412.5 c 128
 150 425 150 425 131 425 c 0
 115 425 115 425 99 416 c 128
 83 407 83 407 71 389 c 1
 71 346 71 346 88.5 319 c 128
 106 292 106 292 136 292 c 0
 161 292 161 292 175.5 313.5 c 128
 190 335 190 335 190 360 c 0
 190 367 190 367 186 381 c 1
EndSplineSet
EndChar

StartChar: u0B9C_u0BBF
Encoding: 193 -1 138
Width: 1079
GlyphClass: 2
Flags: W
LayerCount: 2
Fore
SplineSet
944 -4 m 1
 877 -4 l 1
 877 714 l 2
 877 786 877 786 844 832 c 0
 804 888 804 888 719 888 c 0
 640 888 640 888 599 841.5 c 128
 558 795 558 795 558 707 c 0
 558 684 558 684 564 665.5 c 128
 570 647 570 647 581 635 c 1
 673 626 673 626 720.5 567.5 c 128
 768 509 768 509 768 409 c 0
 768 337 768 337 745 276 c 0
 715 198 715 198 659 168 c 1
 588 132 588 132 432 124 c 128
 276 116 276 116 223 95 c 1
 194 87 194 87 175 64 c 0
 147 32 147 32 147 -18 c 0
 147 -79 147 -79 165.5 -111.5 c 128
 184 -144 184 -144 233 -144 c 0
 309 -144 309 -144 360 -83 c 1
 393 -37 393 -37 409 -15 c 1
 476 66 476 66 494 75 c 0
 534 97 534 97 601 97 c 0
 678 97 678 97 721 59.5 c 128
 764 22 764 22 764 -49 c 0
 764 -118 764 -118 724 -161 c 0
 678 -211 678 -211 592 -211 c 0
 563 -211 563 -211 536.5 -205 c 128
 510 -199 510 -199 484 -184 c 1
 503 -126 l 1
 519 -133 519 -133 540.5 -135.5 c 128
 562 -138 562 -138 578 -138 c 0
 611 -138 611 -138 627 -116.5 c 128
 643 -95 643 -95 643 -60 c 0
 643 -16 643 -16 627 1.5 c 128
 611 19 611 19 568 19 c 0
 547 19 547 19 526 1 c 0
 524 -1 524 -1 467 -70 c 1
 413 -142 413 -142 380 -170 c 0
 320 -220 320 -220 245 -220 c 0
 128 -220 128 -220 76.5 -168.5 c 128
 25 -117 25 -117 25 -17 c 0
 25 57 25 57 61 100 c 0
 89 133 89 133 144 154 c 0
 219 183 219 183 438 199 c 0
 530 206 530 206 577 229 c 0
 616 247 616 247 634 322 c 0
 646 373 646 373 646 422 c 0
 646 485 646 485 619.5 524.5 c 128
 593 564 593 564 536 564 c 0
 502 564 502 564 483 530 c 0
 469 505 469 505 469 476 c 2
 469 295 l 1
 349 295 l 1
 349 469 l 2
 349 502 349 502 326 528 c 0
 293 564 293 564 232 564 c 0
 189 564 189 564 151.5 547.5 c 128
 114 531 114 531 92 503 c 1
 124 522 124 522 163 522 c 0
 224 522 224 522 263 476 c 128
 302 430 302 430 302 366 c 0
 302 295 302 295 260.5 254.5 c 128
 219 214 219 214 151 214 c 0
 72 214 72 214 33 279 c 0
 1 333 1 333 1 425 c 0
 1 511 1 511 65 571 c 0
 135 636 135 636 254 636 c 0
 325 636 325 636 365.5 619.5 c 128
 406 603 406 603 425 574 c 1
 437 593 437 593 457 608 c 128
 477 623 477 623 506 628 c 1
 495 656 495 656 487.5 692 c 128
 480 728 480 728 480 763 c 0
 480 870 480 870 536 934 c 0
 600 1008 600 1008 721 1008 c 0
 854 1008 854 1008 908 906 c 0
 945 836 945 836 945 716 c 2
 944 -4 l 1
187 383 m 1
 183 402 183 402 167 414.5 c 128
 151 427 151 427 132 427 c 0
 116 427 116 427 100 418 c 128
 84 409 84 409 72 391 c 1
 72 348 72 348 89.5 321 c 128
 107 294 107 294 137 294 c 0
 162 294 162 294 176.5 315.5 c 128
 191 337 191 337 191 362 c 0
 191 369 191 369 187 383 c 1
EndSplineSet
Ligature2: "sub_ligature_pststaml_2 subtable" u0B9C u0BBF
LCarets2: 1 0
EndChar

StartChar: u0B9C_u0BC0
Encoding: 194 -1 139
Width: 946
GlyphClass: 2
Flags: W
LayerCount: 2
Fore
SplineSet
965 841 m 0
 965 773 965 773 919 727 c 128
 873 681 873 681 796 681 c 0
 724 681 724 681 683 723.5 c 128
 642 766 642 766 642 824 c 0
 642 854 642 854 651.5 882.5 c 128
 661 911 661 911 680 930 c 1
 661 931 l 1
 594 931 594 931 555 878.5 c 128
 516 826 516 826 516 759 c 0
 516 722 516 722 532.5 690 c 128
 549 658 549 658 575 632 c 1
 667 624 667 624 716.5 564.5 c 128
 766 505 766 505 766 405 c 0
 766 333 766 333 743 272 c 0
 713 194 713 194 657 164 c 1
 586 128 586 128 430 120 c 128
 274 112 274 112 221 91 c 1
 192 83 192 83 173 60 c 0
 145 28 145 28 145 -22 c 0
 145 -83 145 -83 163.5 -115.5 c 128
 182 -148 182 -148 231 -148 c 0
 307 -148 307 -148 358 -87 c 1
 391 -41 391 -41 407 -19 c 1
 474 62 474 62 492 71 c 0
 532 93 532 93 599 93 c 0
 676 93 676 93 719 55.5 c 128
 762 18 762 18 762 -53 c 0
 762 -122 762 -122 722 -165 c 0
 676 -215 676 -215 590 -215 c 0
 561 -215 561 -215 534.5 -209 c 128
 508 -203 508 -203 482 -188 c 1
 501 -130 l 1
 517 -137 517 -137 538.5 -139.5 c 128
 560 -142 560 -142 576 -142 c 0
 609 -142 609 -142 625 -120.5 c 128
 641 -99 641 -99 641 -64 c 0
 641 -20 641 -20 625 -2.5 c 128
 609 15 609 15 566 15 c 0
 545 15 545 15 524 -3 c 0
 522 -5 522 -5 465 -74 c 1
 411 -146 411 -146 378 -174 c 0
 318 -224 318 -224 243 -224 c 0
 126 -224 126 -224 74.5 -172.5 c 128
 23 -121 23 -121 23 -21 c 0
 23 53 23 53 59 96 c 0
 87 129 87 129 142 150 c 0
 217 179 217 179 436 195 c 0
 528 202 528 202 575 225 c 0
 614 243 614 243 632 318 c 0
 644 369 644 369 644 418 c 0
 644 481 644 481 617.5 520.5 c 128
 591 560 591 560 534 560 c 0
 500 560 500 560 481 526 c 0
 467 501 467 501 467 472 c 2
 467 291 l 1
 347 291 l 1
 347 465 l 2
 347 498 347 498 324 524 c 0
 291 560 291 560 230 560 c 0
 187 560 187 560 149.5 543.5 c 128
 112 527 112 527 90 499 c 1
 122 518 122 518 161 518 c 0
 222 518 222 518 261 472 c 128
 300 426 300 426 300 362 c 0
 300 291 300 291 258.5 250.5 c 128
 217 210 217 210 149 210 c 0
 70 210 70 210 31 275 c 0
 -1 329 -1 329 -1 421 c 0
 -1 507 -1 507 63 567 c 0
 133 632 133 632 252 632 c 0
 323 632 323 632 363.5 615.5 c 128
 404 599 404 599 423 570 c 1
 437 591 437 591 455.5 605 c 128
 474 619 474 619 504 626 c 1
 474 661 474 661 459 691 c 0
 438 733 438 733 438 777 c 0
 438 912 438 912 526 980 c 0
 597 1036 597 1036 699 1036 c 0
 805 1036 805 1036 873 999 c 0
 965 948 965 948 965 841 c 0
858 824 m 0
 858 859 858 859 836.5 883.5 c 128
 815 908 815 908 780 908 c 1
 750 903 750 903 730.5 879.5 c 128
 711 856 711 856 711 824 c 0
 711 795 711 795 732 773 c 128
 753 751 753 751 783 751 c 0
 815 751 815 751 836.5 772.5 c 128
 858 794 858 794 858 824 c 0
186 384 m 1
 182 403 182 403 166 415.5 c 128
 150 428 150 428 131 428 c 0
 115 428 115 428 99 419 c 128
 83 410 83 410 71 392 c 1
 71 349 71 349 88.5 322 c 128
 106 295 106 295 136 295 c 0
 161 295 161 295 175.5 316.5 c 128
 190 338 190 338 190 363 c 0
 190 370 190 370 186 384 c 1
EndSplineSet
Ligature2: "sub_ligature_pststaml_4 subtable" u0B9C u0BC0
LCarets2: 1 0
EndChar

StartChar: u0B9C_u0BCD
Encoding: 195 -1 140
Width: 901
GlyphClass: 2
Flags: W
LayerCount: 2
Fore
SplineSet
489 820 m 256
 489 783 489 783 462 756 c 128
 435 729 435 729 398 729 c 256
 361 729 361 729 333 755.5 c 128
 305 782 305 782 305 821 c 0
 305 857 305 857 333 885 c 128
 361 913 361 913 398 913 c 0
 434 913 434 913 461.5 885 c 128
 489 857 489 857 489 820 c 256
766 405 m 0
 766 333 766 333 743 272 c 0
 713 194 713 194 657 164 c 1
 586 128 586 128 430 120 c 128
 274 112 274 112 221 91 c 1
 192 83 192 83 173 60 c 0
 145 28 145 28 145 -22 c 0
 145 -83 145 -83 163.5 -115.5 c 128
 182 -148 182 -148 231 -148 c 0
 307 -148 307 -148 358 -87 c 1
 391 -41 391 -41 407 -19 c 1
 474 62 474 62 492 71 c 0
 532 93 532 93 599 93 c 0
 676 93 676 93 719 55.5 c 128
 762 18 762 18 762 -53 c 0
 762 -122 762 -122 722 -165 c 0
 676 -215 676 -215 590 -215 c 0
 561 -215 561 -215 534.5 -209 c 128
 508 -203 508 -203 482 -188 c 1
 501 -130 l 1
 517 -137 517 -137 538.5 -139.5 c 128
 560 -142 560 -142 576 -142 c 0
 609 -142 609 -142 625 -120.5 c 128
 641 -99 641 -99 641 -64 c 0
 641 -20 641 -20 625 -2.5 c 128
 609 15 609 15 566 15 c 0
 545 15 545 15 524 -3 c 0
 522 -5 522 -5 465 -74 c 1
 411 -146 411 -146 378 -174 c 0
 318 -224 318 -224 243 -224 c 0
 126 -224 126 -224 74.5 -172.5 c 128
 23 -121 23 -121 23 -21 c 0
 23 53 23 53 59 96 c 0
 87 129 87 129 142 150 c 0
 217 179 217 179 436 195 c 0
 528 202 528 202 575 225 c 0
 614 243 614 243 632 318 c 0
 644 369 644 369 644 418 c 0
 644 481 644 481 617.5 520.5 c 128
 591 560 591 560 534 560 c 0
 500 560 500 560 481 526 c 0
 467 501 467 501 467 472 c 2
 467 291 l 1
 347 291 l 1
 347 465 l 2
 347 498 347 498 324 524 c 0
 291 560 291 560 230 560 c 0
 187 560 187 560 149.5 543.5 c 128
 112 527 112 527 90 499 c 1
 122 518 122 518 161 518 c 0
 222 518 222 518 261 472 c 128
 300 426 300 426 300 362 c 0
 300 291 300 291 258.5 250.5 c 128
 217 210 217 210 149 210 c 0
 70 210 70 210 31 275 c 0
 -1 329 -1 329 -1 421 c 0
 -1 507 -1 507 63 567 c 0
 133 632 133 632 252 632 c 0
 323 632 323 632 363.5 615.5 c 128
 404 599 404 599 423 570 c 1
 441 598 441 598 466 613 c 0
 499 632 499 632 550 632 c 0
 656 632 656 632 711 572.5 c 128
 766 513 766 513 766 405 c 0
185 382 m 1
 181 401 181 401 165 413.5 c 128
 149 426 149 426 130 426 c 0
 114 426 114 426 98 417 c 128
 82 408 82 408 70 390 c 1
 70 347 70 347 87.5 320 c 128
 105 293 105 293 135 293 c 0
 160 293 160 293 174.5 314.5 c 128
 189 336 189 336 189 361 c 0
 189 368 189 368 185 382 c 1
EndSplineSet
Ligature2: "pstspostbasesubstitution subtable" u0B9C u0BCD
LCarets2: 1 0
EndChar

StartChar: u0B9E
Encoding: 116 2974 141
Width: 1220
GlyphClass: 1
Flags: W
LayerCount: 2
Fore
SplineSet
1086 148 m 1
 1086 -39 1086 -39 962 -149 c 0
 820 -276 820 -276 539 -276 c 0
 285 -276 285 -276 142 -146 c 128
 -1 -16 -1 -16 -1 212 c 0
 -1 349 -1 349 38 460 c 128
 77 571 77 571 149 636 c 1
 199 594 l 1
 132 527 132 527 101.5 427 c 128
 71 327 71 327 71 209 c 0
 71 23 71 23 197.5 -89.5 c 128
 324 -202 324 -202 529 -202 c 0
 748 -202 748 -202 862 -92 c 1
 960 1 960 1 960 146 c 0
 960 218 960 218 925 260 c 0
 896 294 896 294 852 294 c 0
 799 294 799 294 783 262 c 1
 783 -6 l 1
 655 -6 l 1
 655 556 l 1
 478 556 l 2
 376 556 376 556 312 502 c 0
 258 456 258 456 243 388 c 1
 290 421 290 421 355 421 c 0
 440 421 440 421 493 364 c 128
 546 307 546 307 546 216 c 0
 546 116 546 116 504.5 56 c 128
 463 -4 463 -4 381 -4 c 0
 278 -4 278 -4 221 72.5 c 128
 164 149 164 149 164 290 c 0
 164 448 164 448 245.5 539.5 c 128
 327 631 327 631 466 631 c 2
 922 631 l 1
 922 557 l 1
 785 557 l 1
 785 357 l 1
 822 386 822 386 875 386 c 0
 977 386 977 386 1037 307 c 0
 1088 239 1088 239 1086 148 c 1
417 216 m 0
 417 259 417 259 390 295 c 128
 363 331 363 331 326 331 c 0
 293 331 293 331 268.5 311 c 128
 244 291 244 291 237 263 c 1
 237 192 237 192 262 147.5 c 128
 287 103 287 103 338 103 c 0
 375 103 375 103 396 137 c 128
 417 171 417 171 417 216 c 0
EndSplineSet
EndChar

StartChar: u0B9E_u0BBF
Encoding: 196 -1 142
Width: 1351
GlyphClass: 2
Flags: W
LayerCount: 2
Fore
SplineSet
1216 -4 m 1
 1151 -4 l 1
 1151 714 l 2
 1151 792 1151 792 1116 832 c 1
 1069 888 1069 888 950 888 c 0
 747 888 747 888 747 706 c 0
 747 677 747 677 752.5 662 c 128
 758 647 758 647 769 633 c 1
 918 633 l 1
 918 559 l 1
 781 559 l 1
 781 382 l 1
 821 411 821 411 872 411 c 0
 880 411 880 411 896 409 c 0
 966 398 966 398 1012 327 c 1
 1063 246 1063 246 1063 116 c 0
 1063 -53 1063 -53 933 -158 c 0
 789 -274 789 -274 521 -274 c 0
 300 -274 300 -274 151 -144 c 0
 -5 -7 -5 -7 -5 214 c 0
 -5 351 -5 351 34 462 c 128
 73 573 73 573 145 638 c 1
 195 596 l 1
 128 529 128 529 97.5 429 c 128
 67 329 67 329 67 211 c 0
 67 31 67 31 207 -88 c 0
 339 -200 339 -200 525 -200 c 0
 737 -200 737 -200 847 -95 c 1
 942 -6 942 -6 942 128 c 0
 942 199 942 199 921 244.5 c 128
 900 290 900 290 865 311 c 1
 849 319 849 319 834 319 c 0
 802 319 802 319 779 293 c 1
 779 -2 l 1
 651 -2 l 1
 651 560 l 1
 474 560 l 2
 372 560 372 560 308 506 c 0
 254 460 254 460 239 392 c 1
 286 425 286 425 351 425 c 0
 436 425 436 425 489 368 c 128
 542 311 542 311 542 220 c 0
 542 120 542 120 500.5 60 c 128
 459 0 459 0 377 0 c 0
 274 0 274 0 217 76.5 c 128
 160 153 160 153 160 294 c 0
 160 452 160 452 241.5 543.5 c 128
 323 635 323 635 462 635 c 2
 693 635 l 1
 682 663 682 663 674.5 695 c 128
 667 727 667 727 667 763 c 0
 667 882 667 882 737.5 945.5 c 128
 808 1009 808 1009 950 1009 c 0
 1119 1009 1119 1009 1179 907 c 0
 1215 844 1215 844 1215 717 c 2
 1216 -4 l 1
413 218 m 0
 413 261 413 261 386 297 c 128
 359 333 359 333 322 333 c 0
 289 333 289 333 264.5 313 c 128
 240 293 240 293 233 265 c 1
 233 194 233 194 258 149.5 c 128
 283 105 283 105 334 105 c 0
 371 105 371 105 392 139 c 128
 413 173 413 173 413 218 c 0
EndSplineSet
Ligature2: "sub_ligature_pststaml_2 subtable" u0B9E u0BBF
LCarets2: 1 0
EndChar

StartChar: u0B9E_u0BC0
Encoding: 197 -1 143
Width: 1220
GlyphClass: 2
Flags: W
LayerCount: 2
Fore
SplineSet
1104 841 m 1
 1104 773 1104 773 1058 727 c 128
 1012 681 1012 681 935 681 c 0
 864 681 864 681 823 723.5 c 128
 782 766 782 766 782 824 c 0
 782 854 782 854 791.5 882 c 128
 801 910 801 910 819 931 c 1
 803 932 l 1
 736 932 736 932 696.5 879.5 c 128
 657 827 657 827 657 760 c 0
 657 723 657 723 673 690.5 c 128
 689 658 689 658 714 633 c 1
 919 633 l 1
 919 559 l 1
 782 559 l 1
 782 359 l 1
 819 388 819 388 872 388 c 0
 974 388 974 388 1034 309 c 0
 1085 241 1085 241 1085 150 c 0
 1085 -37 1085 -37 961 -147 c 0
 819 -274 819 -274 538 -274 c 0
 284 -274 284 -274 141 -144 c 128
 -2 -14 -2 -14 -2 214 c 0
 -2 351 -2 351 37 462 c 128
 76 573 76 573 148 638 c 1
 198 596 l 1
 131 529 131 529 100.5 429 c 128
 70 329 70 329 70 211 c 0
 70 25 70 25 196.5 -87.5 c 128
 323 -200 323 -200 528 -200 c 0
 747 -200 747 -200 861 -90 c 1
 959 3 959 3 959 148 c 0
 959 220 959 220 924 262 c 0
 895 296 895 296 851 296 c 0
 798 296 798 296 782 264 c 1
 782 -4 l 1
 654 -4 l 1
 654 558 l 1
 477 558 l 2
 375 558 375 558 311 504 c 0
 257 458 257 458 242 390 c 1
 289 423 289 423 354 423 c 0
 439 423 439 423 492 366 c 128
 545 309 545 309 545 218 c 0
 545 118 545 118 503.5 58 c 128
 462 -2 462 -2 380 -2 c 0
 277 -2 277 -2 220 74.5 c 128
 163 151 163 151 163 292 c 0
 163 450 163 450 244.5 541.5 c 128
 326 633 326 633 465 633 c 2
 640 633 l 1
 614 662 614 662 597.5 699 c 128
 581 736 581 736 581 778 c 0
 581 913 581 913 669 981 c 0
 740 1037 740 1037 840 1037 c 0
 946 1037 946 1037 1014 1000 c 0
 1106 949 1106 949 1104 841 c 1
1001 825 m 1
 1001 860 1001 860 978 884.5 c 128
 955 909 955 909 922 909 c 1
 890 902 890 902 872 880 c 128
 854 858 854 858 854 825 c 0
 854 796 854 796 873.5 774 c 128
 893 752 893 752 923 752 c 0
 956 752 956 752 978 773 c 128
 1000 794 1000 794 1001 825 c 1
415 219 m 0
 415 262 415 262 388 298 c 128
 361 334 361 334 324 334 c 0
 291 334 291 334 266.5 314 c 128
 242 294 242 294 235 266 c 1
 235 195 235 195 260 150.5 c 128
 285 106 285 106 336 106 c 0
 373 106 373 106 394 140 c 128
 415 174 415 174 415 219 c 0
EndSplineSet
Ligature2: "sub_ligature_pststaml_4 subtable" u0B9E u0BC0
LCarets2: 1 0
EndChar

StartChar: u0B9E_u0BC1
Encoding: 198 -1 144
Width: 1479
GlyphClass: 2
Flags: W
LayerCount: 2
Fore
SplineSet
1344 -106 m 1
 1020 -106 l 1
 953 -213 953 -213 839 -274 c 0
 711 -342 711 -342 541 -342 c 0
 308 -342 308 -342 156 -253 c 0
 51 -192 51 -192 8 -107 c 0
 2 -96 2 -96 2 -81 c 0
 2 -61 2 -61 15.5 -47 c 128
 29 -33 29 -33 58 -33 c 2
 921 -33 l 1
 964 53 964 53 964 145 c 0
 964 217 964 217 929 259 c 0
 900 293 900 293 856 293 c 0
 803 293 803 293 787 261 c 1
 787 -7 l 1
 659 -7 l 1
 659 555 l 1
 482 555 l 2
 380 555 380 555 316 501 c 0
 262 455 262 455 247 387 c 1
 294 420 294 420 359 420 c 0
 444 420 444 420 497 363 c 128
 550 306 550 306 550 215 c 0
 550 115 550 115 508.5 55 c 128
 467 -5 467 -5 385 -5 c 0
 282 -5 282 -5 225 71.5 c 128
 168 148 168 148 168 289 c 0
 168 447 168 447 249.5 538.5 c 128
 331 630 331 630 470 630 c 2
 926 630 l 1
 926 556 l 1
 789 556 l 1
 789 356 l 1
 826 385 826 385 879 385 c 0
 981 385 981 385 1041 306 c 0
 1092 238 1092 238 1092 147 c 0
 1092 48 1092 48 1060 -33 c 1
 1223 -33 l 1
 1223 632 l 1
 1349 632 l 1
 1344 -106 l 1
420 215 m 0
 420 258 420 258 393 294 c 128
 366 330 366 330 329 330 c 0
 296 330 296 330 271.5 310 c 128
 247 290 247 290 240 262 c 1
 240 191 240 191 265 146.5 c 128
 290 102 290 102 341 102 c 0
 378 102 378 102 399 136 c 128
 420 170 420 170 420 215 c 0
880 -107 m 1
 108 -107 l 2
 97 -107 97 -107 94.5 -109.5 c 128
 92 -112 92 -112 94 -116 c 0
 129 -166 129 -166 222 -209 c 0
 355 -270 355 -270 532 -270 c 0
 646 -270 646 -270 732.5 -226 c 128
 819 -182 819 -182 880 -107 c 1
EndSplineSet
Ligature2: "sub_ligature_pststaml_6 subtable" u0B9E u0BC1
LCarets2: 1 0
EndChar

StartChar: u0B9E_u0BC2
Encoding: 199 -1 145
Width: 1819
GlyphClass: 2
Flags: W
LayerCount: 2
Fore
SplineSet
1685 558 m 1
 1548 558 l 1
 1548 -106 l 1
 1422 -106 l 1
 1422 558 l 1
 1289 558 l 1
 1289 -106 l 1
 1018 -106 l 1
 953 -213 953 -213 839 -274 c 0
 711 -342 711 -342 541 -342 c 0
 308 -342 308 -342 156 -253 c 0
 51 -192 51 -192 8 -107 c 0
 2 -96 2 -96 2 -81 c 0
 2 -61 2 -61 15.5 -47 c 128
 29 -33 29 -33 58 -33 c 2
 921 -33 l 1
 964 53 964 53 964 145 c 0
 964 217 964 217 929 259 c 0
 900 293 900 293 856 293 c 0
 803 293 803 293 787 261 c 1
 787 -7 l 1
 659 -7 l 1
 659 555 l 1
 482 555 l 2
 380 555 380 555 316 501 c 0
 262 455 262 455 247 387 c 1
 294 420 294 420 359 420 c 0
 444 420 444 420 497 363 c 128
 550 306 550 306 550 215 c 0
 550 115 550 115 508.5 55 c 128
 467 -5 467 -5 385 -5 c 0
 282 -5 282 -5 225 71.5 c 128
 168 148 168 148 168 289 c 0
 168 447 168 447 249.5 538.5 c 128
 331 630 331 630 470 630 c 2
 926 630 l 1
 926 556 l 1
 789 556 l 1
 789 356 l 1
 826 385 826 385 879 385 c 0
 981 385 981 385 1041 306 c 0
 1092 238 1092 238 1092 147 c 0
 1092 99 1092 99 1084.5 53.5 c 128
 1077 8 1077 8 1062 -32 c 1
 1224 -32 l 1
 1224 633 l 1
 1691 633 l 1
 1685 558 l 1
420 216 m 0
 420 259 420 259 393 295 c 128
 366 331 366 331 329 331 c 0
 296 331 296 331 271.5 311 c 128
 247 291 247 291 240 263 c 1
 240 192 240 192 265 147.5 c 128
 290 103 290 103 341 103 c 0
 378 103 378 103 399 137 c 128
 420 171 420 171 420 216 c 0
880 -106 m 1
 101 -106 l 2
 92 -106 92 -106 88.5 -108.5 c 128
 85 -111 85 -111 87 -115 c 0
 138 -186 138 -186 279 -232 c 0
 395 -269 395 -269 532 -269 c 0
 649 -269 649 -269 738 -223 c 1
 819 -183 819 -183 880 -106 c 1
EndSplineSet
Ligature2: "sub_ligature_pststaml_8 subtable" u0B9E u0BC2
LCarets2: 1 0
EndChar

StartChar: u0B9E_u0BCD
Encoding: 200 -1 146
Width: 1220
GlyphClass: 2
Flags: W
LayerCount: 2
Fore
SplineSet
735 820 m 0
 735 784 735 784 707 756 c 128
 679 728 679 728 642 728 c 256
 605 728 605 728 578 755 c 128
 551 782 551 782 551 819 c 256
 551 856 551 856 578 883 c 128
 605 910 605 910 642 910 c 256
 679 910 679 910 707 882 c 128
 735 854 735 854 735 820 c 0
1086 146 m 1
 1086 -41 1086 -41 962 -151 c 0
 820 -278 820 -278 539 -278 c 0
 285 -278 285 -278 142 -148 c 128
 -1 -18 -1 -18 -1 210 c 0
 -1 347 -1 347 38 458 c 128
 77 569 77 569 149 634 c 1
 199 592 l 1
 132 525 132 525 101.5 425 c 128
 71 325 71 325 71 207 c 0
 71 21 71 21 197.5 -91.5 c 128
 324 -204 324 -204 529 -204 c 0
 748 -204 748 -204 862 -94 c 1
 960 -1 960 -1 960 144 c 0
 960 216 960 216 925 258 c 0
 896 292 896 292 852 292 c 0
 799 292 799 292 783 260 c 1
 783 -8 l 1
 655 -8 l 1
 655 554 l 1
 478 554 l 2
 376 554 376 554 312 500 c 0
 258 454 258 454 243 386 c 1
 290 419 290 419 355 419 c 0
 440 419 440 419 493 362 c 128
 546 305 546 305 546 214 c 0
 546 114 546 114 504.5 54 c 128
 463 -6 463 -6 381 -6 c 0
 278 -6 278 -6 221 70.5 c 128
 164 147 164 147 164 288 c 0
 164 446 164 446 245.5 537.5 c 128
 327 629 327 629 466 629 c 2
 922 629 l 1
 922 555 l 1
 785 555 l 1
 785 355 l 1
 822 384 822 384 875 384 c 0
 977 384 977 384 1037 305 c 0
 1088 237 1088 237 1086 146 c 1
417 214 m 0
 417 257 417 257 390 293 c 128
 363 329 363 329 326 329 c 0
 293 329 293 329 268.5 309 c 128
 244 289 244 289 237 261 c 1
 237 190 237 190 262 145.5 c 128
 287 101 287 101 338 101 c 0
 375 101 375 101 396 135 c 128
 417 169 417 169 417 214 c 0
EndSplineSet
Ligature2: "pstspostbasesubstitution subtable" u0B9E u0BCD
LCarets2: 1 0
EndChar

StartChar: u0B9F
Encoding: 117 2975 147
Width: 998
GlyphClass: 1
Flags: W
LayerCount: 2
Fore
SplineSet
863 -4 m 1
 -5 -4 l 1
 -5 633 l 1
 115 633 l 1
 115 69 l 1
 862 69 l 1
 863 -4 l 1
EndSplineSet
EndChar

StartChar: u0B9F_u0BBF
Encoding: 201 -1 148
Width: 890
GlyphClass: 2
Flags: W
LayerCount: 2
Fore
SplineSet
756 -4 m 1
 619 -4 l 1
 619 -296 l 1
 498 -296 l 1
 498 -4 l 1
 -3 -4 l 1
 -3 633 l 1
 117 633 l 1
 117 62 l 1
 387 62 l 1
 358 91 358 91 335 123 c 0
 307 162 307 162 284 215 c 0
 268 252 268 252 258 296 c 128
 248 340 248 340 248 389 c 0
 248 440 248 440 261 483 c 128
 274 526 274 526 307 562 c 0
 333 591 333 591 375.5 609.5 c 128
 418 628 418 628 464 628 c 0
 538 628 538 628 581 578 c 0
 620 532 620 532 620 464 c 2
 620 58 l 1
 757 58 l 1
 756 -4 l 1
498 66 m 1
 498 470 l 2
 498 495 498 495 482 509.5 c 128
 466 524 466 524 448 524 c 0
 397 524 397 524 367 483 c 1
 330 439 330 439 330 355 c 0
 330 283 330 283 360.5 226.5 c 128
 391 170 391 170 425 130.5 c 128
 459 91 459 91 498 66 c 1
EndSplineSet
Ligature2: "sub_ligature_pststaml_2 subtable" u0B9F u0BBF
LCarets2: 1 0
EndChar

StartChar: u0B9F_u0BC0
Encoding: 202 -1 149
Width: 835
GlyphClass: 2
Flags: W
LayerCount: 2
Fore
SplineSet
702 278 m 1
 702 210 702 210 656.5 164.5 c 128
 611 119 611 119 534 119 c 0
 460 119 460 119 419.5 161 c 128
 379 203 379 203 379 263 c 0
 379 326 379 326 416 372 c 1
 398 372 l 2
 331 372 331 372 292 319.5 c 128
 253 267 253 267 253 200 c 0
 253 157 253 157 271 121.5 c 128
 289 86 289 86 319 63 c 1
 698 63 l 1
 698 -2 l 1
 -6 -2 l 1
 -6 635 l 1
 114 635 l 1
 114 64 l 1
 240 64 l 1
 211 94 211 94 195 130 c 1
 174 173 174 173 174 216 c 0
 174 351 174 351 262 421 c 0
 333 477 333 477 435 477 c 0
 541 477 541 477 608 440 c 0
 700 389 700 389 702 278 c 1
594 265 m 1
 594 301 594 301 572.5 324 c 128
 551 347 551 347 515 347 c 1
 485 342 485 342 467 320 c 128
 449 298 449 298 449 266 c 0
 449 236 449 236 468.5 214 c 128
 488 192 488 192 520 192 c 256
 552 192 552 192 573.5 213.5 c 128
 595 235 595 235 594 265 c 1
EndSplineSet
Ligature2: "sub_ligature_pststaml_4 subtable" u0B9F u0BC0
LCarets2: 1 0
EndChar

StartChar: u0B9F_u0BC1
Encoding: 203 -1 150
Width: 1034
GlyphClass: 2
Flags: W
LayerCount: 2
Fore
SplineSet
863 -2 m 1
 796 -2 l 1
 811 56 811 56 819 131.5 c 128
 827 207 827 207 827 285 c 0
 827 367 827 367 817.5 443 c 128
 808 519 808 519 787 569 c 0
 741 682 741 682 656 731 c 128
 571 780 571 780 439 780 c 0
 263 780 263 780 166.5 651 c 128
 70 522 70 522 70 308 c 0
 70 93 70 93 135 -28 c 0
 212 -170 212 -170 374 -170 c 0
 491 -170 491 -170 558 -68 c 0
 616 21 616 21 616 147 c 0
 616 198 616 198 593 240 c 1
 561 295 561 295 503 295 c 0
 473 295 473 295 455 288 c 128
 437 281 437 281 429 263 c 1
 429 -5 l 1
 302 -5 l 1
 302 632 l 1
 429 632 l 1
 429 359 l 1
 448 373 448 373 472.5 380 c 128
 497 387 497 387 525 387 c 0
 628 387 628 387 691 309 c 0
 745 241 745 241 745 152 c 0
 745 -41 745 -41 651.5 -141.5 c 128
 558 -242 558 -242 386 -242 c 0
 183 -242 183 -242 85 -81 c 0
 -3 63 -3 63 -3 323 c 0
 -3 590 -3 590 103 745 c 0
 220 915 220 915 443 915 c 0
 599 915 599 915 707.5 844 c 128
 816 773 816 773 859 650 c 1
 878 599 878 599 887.5 516 c 128
 897 433 897 433 897 347 c 0
 897 254 897 254 887.5 161 c 128
 878 68 878 68 863 -2 c 1
EndSplineSet
Ligature2: "sub_ligature_pststaml_6 subtable" u0B9F u0BC1
LCarets2: 1 0
EndChar

StartChar: u0B9F_u0BC2
Encoding: 204 -1 151
Width: 1062
GlyphClass: 2
Flags: W
LayerCount: 2
Fore
SplineSet
926 522 m 0
 926 450 926 450 889 404 c 0
 846 351 846 351 765 351 c 0
 679 351 679 351 633.5 393.5 c 128
 588 436 588 436 588 504 c 0
 588 569 588 569 627 611 c 0
 673 660 673 660 758 660 c 1
 715 724 715 724 631 764.5 c 128
 547 805 547 805 447 805 c 0
 263 805 263 805 164 661 c 0
 72 528 72 528 72 307 c 0
 72 92 72 92 137 -29 c 0
 214 -171 214 -171 376 -171 c 0
 495 -171 495 -171 562 -69 c 0
 620 20 620 20 620 147 c 0
 620 200 620 200 597 240 c 0
 565 295 565 295 505 295 c 0
 479 295 479 295 459.5 287.5 c 128
 440 280 440 280 431 262 c 1
 431 -5 l 1
 305 -5 l 1
 305 632 l 1
 431 632 l 1
 431 358 l 1
 450 370 450 370 475 377.5 c 128
 500 385 500 385 526 385 c 0
 630 385 630 385 691 307 c 0
 745 237 745 237 745 148 c 0
 745 -45 745 -45 651.5 -145.5 c 128
 558 -246 558 -246 386 -246 c 0
 185 -246 185 -246 86 -84 c 0
 -2 61 -2 61 -2 320 c 0
 -2 595 -2 595 114 749 c 0
 235 911 235 911 465 911 c 0
 675 911 675 911 805 791 c 0
 926 679 926 679 926 522 c 0
799 474 m 0
 807 495 807 495 807 513 c 0
 807 548 807 548 781 574 c 1
 758 581 758 581 742 581 c 0
 692 581 692 581 670 535 c 0
 662 520 662 520 662 504 c 0
 662 458 662 458 701 442 c 0
 713 437 713 437 732 437 c 0
 785 437 785 437 799 474 c 0
EndSplineSet
Ligature2: "sub_ligature_pststaml_8 subtable" u0B9F u0BC2
LCarets2: 1 0
EndChar

StartChar: u0B9F_u0BCD
Encoding: 205 -1 152
Width: 998
GlyphClass: 2
Flags: W
LayerCount: 2
Fore
SplineSet
475 820 m 0
 475 783 475 783 448 756 c 128
 421 729 421 729 384 729 c 256
 347 729 347 729 320 756 c 128
 293 783 293 783 293 820 c 256
 293 857 293 857 320 884 c 128
 347 911 347 911 384 911 c 0
 420 911 420 911 447.5 883 c 128
 475 855 475 855 475 820 c 0
862 -6 m 1
 -6 -6 l 1
 -6 631 l 1
 114 631 l 1
 114 67 l 1
 861 67 l 1
 862 -6 l 1
EndSplineSet
Ligature2: "pstspostbasesubstitution subtable" u0B9F u0BCD
EndChar

StartChar: u0BA3
Encoding: 118 2979 153
Width: 1786
GlyphClass: 1
Flags: W
LayerCount: 2
Fore
SplineSet
1650 558 m 1
 1515 558 l 1
 1515 -4 l 1
 1388 -4 l 1
 1388 558 l 1
 1289 558 l 2
 1219 558 1219 558 1161 536 c 1
 1224 488 1224 488 1253 424 c 128
 1282 360 1282 360 1282 286 c 0
 1282 135 1282 135 1238 66.5 c 128
 1194 -2 1194 -2 1092 -2 c 0
 993 -2 993 -2 947 67.5 c 128
 901 137 901 137 901 268 c 0
 901 345 901 345 927.5 412.5 c 128
 954 480 954 480 1003 528 c 1
 971 542 971 542 930 549.5 c 128
 889 557 889 557 845 557 c 0
 771 557 771 557 718 535 c 1
 776 489 776 489 806 421.5 c 128
 836 354 836 354 836 284 c 0
 836 133 836 133 792 64.5 c 128
 748 -4 748 -4 646 -4 c 0
 548 -4 548 -4 500.5 67 c 128
 453 138 453 138 453 266 c 0
 453 345 453 345 478.5 410 c 128
 504 475 504 475 554 526 c 1
 487 555 487 555 395 555 c 0
 289 555 289 555 200 504 c 0
 118 457 118 457 88 393 c 1
 134 421 134 421 192 421 c 0
 277 421 277 421 330 364 c 128
 383 307 383 307 383 216 c 0
 383 113 383 113 343 58 c 0
 299 -3 299 -3 206 -3 c 0
 118 -3 118 -3 62 74 c 0
 2 155 2 155 2 292 c 0
 2 448 2 448 119 543 c 0
 229 632 229 632 387 632 c 0
 529 632 529 632 636 586 c 1
 721 632 721 632 833 632 c 0
 980 632 980 632 1083 585 c 1
 1164 632 1164 632 1280 632 c 2
 1652 632 l 1
 1650 558 l 1
1157 284 m 0
 1157 340 1157 340 1136 391 c 128
 1115 442 1115 442 1072 481 c 1
 976 400 976 400 976 267 c 0
 976 176 976 176 999 122.5 c 128
 1022 69 1022 69 1066 69 c 0
 1117 69 1117 69 1136.5 121.5 c 128
 1156 174 1156 174 1157 284 c 0
708 284 m 0
 708 340 708 340 687 390 c 128
 666 440 666 440 622 480 c 1
 526 401 526 401 526 267 c 0
 526 176 526 176 549 122.5 c 128
 572 69 572 69 616 69 c 0
 669 69 669 69 688.5 121.5 c 128
 708 174 708 174 708 284 c 0
253 216 m 0
 253 257 253 257 224.5 294 c 128
 196 331 196 331 161 331 c 256
 126 331 126 331 102.5 311.5 c 128
 79 292 79 292 71 263 c 1
 71 192 71 192 96 147.5 c 128
 121 103 121 103 174 103 c 0
 213 103 213 103 235 139 c 0
 253 169 253 169 253 216 c 0
EndSplineSet
EndChar

StartChar: u0BA3_u0BBE.old
Encoding: 207 -1 155
Width: 1929
GlyphClass: 1
Flags: W
LayerCount: 2
Fore
SplineSet
1794 264 m 1
 1794 -14 1794 -14 1568 -176 c 0
 1335 -344 1335 -344 913 -344 c 0
 677 -344 677 -344 488 -295 c 0
 265 -237 265 -237 142 -121 c 0
 0 14 0 14 0 223 c 0
 0 356 0 356 39 462 c 128
 78 568 78 568 150 633 c 1
 200 591 l 1
 133 524 133 524 102.5 430.5 c 128
 72 337 72 337 72 220 c 0
 72 36 72 36 212 -84 c 0
 328 -183 328 -183 536 -231 c 0
 709 -271 709 -271 907 -271 c 0
 1251 -271 1251 -271 1458.5 -117.5 c 128
 1666 36 1666 36 1666 279 c 0
 1666 396 1666 396 1601 476 c 128
 1536 556 1536 556 1433 556 c 0
 1373 556 1373 556 1323 534 c 1
 1383 488 1383 488 1413.5 421 c 128
 1444 354 1444 354 1444 283 c 0
 1444 134 1444 134 1400 65 c 128
 1356 -4 1356 -4 1256 -4 c 0
 1157 -4 1157 -4 1111 65.5 c 128
 1065 135 1065 135 1065 266 c 0
 1065 347 1065 347 1090.5 411 c 128
 1116 475 1116 475 1166 525 c 1
 1098 555 1098 555 1006 555 c 0
 935 555 935 555 878 533 c 1
 939 486 939 486 968 420.5 c 128
 997 355 997 355 997 283 c 0
 997 134 997 134 953 65 c 128
 909 -4 909 -4 809 -4 c 0
 710 -4 710 -4 663.5 65.5 c 128
 617 135 617 135 617 266 c 0
 617 345 617 345 642 410 c 128
 667 475 667 475 717 526 c 1
 650 555 650 555 559 555 c 0
 452 555 452 555 363 504 c 0
 284 458 284 458 252 393 c 1
 298 421 298 421 356 421 c 0
 441 421 441 421 494 364 c 128
 547 307 547 307 547 216 c 0
 547 114 547 114 504 54.5 c 128
 461 -5 461 -5 368 -5 c 0
 280 -5 280 -5 224 72 c 0
 164 153 164 153 164 290 c 0
 164 446 164 446 280 541 c 0
 389 630 389 630 549 630 c 0
 694 630 694 630 799 584 c 1
 841 606 841 606 890.5 617.5 c 128
 940 629 940 629 996 629 c 0
 1073 629 1073 629 1131.5 617.5 c 128
 1190 606 1190 606 1243 583 c 1
 1325 630 1325 630 1430 630 c 0
 1600 630 1600 630 1700 520 c 1
 1795 417 1795 417 1794 264 c 1
1319 283 m 0
 1319 339 1319 339 1299 388.5 c 128
 1279 438 1279 438 1233 480 c 1
 1187 441 1187 441 1161.5 386.5 c 128
 1136 332 1136 332 1136 267 c 0
 1136 178 1136 178 1160.5 123.5 c 128
 1185 69 1185 69 1228 69 c 0
 1281 69 1281 69 1300.5 121.5 c 128
 1320 174 1320 174 1319 283 c 0
871 284 m 0
 871 340 871 340 850 391 c 128
 829 442 829 442 785 481 c 1
 690 402 690 402 690 268 c 0
 690 177 690 177 713 123.5 c 128
 736 70 736 70 780 70 c 0
 833 70 833 70 854 126 c 1
 870 172 870 172 871 284 c 0
415 216 m 0
 415 259 415 259 388 295 c 128
 361 331 361 331 324 331 c 0
 291 331 291 331 266.5 311 c 128
 242 291 242 291 235 263 c 1
 235 192 235 192 260 147.5 c 128
 285 103 285 103 336 103 c 0
 373 103 373 103 394 137 c 128
 415 171 415 171 415 216 c 0
EndSplineSet
EndChar

StartChar: u0BA3_u0BBF
Encoding: 208 -1 156
Width: 1936
GlyphClass: 2
Flags: W
LayerCount: 2
Fore
SplineSet
1801 -4 m 1
 1733 -4 l 1
 1733 694 l 2
 1733 782 1733 782 1708 819 c 0
 1678 863 1678 863 1603 863 c 0
 1547 863 1547 863 1511.5 826 c 128
 1476 789 1476 789 1476 725 c 0
 1476 696 1476 696 1483 673 c 128
 1490 650 1490 650 1502 632 c 1
 1651 632 l 1
 1651 558 l 1
 1516 558 l 1
 1516 -4 l 1
 1389 -4 l 1
 1389 558 l 1
 1290 558 l 2
 1220 558 1220 558 1162 536 c 1
 1225 488 1225 488 1254 424 c 128
 1283 360 1283 360 1283 286 c 0
 1283 135 1283 135 1239 66.5 c 128
 1195 -2 1195 -2 1093 -2 c 0
 994 -2 994 -2 948 67.5 c 128
 902 137 902 137 902 268 c 0
 902 345 902 345 928.5 412.5 c 128
 955 480 955 480 1004 528 c 1
 972 542 972 542 931 549.5 c 128
 890 557 890 557 846 557 c 0
 772 557 772 557 719 535 c 1
 777 489 777 489 807 421.5 c 128
 837 354 837 354 837 284 c 0
 837 133 837 133 793 64.5 c 128
 749 -4 749 -4 647 -4 c 0
 549 -4 549 -4 501.5 67 c 128
 454 138 454 138 454 266 c 0
 454 345 454 345 479.5 410 c 128
 505 475 505 475 555 526 c 1
 488 555 488 555 396 555 c 0
 290 555 290 555 201 504 c 0
 119 457 119 457 89 393 c 1
 135 421 135 421 193 421 c 0
 278 421 278 421 331 364 c 128
 384 307 384 307 384 216 c 0
 384 113 384 113 344 58 c 0
 300 -3 300 -3 207 -3 c 0
 119 -3 119 -3 63 74 c 0
 3 155 3 155 3 292 c 0
 3 448 3 448 120 543 c 0
 230 632 230 632 388 632 c 0
 530 632 530 632 637 586 c 1
 722 632 722 632 834 632 c 0
 981 632 981 632 1084 585 c 1
 1165 632 1165 632 1281 632 c 2
 1429 632 l 1
 1404 686 1404 686 1404 739 c 0
 1404 853 1404 853 1456.5 918 c 128
 1509 983 1509 983 1605 983 c 0
 1712 983 1712 983 1759 909 c 0
 1802 842 1802 842 1802 708 c 2
 1801 -4 l 1
1156 283 m 0
 1156 339 1156 339 1135 390 c 128
 1114 441 1114 441 1071 480 c 1
 975 399 975 399 975 266 c 0
 975 175 975 175 998 121.5 c 128
 1021 68 1021 68 1065 68 c 0
 1116 68 1116 68 1135.5 120.5 c 128
 1155 173 1155 173 1156 283 c 0
707 283 m 0
 707 339 707 339 686 389 c 128
 665 439 665 439 621 479 c 1
 525 400 525 400 525 266 c 0
 525 175 525 175 548 121.5 c 128
 571 68 571 68 615 68 c 0
 668 68 668 68 687.5 120.5 c 128
 707 173 707 173 707 283 c 0
252 215 m 0
 252 256 252 256 223.5 293 c 128
 195 330 195 330 160 330 c 256
 125 330 125 330 101.5 310.5 c 128
 78 291 78 291 70 262 c 1
 70 191 70 191 95 146.5 c 128
 120 102 120 102 173 102 c 0
 212 102 212 102 234 138 c 0
 252 168 252 168 252 215 c 0
EndSplineSet
Ligature2: "sub_ligature_pststaml_2 subtable" u0BA3 u0BBF
LCarets2: 1 0
EndChar

StartChar: u0BA3_u0BC0
Encoding: 209 -1 157
Width: 1819
GlyphClass: 2
Flags: W
LayerCount: 2
Fore
SplineSet
1838 841 m 0
 1838 773 1838 773 1792 727 c 128
 1746 681 1746 681 1669 681 c 0
 1597 681 1597 681 1556 723.5 c 128
 1515 766 1515 766 1515 824 c 0
 1515 854 1515 854 1524.5 882.5 c 128
 1534 911 1534 911 1553 930 c 1
 1535 931 l 1
 1468 931 1468 931 1429.5 879.5 c 128
 1391 828 1391 828 1391 760 c 0
 1391 721 1391 721 1405.5 689 c 128
 1420 657 1420 657 1446 632 c 1
 1650 632 l 1
 1650 558 l 1
 1515 558 l 1
 1515 -4 l 1
 1388 -4 l 1
 1388 558 l 1
 1289 558 l 2
 1219 558 1219 558 1161 536 c 1
 1224 488 1224 488 1253 424 c 128
 1282 360 1282 360 1282 286 c 0
 1282 135 1282 135 1238 66.5 c 128
 1194 -2 1194 -2 1092 -2 c 0
 993 -2 993 -2 947 67.5 c 128
 901 137 901 137 901 268 c 0
 901 345 901 345 927.5 412.5 c 128
 954 480 954 480 1003 528 c 1
 971 542 971 542 930 549.5 c 128
 889 557 889 557 845 557 c 0
 771 557 771 557 718 535 c 1
 776 489 776 489 806 421.5 c 128
 836 354 836 354 836 284 c 0
 836 133 836 133 792 64.5 c 128
 748 -4 748 -4 646 -4 c 0
 548 -4 548 -4 500.5 67 c 128
 453 138 453 138 453 266 c 0
 453 345 453 345 478.5 410 c 128
 504 475 504 475 554 526 c 1
 487 555 487 555 395 555 c 0
 289 555 289 555 200 504 c 0
 118 457 118 457 88 393 c 1
 134 421 134 421 192 421 c 0
 277 421 277 421 330 364 c 128
 383 307 383 307 383 216 c 0
 383 113 383 113 343 58 c 0
 299 -3 299 -3 206 -3 c 0
 118 -3 118 -3 62 74 c 0
 2 155 2 155 2 292 c 0
 2 448 2 448 119 543 c 0
 229 632 229 632 387 632 c 0
 529 632 529 632 636 586 c 1
 721 632 721 632 833 632 c 0
 980 632 980 632 1083 585 c 1
 1164 632 1164 632 1280 632 c 2
 1372 632 l 1
 1346 661 1346 661 1329.5 698 c 128
 1313 735 1313 735 1313 777 c 0
 1313 912 1313 912 1401 980 c 0
 1472 1036 1472 1036 1572 1036 c 0
 1678 1036 1678 1036 1746 999 c 0
 1838 948 1838 948 1838 841 c 0
1733 824 m 1
 1733 859 1733 859 1710 883.5 c 128
 1687 908 1687 908 1652 908 c 1
 1585 894 1585 894 1585 823 c 0
 1585 794 1585 794 1604.5 772 c 128
 1624 750 1624 750 1654 750 c 0
 1687 750 1687 750 1709 771 c 128
 1731 792 1731 792 1733 824 c 1
1153 286 m 0
 1153 342 1153 342 1132 393 c 128
 1111 444 1111 444 1068 483 c 1
 972 402 972 402 972 269 c 0
 972 178 972 178 995 124.5 c 128
 1018 71 1018 71 1062 71 c 0
 1113 71 1113 71 1132.5 123.5 c 128
 1152 176 1152 176 1153 286 c 0
704 286 m 0
 704 342 704 342 683 392 c 128
 662 442 662 442 618 482 c 1
 522 403 522 403 522 269 c 0
 522 178 522 178 545 124.5 c 128
 568 71 568 71 612 71 c 0
 665 71 665 71 684.5 123.5 c 128
 704 176 704 176 704 286 c 0
249 218 m 0
 249 259 249 259 220.5 296 c 128
 192 333 192 333 157 333 c 256
 122 333 122 333 98.5 313.5 c 128
 75 294 75 294 67 265 c 1
 67 194 67 194 92 149.5 c 128
 117 105 117 105 170 105 c 0
 209 105 209 105 231 141 c 0
 249 171 249 171 249 218 c 0
EndSplineSet
Ligature2: "sub_ligature_pststaml_4 subtable" u0BA3 u0BC0
LCarets2: 1 0
EndChar

StartChar: u0BA3_u0BC1
Encoding: 210 -1 158
Width: 2022
GlyphClass: 2
Flags: W
LayerCount: 2
Fore
SplineSet
1888 -106 m 1
 1510 -106 l 1
 1317 -344 1317 -344 811 -344 c 0
 487 -344 487 -344 274 -277.5 c 128
 61 -211 61 -211 5 -108 c 0
 -1 -97 -1 -97 -1 -82 c 0
 -1 -62 -1 -62 12.5 -48 c 128
 26 -34 26 -34 55 -34 c 2
 1396 -34 l 1
 1503 101 1503 101 1503 277 c 0
 1503 394 1503 394 1438 474 c 128
 1373 554 1373 554 1270 554 c 0
 1212 554 1212 554 1162 533 c 1
 1223 485 1223 485 1253 420 c 128
 1283 355 1283 355 1283 281 c 0
 1283 130 1283 130 1239 61.5 c 128
 1195 -7 1195 -7 1093 -7 c 0
 994 -7 994 -7 948 62.5 c 128
 902 132 902 132 902 263 c 0
 902 344 902 344 927.5 408 c 128
 953 472 953 472 1003 522 c 1
 935 552 935 552 844 552 c 0
 770 552 770 552 717 530 c 1
 775 484 775 484 805 416.5 c 128
 835 349 835 349 835 279 c 0
 835 128 835 128 791 59.5 c 128
 747 -9 747 -9 645 -9 c 0
 547 -9 547 -9 499.5 62 c 128
 452 133 452 133 452 261 c 0
 452 340 452 340 477.5 405 c 128
 503 470 503 470 553 521 c 1
 486 550 486 550 394 550 c 0
 288 550 288 550 199 499 c 0
 118 453 118 453 86 388 c 1
 132 416 132 416 190 416 c 0
 275 416 275 416 328 359 c 128
 381 302 381 302 381 211 c 0
 381 108 381 108 341 53 c 0
 297 -8 297 -8 204 -8 c 0
 116 -8 116 -8 60 69 c 0
 0 150 0 150 0 287 c 0
 0 443 0 443 117 538 c 0
 227 627 227 627 385 627 c 0
 527 627 527 627 634 581 c 1
 719 627 719 627 831 627 c 0
 906 627 906 627 964.5 615.5 c 128
 1023 604 1023 604 1076 581 c 1
 1158 628 1158 628 1263 628 c 0
 1433 628 1433 628 1533 518 c 0
 1626 415 1626 415 1626 261 c 0
 1626 88 1626 88 1556 -35 c 1
 1756 -35 l 1
 1756 630 l 1
 1884 630 l 1
 1888 -106 l 1
1151 282 m 0
 1151 338 1151 338 1130 388 c 128
 1109 438 1109 438 1066 478 c 1
 1022 441 1022 441 996.5 385 c 128
 971 329 971 329 971 265 c 0
 971 174 971 174 994 120.5 c 128
 1017 67 1017 67 1061 67 c 0
 1112 67 1112 67 1131.5 119.5 c 128
 1151 172 1151 172 1151 282 c 0
703 282 m 0
 703 338 703 338 682 388 c 128
 661 438 661 438 617 478 c 1
 521 399 521 399 521 265 c 0
 521 174 521 174 544 120.5 c 128
 567 67 567 67 611 67 c 0
 664 67 664 67 683.5 119.5 c 128
 703 172 703 172 703 282 c 0
1320 -108 m 1
 105 -108 l 2
 93 -108 93 -108 89.5 -110 c 128
 86 -112 86 -112 90 -114 c 1
 152 -181 152 -181 345.5 -226 c 128
 539 -271 539 -271 793 -271 c 0
 959 -271 959 -271 1092.5 -228 c 128
 1226 -185 1226 -185 1320 -108 c 1
245 215 m 0
 245 256 245 256 216.5 293 c 128
 188 330 188 330 153 330 c 256
 118 330 118 330 94.5 310.5 c 128
 71 291 71 291 63 262 c 1
 63 191 63 191 88 146.5 c 128
 113 102 113 102 166 102 c 0
 205 102 205 102 227 138 c 0
 245 168 245 168 245 215 c 0
EndSplineSet
Ligature2: "sub_ligature_pststaml_6 subtable" u0BA3 u0BC1
LCarets2: 1 0
EndChar

StartChar: u0BA3_u0BC2
Encoding: 211 -1 159
Width: 2361
GlyphClass: 2
Flags: W
LayerCount: 2
Fore
SplineSet
2227 558 m 1
 2092 558 l 1
 2092 -106 l 1
 1965 -106 l 1
 1965 558 l 1
 1835 558 l 1
 1835 -106 l 1
 1512 -106 l 1
 1319 -344 1319 -344 813 -344 c 0
 489 -344 489 -344 276 -277.5 c 128
 63 -211 63 -211 7 -108 c 0
 1 -97 1 -97 1 -82 c 0
 1 -62 1 -62 14.5 -48 c 128
 28 -34 28 -34 57 -34 c 2
 1398 -34 l 1
 1505 101 1505 101 1505 277 c 0
 1505 394 1505 394 1440 474 c 128
 1375 554 1375 554 1272 554 c 0
 1214 554 1214 554 1164 533 c 1
 1225 485 1225 485 1255 420 c 128
 1285 355 1285 355 1285 281 c 0
 1285 130 1285 130 1241 61.5 c 128
 1197 -7 1197 -7 1095 -7 c 0
 996 -7 996 -7 950 62.5 c 128
 904 132 904 132 904 263 c 0
 904 344 904 344 929.5 408 c 128
 955 472 955 472 1005 522 c 1
 937 552 937 552 846 552 c 0
 772 552 772 552 719 530 c 1
 777 484 777 484 807 416.5 c 128
 837 349 837 349 837 279 c 0
 837 128 837 128 793 59.5 c 128
 749 -9 749 -9 647 -9 c 0
 549 -9 549 -9 501.5 62 c 128
 454 133 454 133 454 261 c 0
 454 340 454 340 479.5 405 c 128
 505 470 505 470 555 521 c 1
 488 550 488 550 396 550 c 0
 290 550 290 550 201 499 c 0
 120 453 120 453 88 388 c 1
 134 416 134 416 192 416 c 0
 277 416 277 416 330 359 c 128
 383 302 383 302 383 211 c 0
 383 108 383 108 343 53 c 0
 299 -8 299 -8 206 -8 c 0
 118 -8 118 -8 62 69 c 0
 2 150 2 150 2 287 c 0
 2 443 2 443 119 538 c 0
 229 627 229 627 387 627 c 0
 529 627 529 627 636 581 c 1
 721 627 721 627 833 627 c 0
 908 627 908 627 966.5 615.5 c 128
 1025 604 1025 604 1078 581 c 1
 1160 628 1160 628 1265 628 c 0
 1435 628 1435 628 1535 518 c 0
 1628 415 1628 415 1628 261 c 0
 1628 88 1628 88 1558 -35 c 1
 1758 -35 l 1
 1758 630 l 1
 2225 630 l 1
 2227 558 l 1
1153 282 m 0
 1153 338 1153 338 1132 388 c 128
 1111 438 1111 438 1068 478 c 1
 1024 441 1024 441 998.5 385 c 128
 973 329 973 329 973 265 c 0
 973 174 973 174 996 120.5 c 128
 1019 67 1019 67 1063 67 c 0
 1114 67 1114 67 1133.5 119.5 c 128
 1153 172 1153 172 1153 282 c 0
705 282 m 0
 705 338 705 338 684 388 c 128
 663 438 663 438 619 478 c 1
 523 399 523 399 523 265 c 0
 523 174 523 174 546 120.5 c 128
 569 67 569 67 613 67 c 0
 666 67 666 67 685.5 119.5 c 128
 705 172 705 172 705 282 c 0
1322 -108 m 1
 107 -108 l 2
 95 -108 95 -108 91.5 -110 c 128
 88 -112 88 -112 92 -114 c 1
 154 -181 154 -181 347.5 -226 c 128
 541 -271 541 -271 795 -271 c 0
 961 -271 961 -271 1094.5 -228 c 128
 1228 -185 1228 -185 1322 -108 c 1
247 215 m 0
 247 256 247 256 218.5 293 c 128
 190 330 190 330 155 330 c 256
 120 330 120 330 96.5 310.5 c 128
 73 291 73 291 65 262 c 1
 65 191 65 191 90 146.5 c 128
 115 102 115 102 168 102 c 0
 207 102 207 102 229 138 c 0
 247 168 247 168 247 215 c 0
EndSplineSet
Ligature2: "sub_ligature_pststaml_8 subtable" u0BA3 u0BC2
LCarets2: 1 0
EndChar

StartChar: u0BA3_u0BCD
Encoding: 214 -1 162
Width: 1786
GlyphClass: 2
Flags: W
LayerCount: 2
Fore
SplineSet
971 820 m 1
 971 784 971 784 943 756 c 128
 915 728 915 728 878 728 c 256
 841 728 841 728 814 755 c 128
 787 782 787 782 787 819 c 0
 787 855 787 855 815 883 c 128
 843 911 843 911 879 911 c 0
 916 911 916 911 944 883 c 128
 972 855 972 855 971 820 c 1
1651 557 m 1
 1516 557 l 1
 1516 -5 l 1
 1389 -5 l 1
 1389 557 l 1
 1290 557 l 2
 1220 557 1220 557 1162 535 c 1
 1225 487 1225 487 1254 423 c 128
 1283 359 1283 359 1283 285 c 0
 1283 134 1283 134 1239 65.5 c 128
 1195 -3 1195 -3 1093 -3 c 0
 994 -3 994 -3 948 66.5 c 128
 902 136 902 136 902 267 c 0
 902 344 902 344 928.5 411.5 c 128
 955 479 955 479 1004 527 c 1
 972 541 972 541 931 548.5 c 128
 890 556 890 556 846 556 c 0
 772 556 772 556 719 534 c 1
 777 488 777 488 807 420.5 c 128
 837 353 837 353 837 283 c 0
 837 132 837 132 793 63.5 c 128
 749 -5 749 -5 647 -5 c 0
 549 -5 549 -5 501.5 66 c 128
 454 137 454 137 454 265 c 0
 454 344 454 344 479.5 409 c 128
 505 474 505 474 555 525 c 1
 488 554 488 554 396 554 c 0
 290 554 290 554 201 503 c 0
 119 456 119 456 89 392 c 1
 135 420 135 420 193 420 c 0
 278 420 278 420 331 363 c 128
 384 306 384 306 384 215 c 0
 384 112 384 112 344 57 c 0
 300 -4 300 -4 207 -4 c 0
 119 -4 119 -4 63 73 c 0
 3 154 3 154 3 291 c 0
 3 447 3 447 120 542 c 0
 230 631 230 631 388 631 c 0
 530 631 530 631 637 585 c 1
 722 631 722 631 834 631 c 0
 981 631 981 631 1084 584 c 1
 1165 631 1165 631 1281 631 c 2
 1653 631 l 1
 1651 557 l 1
1158 283 m 0
 1158 339 1158 339 1137 390 c 128
 1116 441 1116 441 1073 480 c 1
 977 399 977 399 977 266 c 0
 977 175 977 175 1000 121.5 c 128
 1023 68 1023 68 1067 68 c 0
 1118 68 1118 68 1137.5 120.5 c 128
 1157 173 1157 173 1158 283 c 0
709 283 m 0
 709 339 709 339 688 389 c 128
 667 439 667 439 623 479 c 1
 527 400 527 400 527 266 c 0
 527 175 527 175 550 121.5 c 128
 573 68 573 68 617 68 c 0
 670 68 670 68 689.5 120.5 c 128
 709 173 709 173 709 283 c 0
254 215 m 0
 254 256 254 256 225.5 293 c 128
 197 330 197 330 162 330 c 256
 127 330 127 330 103.5 310.5 c 128
 80 291 80 291 72 262 c 1
 72 191 72 191 97 146.5 c 128
 122 102 122 102 175 102 c 0
 214 102 214 102 236 138 c 0
 254 168 254 168 254 215 c 0
EndSplineSet
Ligature2: "pstspostbasesubstitution subtable" u0BA3 u0BCD
LCarets2: 1 0
EndChar

StartChar: u0BA4
Encoding: 119 2980 163
Width: 901
GlyphClass: 1
Flags: W
LayerCount: 2
Fore
SplineSet
767 127 m 1
 767 42 767 42 717 -25 c 128
 667 -92 667 -92 579 -124 c 1
 508 -147 508 -147 365.5 -149.5 c 128
 223 -152 223 -152 170 -187 c 0
 128 -215 128 -215 126 -278.5 c 128
 124 -342 124 -342 66 -342 c 0
 40 -342 40 -342 21.5 -308 c 128
 3 -274 3 -274 3 -228 c 0
 3 -198 3 -198 12 -174.5 c 128
 21 -151 21 -151 42 -133 c 1
 113 -77 113 -77 288 -73 c 128
 463 -69 463 -69 541 -43 c 1
 581 -31 581 -31 613 11 c 0
 650 58 650 58 650 111 c 0
 650 159 650 159 645.5 188 c 128
 641 217 641 217 629 239 c 0
 599 296 599 296 496 296 c 1
 496 148 l 2
 496 97 496 97 436 50 c 0
 365 -7 365 -7 265 -7 c 256
 165 -7 165 -7 107 42 c 0
 45 95 45 95 45 197 c 0
 45 271 45 271 91 320 c 0
 127 359 127 359 169 367 c 1
 169 628 l 1
 633 628 l 1
 633 554 l 1
 499 554 l 1
 499 370 l 1
 576 370 576 370 630.5 351.5 c 128
 685 333 685 333 720 296 c 0
 774 238 774 238 767 127 c 1
371 372 m 1
 371 556 l 1
 241 556 l 1
 241 372 l 1
 371 372 l 1
371 146 m 2
 371 300 l 1
 205 300 l 2
 177 300 177 300 152 278 c 0
 117 246 117 246 117 188 c 0
 117 69 117 69 251 69 c 0
 287 69 287 69 329 93.5 c 128
 371 118 371 118 371 146 c 2
EndSplineSet
EndChar

StartChar: u0BA4_u0BBF
Encoding: 215 -1 164
Width: 1052
GlyphClass: 1
Flags: W
LayerCount: 2
Fore
SplineSet
918 -4 m 1
 851 -4 l 1
 851 621 l 2
 851 733 851 733 751 805.5 c 128
 651 878 651 878 500 878 c 0
 311 878 311 878 210.5 804.5 c 128
 110 731 110 731 110 604 c 0
 110 555 110 555 123 505 c 128
 136 455 136 455 161 421 c 1
 161 633 l 1
 625 633 l 1
 625 559 l 1
 491 559 l 1
 491 375 l 1
 568 375 568 375 622.5 356.5 c 128
 677 338 677 338 712 301 c 0
 766 243 766 243 766 132 c 0
 766 47 766 47 716 -20 c 128
 666 -87 666 -87 578 -119 c 1
 507 -142 507 -142 364.5 -144.5 c 128
 222 -147 222 -147 169 -182 c 0
 127 -210 127 -210 125 -273.5 c 128
 123 -337 123 -337 65 -337 c 0
 39 -337 39 -337 20.5 -303 c 128
 2 -269 2 -269 2 -223 c 0
 2 -193 2 -193 11 -169.5 c 128
 20 -146 20 -146 41 -128 c 1
 112 -72 112 -72 287 -68 c 128
 462 -64 462 -64 540 -38 c 1
 580 -26 580 -26 612 16 c 0
 649 63 649 63 649 116 c 0
 649 164 649 164 644.5 193 c 128
 640 222 640 222 628 244 c 0
 598 301 598 301 495 301 c 1
 495 153 l 2
 495 102 495 102 435 55 c 0
 364 -2 364 -2 264 -2 c 256
 164 -2 164 -2 106 47 c 0
 44 100 44 100 44 202 c 0
 44 260 44 260 70 302 c 0
 91 335 91 335 130 357 c 1
 86 400 86 400 65.5 463.5 c 128
 45 527 45 527 45 597 c 0
 45 776 45 776 149 883 c 0
 269 1006 269 1006 504 1006 c 0
 718 1006 718 1006 821.5 907 c 128
 925 808 925 808 925 611 c 1
 918 -4 l 1
371 373 m 1
 371 557 l 1
 241 557 l 1
 241 373 l 1
 371 373 l 1
371 147 m 2
 371 301 l 1
 205 301 l 2
 177 301 177 301 152 279 c 0
 117 247 117 247 117 189 c 0
 117 70 117 70 251 70 c 0
 287 70 287 70 329 94.5 c 128
 371 119 371 119 371 147 c 2
EndSplineSet
Ligature2: "sub_ligature_pststaml_0-0 subtable" u0BA4 u0BBF
EndChar

StartChar: u0BA4_u0BC0
Encoding: 216 -1 165
Width: 901
GlyphClass: 1
Flags: W
LayerCount: 2
Fore
SplineSet
767 127 m 1
 767 42 767 42 717 -25 c 128
 667 -92 667 -92 579 -124 c 1
 508 -147 508 -147 365.5 -149.5 c 128
 223 -152 223 -152 170 -187 c 0
 128 -215 128 -215 126 -278.5 c 128
 124 -342 124 -342 66 -342 c 0
 40 -342 40 -342 21.5 -308 c 128
 3 -274 3 -274 3 -228 c 0
 3 -198 3 -198 12 -174.5 c 128
 21 -151 21 -151 42 -133 c 1
 113 -77 113 -77 288 -73 c 128
 463 -69 463 -69 541 -43 c 1
 581 -31 581 -31 613 11 c 0
 650 58 650 58 650 111 c 0
 650 159 650 159 645.5 188 c 128
 641 217 641 217 629 239 c 0
 599 296 599 296 496 296 c 1
 496 148 l 2
 496 97 496 97 436 50 c 0
 365 -7 365 -7 265 -7 c 256
 165 -7 165 -7 107 42 c 0
 45 95 45 95 45 197 c 0
 45 255 45 255 71 297 c 0
 92 330 92 330 131 352 c 1
 87 395 87 395 66.5 458.5 c 128
 46 522 46 522 46 592 c 0
 46 788 46 788 171 910.5 c 128
 296 1033 296 1033 494 1033 c 0
 600 1033 600 1033 667 996 c 0
 759 945 759 945 759 838 c 0
 759 771 759 771 713.5 724.5 c 128
 668 678 668 678 591 678 c 0
 517 678 517 678 476 720 c 128
 435 762 435 762 435 822 c 0
 435 852 435 852 444.5 880.5 c 128
 454 909 454 909 473 928 c 1
 455 929 l 1
 308 929 308 929 208 822 c 0
 117 724 117 724 117 601 c 0
 117 552 117 552 130 502 c 128
 143 452 143 452 168 418 c 1
 168 630 l 1
 632 630 l 1
 632 556 l 1
 498 556 l 1
 498 372 l 1
 575 372 575 372 629.5 353.5 c 128
 684 335 684 335 719 298 c 0
 773 240 773 240 767 127 c 1
652 825 m 1
 652 860 652 860 629 884.5 c 128
 606 909 606 909 573 909 c 1
 506 895 506 895 506 824 c 0
 506 794 506 794 526 772.5 c 128
 546 751 546 751 576 751 c 0
 608 751 608 751 629.5 772.5 c 128
 651 794 651 794 652 825 c 1
370 376 m 1
 370 560 l 1
 240 560 l 1
 240 376 l 1
 370 376 l 1
370 150 m 2
 370 304 l 1
 204 304 l 2
 176 304 176 304 151 282 c 0
 116 250 116 250 116 192 c 0
 116 73 116 73 250 73 c 0
 286 73 286 73 328 97.5 c 128
 370 122 370 122 370 150 c 2
EndSplineSet
Ligature2: "sub_ligature_pststaml_0-0 subtable" u0BA4 u0BC0
EndChar

